<?xml version="1.0" standalone="no"?>
<!DOCTYPE svg PUBLIC "-//W3C//DTD SVG 1.1//EN" "http://www.w3.org/Graphics/SVG/1.1/DTD/svg11.dtd" >
<svg>
<metadata>
Created by FontForge 20090914 at Mon Dec 26 18:55:25 2022
 By www-data
Copyright (c) Emirates, 2003 - 2016.
</metadata>
<defs>
<font id="Emirates-Medium" horiz-adv-x="0" >
  <font-face 
    font-family="Emirates Medium"
    font-weight="400"
    font-stretch="normal"
    units-per-em="1000"
    panose-1="0 0 0 0 0 0 0 0 0 0"
    ascent="800"
    descent="-200"
    x-height="525.999"
    cap-height="714"
    bbox="-186 -476 1384 1088"
    underline-thickness="50"
    underline-position="-100"
    unicode-range="U+0020-U+FEFC"
  />
<missing-glyph horiz-adv-x="250" 
d="M25 0v714h200v-714h-200zM200 25v664h-150v-664h150z" />
    <glyph glyph-name="uniE002" unicode="&#xfedf;&#xfb51;" horiz-adv-x="517" 
d="M179 763c13.333 -0.666992 23.998 -5.66699 31.998 -15s12 -21.333 12 -36v-5c-2 -16 -9.5 -29.833 -22.5 -41.5s-27.833 -17.5 -44.5 -17.5h-5c-10.667 0 -27.334 4.66699 -50.001 14c-28 10.667 -50 16 -66 16c-14 0 -30.333 -5.33301 -49 -16l-10 16
c28.667 24.667 52.334 37.667 71.001 39h3c10 0 23.333 -3.33301 40 -10c2.66699 -0.666992 5.33398 -1 8.00098 -1c4 0 7.33301 1.33301 10 4l15 20c16.667 22.667 35.334 33.667 56.001 33zM171.998 730c-4 0 -10.334 -5.66797 -19.001 -17.001
c-9.33301 -12 -15.333 -19.333 -18 -22l4 -1c2.66699 -0.666992 5.33398 -1 8.00098 -1c10 0 18.333 2.83301 25 8.5s10 12.834 10 21.501c0 7.33301 -3.33301 11 -10 11zM382.997 680.999l86.001 -0.00292969c-8 -14 -13.333 -28.167 -16 -42.5s-4 -35.833 -4 -64.5l1 -366
c0 -67.333 -24.667 -121.666 -74 -162.999c-44.667 -37.333 -101.334 -56 -170.001 -56c-64.667 0 -117.667 17.667 -159 53l31 68c25.333 -32.667 59.666 -51 102.999 -55c21.333 -0.666992 38.333 4.83301 51 16.5s19.667 28.167 21 49.5
c0.666992 20.667 -5.66602 45.334 -18.999 74.001s-37.333 69.667 -72 123l-61 93c-22 34.667 -33 65.334 -33 92.001v10l71 45c0.666992 -19.333 3 -35.5 7 -48.5s12.333 -31.5 25 -55.5l94 -172c26.667 -47.333 40 -95.666 40 -144.999c0 -19.333 -2.33301 -37.333 -7 -54
c42 20 63 59.333 63 118v374c0 53.333 7.33301 88.666 22 105.999z" />
    <glyph glyph-name="uniE003" unicode="&#xfee0;&#xfb51;" horiz-adv-x="563" 
d="M156 648h-5.00195c-10.667 0 -27.334 4.66699 -50.001 14c-28 10.667 -50 16 -66 16c-14 0 -30.333 -5.33301 -49 -16l-10 16c28.667 24.667 52.334 37.667 71.001 39h3c10 0 23.333 -3.33301 40 -10c2.66699 -0.666992 5.33398 -1 8.00098 -1c4 0 7.33301 1.33301 10 4
l15 20c16.667 22.667 35.334 33.667 56.001 33c13.333 -0.666992 24 -5.66699 32 -15s12 -21.333 12 -36v-5c-2 -16 -9.5 -29.833 -22.5 -41.5s-27.833 -17.5 -44.5 -17.5zM134.998 691l3.99902 -1.00098c2.66699 -0.666992 5.33398 -1 8.00098 -1
c10 0 18.333 2.83301 25 8.5s10 12.834 10 21.501c0 7.33301 -3.33301 11 -10 11c-4 0 -10.333 -5.66699 -19 -17c-9.33301 -12 -15.333 -19.333 -18 -22zM581.997 88.999l-0.000976562 -89h-34c-70.667 0 -121.667 21 -153 63c-45.333 -49.333 -108.333 -74 -189 -74
c-64.667 0 -117.667 17.667 -159 53l31 68c25.333 -32.667 59.666 -51 102.999 -55c21.333 -0.666992 38.333 4.83301 51 16.5s19.667 28.167 21 49.5c0.666992 20.667 -5.66602 45.334 -18.999 74.001s-37.333 69.667 -72 123l-61 93c-22 35.333 -33 66 -33 92v10l71 45
c0.666992 -19.333 3 -35.5 7 -48.5s12.333 -31.5 25 -55.5l94 -171c26.667 -48 40 -96.667 40 -146c0 -19.333 -2.33301 -37.333 -7 -54c42 20 63 59.333 63 118v374c0 53.333 7.33301 88.666 22 105.999h86c-8 -14 -13.333 -28.167 -16 -42.5s-4 -35.833 -4 -64.5l1 -332
v-71c0 -26 7.83301 -46.167 23.5 -60.5s37.834 -21.5 66.501 -21.5h42z" />
    <glyph glyph-name="uniE041" unicode="&#xfb58;&#xfef0;" horiz-adv-x="1067" 
d="M933 445l85.9961 0.000976562c-8 -14 -13.333 -28.167 -16 -42.5s-4 -35.833 -4 -64.5v-154c0 -57.333 -14.667 -101.666 -44 -132.999c-32 -34 -79.667 -51 -143 -51h-145c-9.33301 -91.333 -49.666 -160.666 -120.999 -207.999c-54 -36 -116.333 -54 -187 -54
c-51.333 0 -99.666 10.333 -144.999 31c-49.333 22.667 -88.333 55 -117 97c-32 47.333 -48.333 103.666 -49 168.999c0 38 6.33301 73.333 19 106c14.667 33.333 33.334 59.666 56.001 78.999l56 -30c-30.667 -15.333 -53.334 -39 -68.001 -71
c-10 -22.667 -15 -48.334 -15 -77.001v-9c2.66699 -59.333 29.334 -109 80.001 -149c48.667 -39.333 109 -59 181 -59c64 0 117 18.667 159 56c34.667 32 55 71.667 61 119h-88c-53.333 0 -88.666 7.66699 -105.999 23v86c14 -8 28.167 -13.333 42.5 -16s35.833 -4 64.5 -4
h330c28 0 50 7.33301 66 22c16 14 24 34 24 60v168c0 52.667 7.66699 88 23 106zM843.996 -170.999c0 -14.667 -5.16699 -27.167 -15.5 -37.5s-22.5 -15.5 -36.5 -15.5c-14.667 0 -27.167 5.16699 -37.5 15.5s-15.5 22.833 -15.5 37.5c0 14 5.16699 26.167 15.5 36.5
s22.833 15.5 37.5 15.5c14 0 26.167 -5.16699 36.5 -15.5s15.5 -22.5 15.5 -36.5zM932.996 -118.999c14 0 26.167 -5.16699 36.5 -15.5s15.5 -22.5 15.5 -36.5c0 -14.667 -5.16699 -27.167 -15.5 -37.5s-22.5 -15.5 -36.5 -15.5c-14.667 0 -27.167 5.16699 -37.5 15.5
s-15.5 22.833 -15.5 37.5c0 14 5.16699 26.167 15.5 36.5s22.833 15.5 37.5 15.5zM862.996 -234.999c14 0 26.167 -5.16699 36.5 -15.5s15.5 -22.833 15.5 -37.5c0 -14 -5.16699 -26.167 -15.5 -36.5s-22.5 -15.5 -36.5 -15.5c-14.667 0 -27.167 5.16699 -37.5 15.5
s-15.5 22.5 -15.5 36.5c0 14.667 5.16699 27.167 15.5 37.5s22.833 15.5 37.5 15.5z" />
    <glyph glyph-name="uniE042" unicode="&#xfb59;&#xfef0;" horiz-adv-x="1090" 
d="M1110 89l-0.00195312 -88.998h-34c-63.333 0 -111 17 -143 51c-32.667 -34 -80.334 -51 -143.001 -51h-123c-10 -91.333 -50.333 -160.666 -121 -207.999c-54 -36 -116.333 -54 -187 -54c-51.333 0 -99.666 10.333 -144.999 31c-49.333 22.667 -88.333 55 -117 97
c-32 47.333 -48.333 103.666 -49 168.999c0 38 6.33301 73.333 19 106c14.667 33.333 33.334 59.666 56.001 78.999l56 -30c-30.667 -15.333 -53.334 -39 -68.001 -71c-10 -22.667 -15 -48.334 -15 -77.001v-9c2.66699 -59.333 29.334 -109 80.001 -149
c48.667 -39.333 109 -59 181 -59c64 0 116.667 18.667 158 56c35.333 32 56 71.667 62 119h-88c-53.333 0 -88.666 7.66699 -105.999 23v86c14 -8 28.167 -13.333 42.5 -16s35.5 -4 63.5 -4h309c28 0 50 7.33301 66 22c16 14 24 34 24 60v168c0 52 7.66699 87.333 23 106h86
c-8 -14 -13.333 -28.167 -16 -42.5s-4 -35.833 -4 -64.5v-154v-6v-7c0 -26 8 -46.167 24 -60.5s38.333 -21.5 67 -21.5h42zM843.998 -170.998c0 -14.667 -5.16699 -27.167 -15.5 -37.5s-22.5 -15.5 -36.5 -15.5c-14.667 0 -27.167 5.16699 -37.5 15.5
s-15.5 22.833 -15.5 37.5c0 14 5.16699 26.167 15.5 36.5s22.833 15.5 37.5 15.5c14 0 26.167 -5.16699 36.5 -15.5s15.5 -22.5 15.5 -36.5zM932.998 -118.998c14 0 26.167 -5.16699 36.5 -15.5s15.5 -22.5 15.5 -36.5c0 -14.667 -5.16699 -27.167 -15.5 -37.5
s-22.5 -15.5 -36.5 -15.5c-14.667 0 -27.167 5.16699 -37.5 15.5s-15.5 22.833 -15.5 37.5c0 14 5.16699 26.167 15.5 36.5s22.833 15.5 37.5 15.5zM862.998 -234.998c14 0 26.167 -5.16699 36.5 -15.5s15.5 -22.833 15.5 -37.5c0 -14 -5.16699 -26.167 -15.5 -36.5
s-22.5 -15.5 -36.5 -15.5c-14.667 0 -27.167 5.16699 -37.5 15.5s-15.5 22.5 -15.5 36.5c0 14.667 5.16699 27.167 15.5 37.5s22.833 15.5 37.5 15.5z" />
    <glyph glyph-name="uniE043" unicode="&#xfb58;&#xfef2;" horiz-adv-x="1067" 
d="M933 445l85.9961 0.000976562c-8 -14 -13.333 -28.167 -16 -42.5s-4 -35.833 -4 -64.5v-154c0 -57.333 -14.667 -101.666 -44 -132.999c-32 -34 -79.667 -51 -143 -51h-145c-9.33301 -91.333 -49.666 -160.666 -120.999 -207.999c-54 -36 -116.333 -54 -187 -54
c-51.333 0 -99.666 10.333 -144.999 31c-49.333 22.667 -88.333 55 -117 97c-32 47.333 -48.333 103.666 -49 168.999c0 38 6.33301 73.333 19 106c14.667 33.333 33.334 59.666 56.001 78.999l56 -30c-30.667 -15.333 -53.334 -39 -68.001 -71
c-10 -22.667 -15 -48.334 -15 -77.001v-9c2.66699 -59.333 29.334 -109 80.001 -149c48.667 -39.333 109 -59 181 -59c64 0 117 18.667 159 56c34.667 32 55 71.667 61 119h-88c-53.333 0 -88.666 7.66699 -105.999 23v86c14 -8 28.167 -13.333 42.5 -16s35.833 -4 64.5 -4
h330c28 0 50 7.33301 66 22c16 14 24 34 24 60v168c0 52.667 7.66699 88 23 106zM843.996 -170.999c0 -14.667 -5.16699 -27.167 -15.5 -37.5s-22.5 -15.5 -36.5 -15.5c-14.667 0 -27.167 5.16699 -37.5 15.5s-15.5 22.833 -15.5 37.5c0 14 5.16699 26.167 15.5 36.5
s22.833 15.5 37.5 15.5c14 0 26.167 -5.16699 36.5 -15.5s15.5 -22.5 15.5 -36.5zM932.996 -118.999c14 0 26.167 -5.16699 36.5 -15.5s15.5 -22.5 15.5 -36.5c0 -14.667 -5.16699 -27.167 -15.5 -37.5s-22.5 -15.5 -36.5 -15.5c-14.667 0 -27.167 5.16699 -37.5 15.5
s-15.5 22.833 -15.5 37.5c0 14 5.16699 26.167 15.5 36.5s22.833 15.5 37.5 15.5zM862.996 -234.999c14 0 26.167 -5.16699 36.5 -15.5s15.5 -22.833 15.5 -37.5c0 -14 -5.16699 -26.167 -15.5 -36.5s-22.5 -15.5 -36.5 -15.5c-14.667 0 -27.167 5.16699 -37.5 15.5
s-15.5 22.5 -15.5 36.5c0 14.667 5.16699 27.167 15.5 37.5s22.833 15.5 37.5 15.5zM288.996 -364.999c14 0 26.167 -5.16699 36.5 -15.5s15.5 -22.833 15.5 -37.5c0 -14 -5.16699 -26.167 -15.5 -36.5s-22.5 -15.5 -36.5 -15.5c-14.667 0 -27.167 5.16699 -37.5 15.5
s-15.5 22.5 -15.5 36.5c0 14.667 5.16699 27.167 15.5 37.5s22.833 15.5 37.5 15.5zM429.996 -364.999c14 0 26.167 -5.16699 36.5 -15.5s15.5 -22.833 15.5 -37.5c0 -14 -5.16699 -26.167 -15.5 -36.5s-22.5 -15.5 -36.5 -15.5c-14.667 0 -27.167 5.16699 -37.5 15.5
s-15.5 22.5 -15.5 36.5c0 14.667 5.16699 27.167 15.5 37.5s22.833 15.5 37.5 15.5z" />
    <glyph glyph-name="uniE044" unicode="&#xfb59;&#xfef2;" horiz-adv-x="1090" 
d="M1110 89l-0.00195312 -88.998h-34c-63.333 0 -111 17 -143 51c-32.667 -34 -80.334 -51 -143.001 -51h-123c-10 -91.333 -50.333 -160.666 -121 -207.999c-54 -36 -116.333 -54 -187 -54c-51.333 0 -99.666 10.333 -144.999 31c-49.333 22.667 -88.333 55 -117 97
c-32 47.333 -48.333 103.666 -49 168.999c0 38 6.33301 73.333 19 106c14.667 33.333 33.334 59.666 56.001 78.999l56 -30c-30.667 -15.333 -53.334 -39 -68.001 -71c-10 -22.667 -15 -48.334 -15 -77.001v-9c2.66699 -59.333 29.334 -109 80.001 -149
c48.667 -39.333 109 -59 181 -59c64 0 116.667 18.667 158 56c35.333 32 56 71.667 62 119h-88c-53.333 0 -88.666 7.66699 -105.999 23v86c14 -8 28.167 -13.333 42.5 -16s35.5 -4 63.5 -4h309c28 0 50 7.33301 66 22c16 14 24 34 24 60v168c0 52 7.66699 87.333 23 106h86
c-8 -14 -13.333 -28.167 -16 -42.5s-4 -35.833 -4 -64.5v-154v-6v-7c0 -26 8 -46.167 24 -60.5s38.333 -21.5 67 -21.5h42zM843.998 -170.998c0 -14.667 -5.16699 -27.167 -15.5 -37.5s-22.5 -15.5 -36.5 -15.5c-14.667 0 -27.167 5.16699 -37.5 15.5
s-15.5 22.833 -15.5 37.5c0 14 5.16699 26.167 15.5 36.5s22.833 15.5 37.5 15.5c14 0 26.167 -5.16699 36.5 -15.5s15.5 -22.5 15.5 -36.5zM932.998 -118.998c14 0 26.167 -5.16699 36.5 -15.5s15.5 -22.5 15.5 -36.5c0 -14.667 -5.16699 -27.167 -15.5 -37.5
s-22.5 -15.5 -36.5 -15.5c-14.667 0 -27.167 5.16699 -37.5 15.5s-15.5 22.833 -15.5 37.5c0 14 5.16699 26.167 15.5 36.5s22.833 15.5 37.5 15.5zM862.998 -234.998c14 0 26.167 -5.16699 36.5 -15.5s15.5 -22.833 15.5 -37.5c0 -14 -5.16699 -26.167 -15.5 -36.5
s-22.5 -15.5 -36.5 -15.5c-14.667 0 -27.167 5.16699 -37.5 15.5s-15.5 22.5 -15.5 36.5c0 14.667 5.16699 27.167 15.5 37.5s22.833 15.5 37.5 15.5zM288.998 -364.998c14 0 26.167 -5.16699 36.5 -15.5s15.5 -22.833 15.5 -37.5c0 -14 -5.16699 -26.167 -15.5 -36.5
s-22.5 -15.5 -36.5 -15.5c-14.667 0 -27.167 5.16699 -37.5 15.5s-15.5 22.5 -15.5 36.5c0 14.667 5.16699 27.167 15.5 37.5s22.833 15.5 37.5 15.5zM429.998 -364.998c14 0 26.167 -5.16699 36.5 -15.5s15.5 -22.833 15.5 -37.5c0 -14 -5.16699 -26.167 -15.5 -36.5
s-22.5 -15.5 -36.5 -15.5c-14.667 0 -27.167 5.16699 -37.5 15.5s-15.5 22.5 -15.5 36.5c0 14.667 5.16699 27.167 15.5 37.5s22.833 15.5 37.5 15.5z" />
    <glyph glyph-name="uniE045" unicode="&#xfb58;&#xfe8a;" horiz-adv-x="1067" 
d="M183 328h-90.002c-21.333 0 -37.333 3.33301 -48 10v40c10 -6.66699 25.333 -10 46 -10c-8.66699 10 -13 22.667 -13 38c0 22 7.83301 40 23.5 54s35.834 21 60.501 21c22 0 40.667 -5.33301 56 -16l-8 -25c-14 13.333 -28.333 20 -43 20c-14 0 -25.667 -4.66699 -35 -14
s-14 -21 -14 -35c0 -12.667 4.66699 -23 14 -31s21 -12 35 -12h16c24 0 41.333 -3 52 -9v-41c-11.333 6.66699 -28.666 10 -51.999 10zM932.998 445l85.999 0.000976562c-8 -14 -13.333 -28.167 -16 -42.5s-4 -35.833 -4 -64.5v-154
c0 -57.333 -14.667 -101.666 -44 -132.999c-32 -34 -79.667 -51 -143 -51h-145c-10 -91.333 -50.333 -160.666 -121 -207.999c-54.667 -36 -117.334 -54 -188.001 -54c-51.333 0 -99.666 10.333 -144.999 31c-49.333 22.667 -88.333 55 -117 97
c-32 47.333 -48.333 103.666 -49 168.999c0 38 6.33301 73.333 19 106c14.667 33.333 33.334 59.666 56.001 78.999l56 -30c-30.667 -15.333 -53.334 -39 -68.001 -71c-10 -22.667 -15 -48.334 -15 -77.001v-9c2.66699 -59.333 29.334 -109 80.001 -149
c48.667 -39.333 109 -59 181 -59c64 0 117 18.667 159 56c35.333 32 55.666 71.667 60.999 119h-88c-53.333 0 -88.666 7.66699 -105.999 23v86c14 -8 28.167 -13.333 42.5 -16s35.833 -4 64.5 -4h330c28.667 0 51 7.33301 67 22c16 14 24 34 24 60v168
c0 52.667 7.66699 88 23 106zM843.997 -170.999c0 -14.667 -5.16699 -27.167 -15.5 -37.5s-22.833 -15.5 -37.5 -15.5c-14 0 -26.167 5.16699 -36.5 15.5s-15.5 22.833 -15.5 37.5c0 14 5.16699 26.167 15.5 36.5s22.5 15.5 36.5 15.5c14.667 0 27.167 -5.16699 37.5 -15.5
s15.5 -22.5 15.5 -36.5zM931.997 -118.999c14.667 0 27.167 -5.16699 37.5 -15.5s15.5 -22.5 15.5 -36.5c0 -14.667 -5.16699 -27.167 -15.5 -37.5s-22.833 -15.5 -37.5 -15.5c-14 0 -26.167 5.16699 -36.5 15.5s-15.5 22.833 -15.5 37.5c0 14 5.16699 26.167 15.5 36.5
s22.5 15.5 36.5 15.5zM860.997 -234.999c14.667 0 27.167 -5.16699 37.5 -15.5s15.5 -22.833 15.5 -37.5c0 -14 -5.16699 -26.167 -15.5 -36.5s-22.833 -15.5 -37.5 -15.5c-14 0 -26.167 5.16699 -36.5 15.5s-15.5 22.5 -15.5 36.5c0 14.667 5.16699 27.167 15.5 37.5
s22.5 15.5 36.5 15.5z" />
    <glyph glyph-name="uniE046" unicode="&#xfb59;&#xfe8a;" horiz-adv-x="1090" 
d="M183 328h-90.002c-21.333 0 -37.333 3.33301 -48 10v40c10 -6.66699 25.333 -10 46 -10c-8.66699 10 -13 22.667 -13 38c0 22 7.83301 40 23.5 54s35.834 21 60.501 21c22 0 40.667 -5.33301 56 -16l-8 -25c-14 13.333 -28.333 20 -43 20c-14 0 -25.667 -4.66699 -35 -14
s-14 -21 -14 -35c0 -12.667 4.66699 -23 14 -31s21 -12 35 -12h16c24 0 41.333 -3 52 -9v-41c-11.333 6.66699 -28.666 10 -51.999 10zM1110 89l-0.000976562 -88.998h-34c-63.333 0 -111 17 -143 51c-32.667 -34 -80.334 -51 -143.001 -51h-123
c-10 -91.333 -50.667 -160.666 -122 -207.999c-54 -36 -116.333 -54 -187 -54c-51.333 0 -99.666 10.333 -144.999 31c-49.333 22.667 -88.333 55 -117 97c-32 47.333 -48.333 103.666 -49 168.999c0 38 6.33301 73.333 19 106c14.667 33.333 33.334 59.666 56.001 78.999
l56 -30c-30.667 -15.333 -53.334 -39 -68.001 -71c-10 -22.667 -15 -48.334 -15 -77.001v-9c2.66699 -59.333 29.334 -109 80.001 -149c48.667 -39.333 109 -59 181 -59c64 0 117 18.667 159 56c35.333 32 55.666 71.667 60.999 119h-88
c-53.333 0 -88.666 7.66699 -105.999 23v86c14 -8 28.167 -13.333 42.5 -16s35.833 -4 64.5 -4h308c28.667 0 51 7.33301 67 22c16 14 24 34 24 60v168c0 52.667 7.66699 88 23 106h86c-8 -14 -13.333 -28.167 -16 -42.5s-4 -35.833 -4 -64.5v-154v-6v-7
c0 -29.333 10.333 -51.333 31 -66c15.333 -10.667 35.333 -16 60 -16h42zM843.997 -170.998c0 -14.667 -5.16699 -27.167 -15.5 -37.5s-22.833 -15.5 -37.5 -15.5c-14 0 -26.167 5.16699 -36.5 15.5s-15.5 22.833 -15.5 37.5c0 14 5.16699 26.167 15.5 36.5
s22.5 15.5 36.5 15.5c14.667 0 27.167 -5.16699 37.5 -15.5s15.5 -22.5 15.5 -36.5zM931.997 -118.998c14.667 0 27.167 -5.16699 37.5 -15.5s15.5 -22.5 15.5 -36.5c0 -14.667 -5.16699 -27.167 -15.5 -37.5s-22.833 -15.5 -37.5 -15.5c-14 0 -26.167 5.16699 -36.5 15.5
s-15.5 22.833 -15.5 37.5c0 14 5.16699 26.167 15.5 36.5s22.5 15.5 36.5 15.5zM860.997 -234.998c14.667 0 27.167 -5.16699 37.5 -15.5s15.5 -22.833 15.5 -37.5c0 -14 -5.16699 -26.167 -15.5 -36.5s-22.833 -15.5 -37.5 -15.5c-14 0 -26.167 5.16699 -36.5 15.5
s-15.5 22.5 -15.5 36.5c0 14.667 5.16699 27.167 15.5 37.5s22.5 15.5 36.5 15.5z" />
    <glyph glyph-name="uniE051" unicode="&#xfef3;&#xfe8a;" horiz-adv-x="1067" 
d="M183 328h-90.002c-21.333 0 -37.333 3.33301 -48 10v40c10 -6.66699 25.333 -10 46 -10c-8.66699 10 -13 22.667 -13 38c0 22 7.83301 40 23.5 54s35.834 21 60.501 21c22 0 40.667 -5.33301 56 -16l-8 -25c-14 13.333 -28.333 20 -43 20c-14 0 -25.667 -4.66699 -35 -14
s-14 -21 -14 -35c0 -12.667 4.66699 -23 14 -31s21 -12 35 -12h16c24 0 41.333 -3 52 -9v-41c-11.333 6.66699 -28.666 10 -51.999 10zM932.998 445l85.999 0.000976562c-8 -14 -13.333 -28.167 -16 -42.5s-4 -35.833 -4 -64.5v-154
c0 -57.333 -14.667 -101.666 -44 -132.999c-32 -34 -79.667 -51 -143 -51h-145c-10 -91.333 -50.333 -160.666 -121 -207.999c-54.667 -36 -117.334 -54 -188.001 -54c-51.333 0 -99.666 10.333 -144.999 31c-49.333 22.667 -88.333 55 -117 97
c-32 47.333 -48.333 103.666 -49 168.999c0 38 6.33301 73.333 19 106c14.667 33.333 33.334 59.666 56.001 78.999l56 -30c-30.667 -15.333 -53.334 -39 -68.001 -71c-10 -22.667 -15 -48.334 -15 -77.001v-9c2.66699 -59.333 29.334 -109 80.001 -149
c48.667 -39.333 109 -59 181 -59c64 0 117 18.667 159 56c35.333 32 55.666 71.667 60.999 119h-88c-53.333 0 -88.666 7.66699 -105.999 23v86c14 -8 28.167 -13.333 42.5 -16s35.833 -4 64.5 -4h330c28.667 0 51 7.33301 67 22c16 14 24 34 24 60v168
c0 52.667 7.66699 88 23 106zM790.997 -118.999c14.667 0 27.167 -5.16699 37.5 -15.5s15.5 -22.5 15.5 -36.5c0 -14.667 -5.16699 -27.167 -15.5 -37.5s-22.833 -15.5 -37.5 -15.5c-14 0 -26.167 5.16699 -36.5 15.5s-15.5 22.833 -15.5 37.5
c0 14 5.16699 26.167 15.5 36.5s22.5 15.5 36.5 15.5zM931.997 -118.999c14.667 0 27.167 -5.16699 37.5 -15.5s15.5 -22.5 15.5 -36.5c0 -14.667 -5.16699 -27.167 -15.5 -37.5s-22.833 -15.5 -37.5 -15.5c-14 0 -26.167 5.16699 -36.5 15.5s-15.5 22.833 -15.5 37.5
c0 14 5.16699 26.167 15.5 36.5s22.5 15.5 36.5 15.5z" />
    <glyph glyph-name="uniE052" unicode="&#xfef4;&#xfe8a;" horiz-adv-x="1090" 
d="M183 328h-90.002c-21.333 0 -37.333 3.33301 -48 10v40c10 -6.66699 25.333 -10 46 -10c-8.66699 10 -13 22.667 -13 38c0 22 7.83301 40 23.5 54s35.834 21 60.501 21c22 0 40.667 -5.33301 56 -16l-8 -25c-14 13.333 -28.333 20 -43 20c-14 0 -25.667 -4.66699 -35 -14
s-14 -21 -14 -35c0 -12.667 4.66699 -23 14 -31s21 -12 35 -12h16c24 0 41.333 -3 52 -9v-41c-11.333 6.66699 -28.666 10 -51.999 10zM1110 89l-0.000976562 -88.998h-34c-63.333 0 -111 17 -143 51c-32.667 -34 -80.334 -51 -143.001 -51h-123
c-10 -91.333 -50.667 -160.666 -122 -207.999c-54 -36 -116.333 -54 -187 -54c-51.333 0 -99.666 10.333 -144.999 31c-49.333 22.667 -88.333 55 -117 97c-32 47.333 -48.333 103.666 -49 168.999c0 38 6.33301 73.333 19 106c14.667 33.333 33.334 59.666 56.001 78.999
l56 -30c-30.667 -15.333 -53.334 -39 -68.001 -71c-10 -22.667 -15 -48.334 -15 -77.001v-9c2.66699 -59.333 29.334 -109 80.001 -149c48.667 -39.333 109 -59 181 -59c64 0 117 18.667 159 56c35.333 32 55.666 71.667 60.999 119h-88
c-53.333 0 -88.666 7.66699 -105.999 23v86c14 -8 28.167 -13.333 42.5 -16s35.833 -4 64.5 -4h308c28.667 0 51 7.33301 67 22c16 14 24 34 24 60v168c0 52.667 7.66699 88 23 106h86c-8 -14 -13.333 -28.167 -16 -42.5s-4 -35.833 -4 -64.5v-154v-6v-7
c0 -29.333 10.333 -51.333 31 -66c15.333 -10.667 35.333 -16 60 -16h42zM790.997 -118.998c14.667 0 27.167 -5.16699 37.5 -15.5s15.5 -22.5 15.5 -36.5c0 -14.667 -5.16699 -27.167 -15.5 -37.5s-22.833 -15.5 -37.5 -15.5c-14 0 -26.167 5.16699 -36.5 15.5
s-15.5 22.833 -15.5 37.5c0 14 5.16699 26.167 15.5 36.5s22.5 15.5 36.5 15.5zM931.997 -118.998c14.667 0 27.167 -5.16699 37.5 -15.5s15.5 -22.5 15.5 -36.5c0 -14.667 -5.16699 -27.167 -15.5 -37.5s-22.833 -15.5 -37.5 -15.5c-14 0 -26.167 5.16699 -36.5 15.5
s-15.5 22.833 -15.5 37.5c0 14 5.16699 26.167 15.5 36.5s22.5 15.5 36.5 15.5z" />
    <glyph glyph-name="uniE0A2" unicode="Th" horiz-adv-x="1008" 
d="M943 394v-279c0 -46.667 8.66699 -85 26 -115h-94c-17.333 19.333 -26 56.666 -26 111.999v263c0 58 -30 87 -90 87c-20.667 0 -40.5 -8 -59.5 -24s-33.833 -37 -44.5 -63v-260c0 -43.333 8.66699 -81.666 26 -114.999h-94c-17.333 19.333 -26 57.666 -26 114.999v486
c0 20.667 -3.33301 34 -10 40s-21.334 9 -44.001 9h-182c1.33301 -6 2 -15.333 2 -28v-20v-486c0 -44 8.33301 -82.667 25 -116h-98c-18 18.667 -27 56.334 -27 113.001v486c0 19.333 -1 36 -3 50h-112c-36 0 -64.667 10.667 -86 32c-9.33301 9.33301 -16.333 20.333 -21 33
h536c40 0 68.667 -9 86 -27s26 -47.333 26 -88v-162c6 14.667 19 32 39 52c31.333 31.333 69 47 113 47c42.667 0 77.334 -15.333 104.001 -46c22.667 -26.667 34 -58.667 34 -96z" />
    <glyph glyph-name="uniE0A3" unicode="ft" horiz-adv-x="661" 
d="M514 525l42.0029 1.00098c52.667 0 84.667 -24.333 96 -73l-2 -1c-18 10 -48.333 15 -91 15h-45v-338c0 -32 1.66699 -57 5 -75s10 -36 20 -54h-93c-10 14 -16.833 30 -20.5 48s-5.5 45 -5.5 81v344h-222v-344c0 -33.333 1.66699 -57.833 5 -73.5
s10.666 -34.167 21.999 -55.5h-96c-16.667 19.333 -25 62.333 -25 129v344h-27c-14 0 -28.333 6 -43 18s-22 23.667 -22 35h92v67c0 86 51.333 129 154 129c25.333 0 53.666 -5.66699 84.999 -17c24 -8 37.333 -15 40 -21l-26 -65c-26.667 37.333 -55.334 56 -86.001 56
c-48.667 0 -73 -27.333 -73 -82v-67h131c50 0 92.667 15 128 45c24 19.333 43 43.666 57 72.999v-119z" />
    <glyph glyph-name="uniE0A4" unicode="fj" horiz-adv-x="573" 
d="M420 -76l0.000976562 549.999h-221v-359c0 -44 8.66699 -82.333 26 -115h-93c-17.333 20.667 -26 59 -26 115v359h-26c-29.333 0 -51.666 17.333 -66.999 52h93v67c0 42 22.667 75.333 68 100c36.667 19.333 81 29 133 29h10
c61.333 -1.33301 110.333 -14.666 147 -39.999l-32 -63c-29.333 36.667 -67 55 -113 55c-30 0 -56.667 -6 -80 -18c-26.667 -13.333 -40 -32.333 -40 -57v-73h315v-578c0 -18.667 -0.666992 -34 -2 -46c-6 -44 -23.333 -76.333 -52 -97
c-26.667 -18 -62.334 -27 -107.001 -27c-52.667 0 -101.334 16 -146.001 48l30 62c34 -41.333 72.333 -62 115 -62c24.667 0 42.167 7.5 52.5 22.5s15.5 40.167 15.5 75.5z" />
    <glyph glyph-name="uniE0A5" unicode="tt" horiz-adv-x="642" 
d="M400 466l-219 0.00390625v-356c0 -42.667 8.33301 -79.334 25 -110.001h-93c-17.333 19.333 -26 56.666 -26 111.999v354h-72v55c46 0 87.333 20.333 124 61c16.667 17.333 30.667 38 42 62v-118h154c43.333 0 82.333 18.667 117 56c16.667 17.333 30.667 38 42 62v-118
h42c52.667 0 84.667 -24.667 96 -74c-19.333 9.33301 -50.333 14 -93 14h-45v-356c0 -42.667 8.33301 -79.334 25 -110.001h-93c-17.333 19.333 -26 56.666 -26 111.999v354z" />
    <glyph glyph-name="ff" unicode="ff" horiz-adv-x="713" 
d="M104 526l-0.00195312 64.9971c0 43.333 23 77 69 101c38 19.333 84.667 29 140 29c60.667 0 110 -13.333 148 -40c40 28 92.667 41.333 158 40c58.667 0 108.334 -13.333 149.001 -40l-32 -64c-9.33301 15.333 -24.833 28.5 -46.5 39.5s-42.5 16.5 -62.5 16.5
c-35.333 0 -64.333 -6 -87 -18c-24.667 -13.333 -37 -32.666 -37 -57.999v-71h42c28 0 49 -5 63 -15c14.667 -10.667 25 -28 31 -52c-15.333 10 -40.666 15 -75.999 15h-60v-361c0 -43.333 8.33301 -81 25 -113h-92c-17.333 20.667 -26 58.334 -26 113.001v361h-26h-187
v-361c0 -43.333 8.33301 -81 25 -113h-92c-17.333 20.667 -26 58.334 -26 113.001v361h-26c-28 0 -50 17.333 -66 52h92zM196.998 525.997l121.002 -0.00195312h92v65c0 12.667 2.66699 26 8 40c-12.667 12.667 -27.834 22.834 -45.501 30.501s-34.834 11.5 -51.501 11.5
c-35.333 0 -64.333 -6 -87 -18c-24.667 -13.333 -37 -32.666 -37 -57.999v-71z" />
    <glyph glyph-name="fi" unicode="fi" horiz-adv-x="579" 
d="M421 112l-0.00195312 361h-222v-358c0 -44 8.66699 -82.333 26 -115h-94c-17.333 20.667 -26 59 -26 115v358h-26c-29.333 0 -51.666 17.667 -66.999 53h93v67c0 43.333 24 77 72 101c38 18.667 83.667 28 137 28c28 0 55.833 -3.66699 83.5 -11s49.834 -17 66.501 -29
l-32 -63c-12.667 16.667 -29.167 30 -49.5 40s-40.833 15 -61.5 15c-31.333 0 -58.333 -5.66699 -81 -17c-27.333 -13.333 -41 -32.666 -41 -57.999v-73h316v-411c0 -48.667 8.33301 -87 25 -115h-93c-17.333 19.333 -26 56.666 -26 111.999z" />
    <glyph glyph-name="fl" unicode="fl" horiz-adv-x="591" 
d="M105 526v67c0 86 69.667 129 209 129c28 0 90.333 -7 187 -21c17.333 -19.333 26 -56.666 26 -111.999v-474c0 -42 8.33301 -80.333 25 -115h-95c-17.333 19.333 -26 57.666 -26 114.999v483c0 24 -9.66699 42.667 -29 56s-46 20 -80 20
c-34.667 0 -63.334 -6.66699 -86.001 -20c-24.667 -14 -37 -33.667 -37 -59v-69h43c28 0 49.333 -5 64 -15c14.667 -11.333 25 -29 31 -53c-15.333 10 -41 15 -77 15h-61v-359c0 -43.333 8.66699 -81.333 26 -114h-94c-17.333 20.667 -26 58.667 -26 114v359h-26
c-29.333 0 -51.666 17.667 -66.999 53h93z" />
    <glyph glyph-name="ffi" unicode="ffi" horiz-adv-x="884" 
d="M726 112l-0.000976562 360.998h-222v-360c0 -43.333 8.33301 -81 25 -113h-92c-17.333 20.667 -26 58.334 -26 113.001v360h-212v-360c0 -42 8.66699 -79.667 26 -113h-94c-17.333 20.667 -26 58.334 -26 113.001v360h-27c-28 0 -50 17.667 -66 53h93v66
c0 43.333 23 77 69 101c38 19.333 84.667 29 140 29c60.667 0 110 -13.333 148 -40c40 28 92.667 41.333 158 40c58.667 0 108.334 -13.333 149.001 -40l-32 -64c-9.33301 15.333 -24.833 28.5 -46.5 39.5s-42.5 16.5 -62.5 16.5c-35.333 0 -64.333 -6 -87 -18
c-24.667 -13.333 -37 -32.666 -37 -57.999v-72h316v-411c0 -48.667 8.33301 -87 25 -115h-93c-17.333 19.333 -26 56.666 -26 111.999zM198.999 525.998l212.002 -0.00195312v66c0 12.667 2.66699 26 8 40c-12.667 12.667 -27.834 22.834 -45.501 30.501
s-34.834 11.5 -51.501 11.5c-35.333 0 -64 -6 -86 -18c-24.667 -13.333 -37 -32.666 -37 -57.999v-72z" />
    <glyph glyph-name="ffl" unicode="ffl" horiz-adv-x="894" 
d="M831 589l-0.000976562 -475.999c0 -44.667 8 -82.334 24 -113.001h-93c-17.333 19.333 -26 57 -26 113v484c0 24 -9.66699 42.833 -29 56.5s-46 20.5 -80 20.5c-35.333 0 -64.333 -6.66699 -87 -20c-25.333 -14.667 -38 -35.667 -38 -63v-65h43
c27.333 0 48.333 -5.33301 63 -16s24.667 -27.667 30 -51c-14.667 10 -40 15 -76 15h-60v-361c0 -48.667 8.66699 -86.334 26 -113.001h-93c-16.667 20 -25 57.667 -25 113v361h-214v-361c0 -44 8.66699 -81.667 26 -113h-93c-16.667 20 -25 57.667 -25 113v361h-26
c-28 0 -50 17.333 -66 52h92v66c0 43.333 23 77 69 101c38 19.333 84.667 29 140 29c58 0 107.333 -13.333 148 -40c38.667 26.667 91.334 40 158.001 40c30 0 82.667 -6 158 -18l28 -3c17.333 -19.333 26 -56.666 26 -111.999zM195.999 526.001l214.002 -0.000976562v66
c0 16.667 2.66699 30 8 40c-12.667 12.667 -27.834 22.834 -45.501 30.501s-34.834 11.5 -51.501 11.5c-35.333 0 -64.333 -6.66699 -87 -20c-25.333 -14.667 -38 -35.667 -38 -63v-65z" />
    <glyph glyph-name="uniFC32" unicode="&#xfed3;&#xfe8a;" horiz-adv-x="1147" arabic-form="isolated" 
d="M908 554c-14.667 0 -27.167 5.16699 -37.5 15.5s-15.5 22.833 -15.5 37.5c0 14 5.16699 26.167 15.5 36.5s22.833 15.5 37.5 15.5c14 0 26.167 -5.16699 36.5 -15.5s15.5 -22.5 15.5 -36.5c0 -14.667 -5.16699 -27.167 -15.5 -37.5s-22.5 -15.5 -36.5 -15.5zM905 445
l193.996 0.00195312c-8 -14 -13.333 -28.167 -16 -42.5s-4 -35.833 -4 -64.5v-154c0 -57.333 -14.667 -101.666 -44 -132.999c-32 -34 -79.667 -51 -143 -51h-225c-9.33301 -90.667 -49.666 -160 -120.999 -208c-54 -36 -116.333 -54 -187 -54
c-51.333 0 -99.666 10.333 -144.999 31c-49.333 22.667 -88.333 55 -117 97c-32 47.333 -48.333 103.666 -49 168.999c0 38 6.33301 73.333 19 106c14.667 33.333 33.334 59.666 56.001 78.999l56 -30c-30.667 -15.333 -53.334 -39 -68.001 -71
c-10 -22.667 -15 -48.334 -15 -77.001v-9c2.66699 -59.333 29.334 -109 80.001 -149c48.667 -39.333 109 -59 181 -59c64 0 117 18.667 159 56c34.667 32 55 71.667 61 119h-88c-53.333 0 -88.666 7.66699 -105.999 23v86c14 -8 28.167 -13.333 42.5 -16s35.833 -4 64.5 -4
h234c-30 34 -45 78.333 -45 133c0 72.667 24.667 129.667 74 171c41.333 34.667 92 52 152 52zM989.996 171.002v167c0 22.667 1.66699 43 5 61h-73c-54.667 -0.666992 -95.334 -18.667 -122.001 -54c-22 -28.667 -33 -66.667 -33 -114c0 -44 13.333 -79 40 -105
c24.667 -24.667 57.334 -37 98.001 -37c26 0 46.667 7 62 21c15.333 14.667 23 35 23 61zM288.996 -364.998c14 0 26.167 -5.16699 36.5 -15.5s15.5 -22.833 15.5 -37.5c0 -14 -5.16699 -26.167 -15.5 -36.5s-22.5 -15.5 -36.5 -15.5c-14.667 0 -27.167 5.16699 -37.5 15.5
s-15.5 22.5 -15.5 36.5c0 14.667 5.16699 27.167 15.5 37.5s22.833 15.5 37.5 15.5zM429.996 -364.998c14 0 26.167 -5.16699 36.5 -15.5s15.5 -22.833 15.5 -37.5c0 -14 -5.16699 -26.167 -15.5 -36.5s-22.5 -15.5 -36.5 -15.5c-14.667 0 -27.167 5.16699 -37.5 15.5
s-15.5 22.5 -15.5 36.5c0 14.667 5.16699 27.167 15.5 37.5s22.833 15.5 37.5 15.5z" />
    <glyph glyph-name="uniFC59" unicode="&#xfef3;&#xfef0;" horiz-adv-x="1067" arabic-form="isolated" 
d="M933 445l85.9961 0.000976562c-8 -14 -13.333 -28.167 -16 -42.5s-4 -35.833 -4 -64.5v-154c0 -57.333 -14.667 -101.666 -44 -132.999c-32 -34 -79.667 -51 -143 -51h-145c-9.33301 -91.333 -49.666 -160.666 -120.999 -207.999c-54 -36 -116.333 -54 -187 -54
c-51.333 0 -99.666 10.333 -144.999 31c-49.333 22.667 -88.333 55 -117 97c-32 47.333 -48.333 103.666 -49 168.999c0 38 6.33301 73.333 19 106c14.667 33.333 33.334 59.666 56.001 78.999l56 -30c-30.667 -15.333 -53.334 -39 -68.001 -71
c-10 -22.667 -15 -48.334 -15 -77.001v-9c2.66699 -59.333 29.334 -109 80.001 -149c48.667 -39.333 109 -59 181 -59c64 0 117 18.667 159 56c34.667 32 55 71.667 61 119h-88c-53.333 0 -88.666 7.66699 -105.999 23v86c14 -8 28.167 -13.333 42.5 -16s35.833 -4 64.5 -4
h330c28 0 50 7.33301 66 22c16 14 24 34 24 60v168c0 52.667 7.66699 88 23 106zM791.996 -118.999c14 0 26.167 -5.16699 36.5 -15.5s15.5 -22.5 15.5 -36.5c0 -14.667 -5.16699 -27.167 -15.5 -37.5s-22.5 -15.5 -36.5 -15.5c-14.667 0 -27.167 5.16699 -37.5 15.5
s-15.5 22.833 -15.5 37.5c0 14 5.16699 26.167 15.5 36.5s22.833 15.5 37.5 15.5zM932.996 -118.999c14 0 26.167 -5.16699 36.5 -15.5s15.5 -22.5 15.5 -36.5c0 -14.667 -5.16699 -27.167 -15.5 -37.5s-22.5 -15.5 -36.5 -15.5c-14.667 0 -27.167 5.16699 -37.5 15.5
s-15.5 22.833 -15.5 37.5c0 14 5.16699 26.167 15.5 36.5s22.833 15.5 37.5 15.5z" />
    <glyph glyph-name="uniFC5A" unicode="&#xfef3;&#xfef2;" horiz-adv-x="1067" arabic-form="isolated" 
d="M933 445l85.9961 0.000976562c-8 -14 -13.333 -28.167 -16 -42.5s-4 -35.833 -4 -64.5v-154c0 -57.333 -14.667 -101.666 -44 -132.999c-32 -34 -79.667 -51 -143 -51h-145c-9.33301 -91.333 -49.666 -160.666 -120.999 -207.999c-54 -36 -116.333 -54 -187 -54
c-51.333 0 -99.666 10.333 -144.999 31c-49.333 22.667 -88.333 55 -117 97c-32 47.333 -48.333 103.666 -49 168.999c0 38 6.33301 73.333 19 106c14.667 33.333 33.334 59.666 56.001 78.999l56 -30c-30.667 -15.333 -53.334 -39 -68.001 -71
c-10 -22.667 -15 -48.334 -15 -77.001v-9c2.66699 -59.333 29.334 -109 80.001 -149c48.667 -39.333 109 -59 181 -59c64 0 117 18.667 159 56c34.667 32 55 71.667 61 119h-88c-53.333 0 -88.666 7.66699 -105.999 23v86c14 -8 28.167 -13.333 42.5 -16s35.833 -4 64.5 -4
h330c28 0 50 7.33301 66 22c16 14 24 34 24 60v168c0 52.667 7.66699 88 23 106zM791.996 -118.999c14 0 26.167 -5.16699 36.5 -15.5s15.5 -22.5 15.5 -36.5c0 -14.667 -5.16699 -27.167 -15.5 -37.5s-22.5 -15.5 -36.5 -15.5c-14.667 0 -27.167 5.16699 -37.5 15.5
s-15.5 22.833 -15.5 37.5c0 14 5.16699 26.167 15.5 36.5s22.833 15.5 37.5 15.5zM932.996 -118.999c14 0 26.167 -5.16699 36.5 -15.5s15.5 -22.5 15.5 -36.5c0 -14.667 -5.16699 -27.167 -15.5 -37.5s-22.5 -15.5 -36.5 -15.5c-14.667 0 -27.167 5.16699 -37.5 15.5
s-15.5 22.833 -15.5 37.5c0 14 5.16699 26.167 15.5 36.5s22.833 15.5 37.5 15.5zM288.996 -364.999c14 0 26.167 -5.16699 36.5 -15.5s15.5 -22.833 15.5 -37.5c0 -14 -5.16699 -26.167 -15.5 -36.5s-22.5 -15.5 -36.5 -15.5c-14.667 0 -27.167 5.16699 -37.5 15.5
s-15.5 22.5 -15.5 36.5c0 14.667 5.16699 27.167 15.5 37.5s22.833 15.5 37.5 15.5zM429.996 -364.999c14 0 26.167 -5.16699 36.5 -15.5s15.5 -22.833 15.5 -37.5c0 -14 -5.16699 -26.167 -15.5 -36.5s-22.5 -15.5 -36.5 -15.5c-14.667 0 -27.167 5.16699 -37.5 15.5
s-15.5 22.5 -15.5 36.5c0 14.667 5.16699 27.167 15.5 37.5s22.833 15.5 37.5 15.5z" />
    <glyph glyph-name="uniFC63" unicode="&#x651;&#x670;" arabic-form="isolated" 
d="M154 928l40 -0.00195312c-6.66699 -9.33301 -10 -26.666 -10 -51.999v-67c0 -23.333 -3.33301 -40 -10 -50h-40c6.66699 10.667 10 26.334 10 47.001v71c0 25.333 3.33301 42.333 10 51zM277 693.998h39.999c-6 -9.33301 -9 -25 -9 -47v-23
c0 -23.333 -8.66699 -43 -26 -59c-16 -14.667 -36.333 -22 -61 -22c-27.333 0 -50 9.33301 -68 28c-16 -18.667 -38 -28 -66 -28s-50.333 9.33301 -67 28c-13.333 15.333 -20 33 -20 53v21c0 22 3.33301 38.333 10 49h39c-6 -9.33301 -9 -25 -9 -47v-21
c0 -12 4.66699 -22.167 14 -30.5s20.333 -12.5 33 -12.5s23.667 4.16699 33 12.5s14 18.5 14 30.5v19c0 22.667 3 39 9 49h40c-6.66699 -10 -10 -25.667 -10 -47v-21c0 -12 4.83301 -22.167 14.5 -30.5s20.834 -12.5 33.501 -12.5s23.667 4.16699 33 12.5s14 18.5 14 30.5
v19c0 22 3 38.333 9 49z" />
    <glyph glyph-name="uniFC95" unicode="&#xfef4;&#xfef0;" horiz-adv-x="1090" arabic-form="final" 
d="M1110 89l-0.00195312 -88.998h-34c-63.333 0 -111 17 -143 51c-32.667 -34 -80.334 -51 -143.001 -51h-123c-10 -91.333 -50.333 -160.666 -121 -207.999c-54 -36 -116.333 -54 -187 -54c-51.333 0 -99.666 10.333 -144.999 31c-49.333 22.667 -88.333 55 -117 97
c-32 47.333 -48.333 103.666 -49 168.999c0 38 6.33301 73.333 19 106c14.667 33.333 33.334 59.666 56.001 78.999l56 -30c-30.667 -15.333 -53.334 -39 -68.001 -71c-10 -22.667 -15 -48.334 -15 -77.001v-9c2.66699 -59.333 29.334 -109 80.001 -149
c48.667 -39.333 109 -59 181 -59c64 0 116.667 18.667 158 56c35.333 32 56 71.667 62 119h-88c-53.333 0 -88.666 7.66699 -105.999 23v86c14 -8 28.167 -13.333 42.5 -16s35.5 -4 63.5 -4h309c28 0 50 7.33301 66 22c16 14 24 34 24 60v168c0 52 7.66699 87.333 23 106h86
c-8 -14 -13.333 -28.167 -16 -42.5s-4 -35.833 -4 -64.5v-154v-6v-7c0 -26 8 -46.167 24 -60.5s38.333 -21.5 67 -21.5h42zM791.998 -118.998c14 0 26.167 -5.16699 36.5 -15.5s15.5 -22.5 15.5 -36.5c0 -14.667 -5.16699 -27.167 -15.5 -37.5s-22.5 -15.5 -36.5 -15.5
c-14.667 0 -27.167 5.16699 -37.5 15.5s-15.5 22.833 -15.5 37.5c0 14 5.16699 26.167 15.5 36.5s22.833 15.5 37.5 15.5zM932.998 -118.998c14 0 26.167 -5.16699 36.5 -15.5s15.5 -22.5 15.5 -36.5c0 -14.667 -5.16699 -27.167 -15.5 -37.5s-22.5 -15.5 -36.5 -15.5
c-14.667 0 -27.167 5.16699 -37.5 15.5s-15.5 22.833 -15.5 37.5c0 14 5.16699 26.167 15.5 36.5s22.833 15.5 37.5 15.5z" />
    <glyph glyph-name="uniFC96" unicode="&#xfef4;&#xfef2;" horiz-adv-x="1090" arabic-form="final" 
d="M1110 89l-0.00195312 -88.998h-34c-63.333 0 -111 17 -143 51c-32.667 -34 -80.334 -51 -143.001 -51h-123c-10 -91.333 -50.333 -160.666 -121 -207.999c-54 -36 -116.333 -54 -187 -54c-51.333 0 -99.666 10.333 -144.999 31c-49.333 22.667 -88.333 55 -117 97
c-32 47.333 -48.333 103.666 -49 168.999c0 38 6.33301 73.333 19 106c14.667 33.333 33.334 59.666 56.001 78.999l56 -30c-30.667 -15.333 -53.334 -39 -68.001 -71c-10 -22.667 -15 -48.334 -15 -77.001v-9c2.66699 -59.333 29.334 -109 80.001 -149
c48.667 -39.333 109 -59 181 -59c64 0 116.667 18.667 158 56c35.333 32 56 71.667 62 119h-88c-53.333 0 -88.666 7.66699 -105.999 23v86c14 -8 28.167 -13.333 42.5 -16s35.5 -4 63.5 -4h309c28 0 50 7.33301 66 22c16 14 24 34 24 60v168c0 52 7.66699 87.333 23 106h86
c-8 -14 -13.333 -28.167 -16 -42.5s-4 -35.833 -4 -64.5v-154v-6v-7c0 -26 8 -46.167 24 -60.5s38.333 -21.5 67 -21.5h42zM791.998 -118.998c14 0 26.167 -5.16699 36.5 -15.5s15.5 -22.5 15.5 -36.5c0 -14.667 -5.16699 -27.167 -15.5 -37.5s-22.5 -15.5 -36.5 -15.5
c-14.667 0 -27.167 5.16699 -37.5 15.5s-15.5 22.833 -15.5 37.5c0 14 5.16699 26.167 15.5 36.5s22.833 15.5 37.5 15.5zM932.998 -118.998c14 0 26.167 -5.16699 36.5 -15.5s15.5 -22.5 15.5 -36.5c0 -14.667 -5.16699 -27.167 -15.5 -37.5s-22.5 -15.5 -36.5 -15.5
c-14.667 0 -27.167 5.16699 -37.5 15.5s-15.5 22.833 -15.5 37.5c0 14 5.16699 26.167 15.5 36.5s22.833 15.5 37.5 15.5zM288.998 -364.998c14 0 26.167 -5.16699 36.5 -15.5s15.5 -22.833 15.5 -37.5c0 -14 -5.16699 -26.167 -15.5 -36.5s-22.5 -15.5 -36.5 -15.5
c-14.667 0 -27.167 5.16699 -37.5 15.5s-15.5 22.5 -15.5 36.5c0 14.667 5.16699 27.167 15.5 37.5s22.833 15.5 37.5 15.5zM429.998 -364.998c14 0 26.167 -5.16699 36.5 -15.5s15.5 -22.833 15.5 -37.5c0 -14 -5.16699 -26.167 -15.5 -36.5s-22.5 -15.5 -36.5 -15.5
c-14.667 0 -27.167 5.16699 -37.5 15.5s-15.5 22.5 -15.5 36.5c0 14.667 5.16699 27.167 15.5 37.5s22.833 15.5 37.5 15.5z" />
    <glyph glyph-name="uniFDF2" unicode="&#x627;&#xfedf;&#xfee0;&#x650;&#xfeea;" horiz-adv-x="1206" arabic-form="isolated" 
d="M797 850v-54c0 -22.667 -3.33301 -39.334 -10 -50.001h-40c6.66699 11.333 10 27.333 10 48v57c0 24.667 3.33301 41.667 10 51h40c-6.66699 -9.33301 -10 -26.666 -10 -51.999zM1072 681l86 -0.000976562c-8 -14 -13.333 -28.167 -16 -42.5s-4 -35.833 -4 -64.5v-390
c0 -57.333 -14.667 -101.666 -44 -132.999c-32 -34 -79.667 -51 -143 -51h-59c-63.333 0 -110.666 17 -141.999 51c-32.667 -34 -80.334 -51 -143.001 -51h-60c-59.333 0 -104.333 15 -135 45c-32.667 -38.667 -82.334 -58 -149.001 -58c-65.333 0 -118 23 -158 69
c-38 40.667 -57 95.667 -57 165c0 70 23 127.333 69 172c40 38 87.667 57 143 57c44 0 80.667 -11.667 110 -35c2.66699 11.333 7 21.333 13 30h86c-8 -14 -13.333 -28.167 -16 -42.5s-4 -35.833 -4 -64.5v-166v-1c0 -26 7.83301 -46.167 23.5 -60.5
s37.834 -21.5 66.501 -21.5h76c28 0 50 7.33301 66 22c16 14 24 34 24 60v168c0 52 7.66699 87.333 23 106h86c-8 -14 -13.333 -28.167 -16 -42.5s-4 -35.833 -4 -64.5v-154v-6v-7c0 -26 8 -46.167 24 -60.5s38 -21.5 66 -21.5h75c28 0 50 7.33301 66 22c16 14 24 34 24 60
v404c0 52 7.66699 87.333 23 106zM361 157.999l-0.000976562 164.999c0 21.333 -9 40.333 -27 57c-17.333 15.333 -38.666 23 -63.999 23c-40.667 0 -73.667 -17.667 -99 -53c-22.667 -31.333 -34 -70.666 -34 -117.999c0 -51.333 13.333 -91 40 -119
c23.333 -24.667 54.333 -37 93 -37c28.667 0 51 7.33301 67 22c16 14 24 34 24 60zM700.999 528.998c-28 0 -50.334 9.33203 -67.001 27.999c-13.333 15.333 -20 33 -20 53v21c0 22.667 3.33301 39.334 10 50.001h39c-6 -9.33301 -9 -25 -9 -47v-22
c0 -11.333 4.66699 -21.333 14 -30s20.333 -13 33 -13s23.834 4.33301 33.501 13s14.5 18.667 14.5 30v19c0 23.333 2.66699 40 8 50h40c-6 -10.667 -9 -26.334 -9 -47.001v-22c0 -12 4.66699 -22.167 14 -30.5s20.333 -12.5 33 -12.5s23.667 4.33301 33 13s14 18.667 14 30
v19c0 22.667 3.33301 39.334 10 50.001h40c-6.66699 -9.33301 -10 -25 -10 -47v-24c0 -23.333 -8.66699 -43 -26 -59c-16 -14.667 -36.333 -22 -61 -22c-26 0 -48.333 9.66699 -67 29c-18 -19.333 -40.333 -29 -67 -29z" />
    <glyph glyph-name="uniFEF5" unicode="&#xfedf;&#xfe82;" horiz-adv-x="517" arabic-form="isolated" 
d="M41 677c-14 0 -30.334 -5.33301 -49.001 -16l-10 16c28.667 24.667 52.334 37.667 71.001 39h4c10 0 26 -4.33301 48 -13c28.667 -12 52 -17.667 70 -17c14.667 0.666992 31 6 49 16l10 -16c-28.667 -24 -52.667 -37 -72 -39h-5c-11.333 0 -28 4.66699 -50 14
c-28 10.667 -50 16 -66 16zM382.999 681l86.001 -0.00292969c-8 -14 -13.333 -28.167 -16 -42.5s-4 -35.833 -4 -64.5l1 -366c0 -67.333 -24.667 -121.666 -74 -162.999c-44.667 -37.333 -101.334 -56 -170.001 -56c-64.667 0 -117.667 17.667 -159 53l31 68
c25.333 -32.667 59.666 -51 102.999 -55c21.333 -0.666992 38.333 4.83301 51 16.5s19.667 28.167 21 49.5c0.666992 20.667 -5.66602 45.334 -18.999 74.001s-37.333 69.667 -72 123l-61 93c-22 34.667 -33 65.334 -33 92.001v10l71 45c0.666992 -19.333 3 -35.5 7 -48.5
s12.333 -31.5 25 -55.5l94 -172c26.667 -47.333 40 -95.666 40 -144.999c0 -19.333 -2.33301 -37.333 -7 -54c42 20 63 59.333 63 118v374c0 53.333 7.33301 88.666 22 105.999z" />
    <glyph glyph-name="uniFEF6" unicode="&#xfee0;&#xfe82;" horiz-adv-x="563" arabic-form="final" 
d="M162 647h-5.00098c-11.333 0 -28 4.66699 -50 14c-28 10.667 -50 16 -66 16c-14 0 -30.333 -5.33301 -49 -16l-10 16c28.667 24.667 52.334 37.667 71.001 39h4c10 0 26 -4.33301 48 -13c28.667 -12 52 -17.667 70 -17c14.667 0.666992 31 6 49 16l10 -16
c-28.667 -24 -52.667 -37 -72 -39zM581.999 89l-0.000976562 -89h-34c-70.667 0 -121.667 21 -153 63c-45.333 -49.333 -108.333 -74 -189 -74c-64.667 0 -117.667 17.667 -159 53l31 68c25.333 -32.667 59.666 -51 102.999 -55c21.333 -0.666992 38.333 4.83301 51 16.5
s19.667 28.167 21 49.5c0.666992 20.667 -5.66602 45.334 -18.999 74.001s-37.333 69.667 -72 123l-61 93c-22 35.333 -33 66 -33 92v10l71 45c0.666992 -19.333 3 -35.5 7 -48.5s12.333 -31.5 25 -55.5l94 -171c26.667 -48 40 -96.667 40 -146
c0 -19.333 -2.33301 -37.333 -7 -54c42 20 63 59.333 63 118v374c0 53.333 7.33301 88.666 22 105.999h86c-8 -14 -13.333 -28.167 -16 -42.5s-4 -35.833 -4 -64.5l1 -332v-71c0 -26 7.83301 -46.167 23.5 -60.5s37.834 -21.5 66.501 -21.5h42z" />
    <glyph glyph-name="uniFEF7" unicode="&#xfedf;&#xfe84;" horiz-adv-x="517" arabic-form="isolated" 
d="M128 806c21.333 0 39.998 -5 55.998 -15l-8 -25c-13.333 12.667 -27.666 19 -42.999 19c-14 0 -25.667 -4.66699 -35 -14s-14 -21 -14 -35c0 -12.667 4.66699 -23 14 -31s21 -12 35 -12h16c24.667 0 42 -3 52 -9v-41c-10 6.66699 -27.333 10 -52 10h-90
c-21.333 0 -37.333 3.33301 -48 10v40c10 -6.66699 25.333 -10 46 -10c-8.66699 11.333 -13 24 -13 38c0 22 7.83301 40 23.5 54s35.834 21 60.501 21zM382.998 681l86.001 -0.00292969c-8 -14 -13.333 -28.167 -16 -42.5s-4 -35.833 -4 -64.5l1 -366
c0 -67.333 -24.667 -121.666 -74 -162.999c-44.667 -37.333 -101.334 -56 -170.001 -56c-64.667 0 -117.667 17.667 -159 53l31 68c25.333 -32.667 59.666 -51 102.999 -55c21.333 -0.666992 38.333 4.83301 51 16.5s19.667 28.167 21 49.5
c0.666992 20.667 -5.66602 45.334 -18.999 74.001s-37.333 69.667 -72 123l-61 93c-22 34.667 -33 65.334 -33 92.001v10l71 45c0.666992 -19.333 3 -35.5 7 -48.5s12.333 -31.5 25 -55.5l94 -172c26.667 -47.333 40 -95.666 40 -144.999c0 -19.333 -2.33301 -37.333 -7 -54
c42 20 63 59.333 63 118v374c0 53.333 7.33301 88.666 22 105.999z" />
    <glyph glyph-name="uniFEF8" unicode="&#xfee0;&#xfe84;" horiz-adv-x="563" arabic-form="final" 
d="M149 653h-90.002c-21.333 0 -37.333 3.33301 -48 10v40c10 -6.66699 25.333 -10 46 -10c-8.66699 11.333 -13 24 -13 38c0 22 7.83301 40 23.5 54s35.834 21 60.501 21c21.333 0 40 -5 56 -15l-8 -25c-13.333 12.667 -27.666 19 -42.999 19
c-14 0 -25.667 -4.66699 -35 -14s-14 -21 -14 -35c0 -12.667 4.66699 -23 14 -31s21 -12 35 -12h16c24.667 0 42 -3 52 -9v-41c-10 6.66699 -27.333 10 -52 10zM581.998 89l-0.000976562 -89h-34c-71.333 0 -122.666 21 -153.999 63c-45.333 -49.333 -108.333 -74 -189 -74
c-64.667 0 -117.667 17.667 -159 53l31 68c25.333 -32.667 59.666 -51 102.999 -55c21.333 -0.666992 38.333 4.83301 51 16.5s19.667 28.167 21 49.5c0.666992 20.667 -5.66602 45.334 -18.999 74.001s-37.333 69.667 -72 123l-61 93c-22 35.333 -33 66 -33 92v10l71 45
c0.666992 -19.333 3 -35.5 7 -48.5s12.333 -31.5 25 -55.5l94 -171c26.667 -48 40 -96.667 40 -146c0 -19.333 -2.33301 -37.333 -7 -54c42 20 63 59.333 63 118v374c0 53.333 7.33301 88.666 22 105.999h86c-8 -14 -13.333 -28.167 -16 -42.5s-4 -35.833 -4 -64.5l1 -332
v-71c0 -26 8 -46.167 24 -60.5s38.333 -21.5 67 -21.5h42z" />
    <glyph glyph-name="uniFEF9" unicode="&#xfedf;&#xfe88;" horiz-adv-x="517" arabic-form="isolated" 
d="M384 681l84.999 -0.00292969c-8 -14 -13.333 -28.167 -16 -42.5s-4 -35.833 -4 -64.5l1 -366c0 -67.333 -24.667 -121.666 -74 -162.999c-44 -37.333 -100.667 -56 -170 -56c-64.667 0 -117.334 17.667 -158.001 53l31 68c24.667 -32.667 58.667 -51 102 -55
c21.333 -0.666992 38.5 4.83301 51.5 16.5s20.167 28.167 21.5 49.5c0.666992 20.667 -5.66602 45.334 -18.999 74.001s-37.666 69.667 -72.999 123l-61 93c-21.333 34.667 -32 65.334 -32 92.001v10l71 45c0 -20 2 -36.333 6 -49s12.667 -31 26 -55
c49.333 -90 80.333 -147.333 93 -172c27.333 -47.333 41 -95.666 41 -144.999c0 -19.333 -2.33301 -37.333 -7 -54c42 20 63 59.333 63 118v374c0 53.333 7.33301 88.666 22 105.999zM209.999 -111.003c22 0 40.332 -5.33301 54.999 -16l-7 -25
c-13.333 13.333 -27.666 20 -42.999 20c-14.667 0 -26.5 -4.66699 -35.5 -14s-13.5 -21 -13.5 -35c0 -12.667 4.5 -23 13.5 -31s20.833 -12 35.5 -12h16c24.667 0 42 -3.33301 52 -10v-40c-10 6.66699 -27.667 10 -53 10h-90c-20.667 0 -36.334 3.33301 -47.001 10v40
c10 -6.66699 25 -10 45 -10c-8 11.333 -12 24 -12 38c0 22 7.83301 40 23.5 54s35.834 21 60.501 21z" />
    <glyph glyph-name="uniFEFA" unicode="&#xfee0;&#xfe88;" horiz-adv-x="563" arabic-form="final" 
d="M583 89l-0.00292969 -89.001h-35c-70.667 0 -121.667 21 -153 63c-45.333 -49.333 -108.666 -74 -189.999 -74c-64.667 0 -117.334 17.667 -158.001 53l31 68c24.667 -32.667 58.667 -51 102 -55c21.333 -0.666992 38.5 4.83301 51.5 16.5s20.167 28.167 21.5 49.5
c0.666992 20.667 -5.66602 45.334 -18.999 74.001s-37.666 69.667 -72.999 123l-61 93c-21.333 34.667 -32 65.334 -32 92.001v10l71 45c0 -19.333 2 -35.5 6 -48.5s12.667 -31.5 26 -55.5c49.333 -89.333 80.333 -146.333 93 -171c27.333 -48 41 -96.667 41 -146
c0 -19.333 -2.33301 -37.333 -7 -54c42 20 63 59.333 63 118v374c0 53.333 7.33301 88.666 22 105.999h86c-8 -14 -13.333 -28.167 -16 -42.5s-4 -35.833 -4 -64.5l1 -332v-71c0 -26 7.83301 -46.167 23.5 -60.5s37.834 -21.5 66.501 -21.5h43zM214.997 -224.001h15.999
c24.667 0 42 -3.33301 52 -10v-40c-10 6.66699 -27.667 10 -53 10h-90c-20.667 0 -36.334 3.33301 -47.001 10v40c10 -6.66699 25 -10 45 -10c-8 11.333 -12 24 -12 38c0 22 7.83301 40 23.5 54s35.834 21 60.501 21c22 0 40.333 -5.33301 55 -16l-7 -25
c-13.333 13.333 -27.666 20 -42.999 20c-14.667 0 -26.5 -4.66699 -35.5 -14s-13.5 -21 -13.5 -35c0 -12.667 4.5 -23 13.5 -31s20.833 -12 35.5 -12z" />
    <glyph glyph-name="uniFEFB" unicode="&#xfedf;&#xfe8e;" horiz-adv-x="517" arabic-form="isolated" 
d="M384 681l84.999 -0.00292969c-8 -14 -13.333 -28.167 -16 -42.5s-4 -35.833 -4 -64.5l1 -366c0 -67.333 -24.667 -121.666 -74 -162.999c-44 -37.333 -100.667 -56 -170 -56c-64.667 0 -117.334 17.667 -158.001 53l31 68c24.667 -32.667 58.667 -51 102 -55
c21.333 -0.666992 38.5 4.83301 51.5 16.5s20.167 28.167 21.5 49.5c0.666992 20.667 -5.66602 45.334 -18.999 74.001s-37.666 69.667 -72.999 123l-61 93c-21.333 34.667 -32 65.334 -32 92.001v10l71 45c0 -20 2 -36.333 6 -49s12.667 -31 26 -55
c49.333 -90 80.333 -147.333 93 -172c27.333 -47.333 41 -95.666 41 -144.999c0 -19.333 -2.33301 -37.333 -7 -54c42 20 63 59.333 63 118v374c0 53.333 7.33301 88.666 22 105.999z" />
    <glyph glyph-name="uniFEFC" unicode="&#xfee0;&#xfe8e;" horiz-adv-x="563" arabic-form="final" 
d="M583 89l-0.00292969 -89.001h-35c-70.667 0 -121.667 21 -153 63c-45.333 -49.333 -108.666 -74 -189.999 -74c-64.667 0 -117.334 17.667 -158.001 53l31 68c24.667 -32.667 58.667 -51 102 -55c21.333 -0.666992 38.5 4.83301 51.5 16.5s20.167 28.167 21.5 49.5
c0.666992 20.667 -5.66602 45.334 -18.999 74.001s-37.666 69.667 -72.999 123l-61 93c-21.333 34.667 -32 65.334 -32 92.001v10l71 45c0 -19.333 2 -35.5 6 -48.5s12.667 -31.5 26 -55.5c49.333 -89.333 80.333 -146.333 93 -171c27.333 -48 41 -96.667 41 -146
c0 -19.333 -2.33301 -37.333 -7 -54c42 20 63 59.333 63 118v374c0 53.333 7.33301 88.666 22 105.999h86c-8 -14 -13.333 -28.167 -16 -42.5s-4 -35.833 -4 -64.5l1 -332v-71c0 -26 7.83301 -46.167 23.5 -60.5s37.834 -21.5 66.501 -21.5h43z" />
    <glyph glyph-name="uniFB51" unicode="&#x671;" horiz-adv-x="274" arabic-form="final" 
d="M202 897c13.333 -0.666992 23.998 -5.66699 31.998 -15s12 -21 12 -35v-6c-2 -16 -9.5 -29.833 -22.5 -41.5s-27.833 -17.5 -44.5 -17.5h-5c-10.667 0 -27.334 4.66699 -50.001 14c-28 10.667 -50 16 -66 16c-14 0 -30.333 -5 -49 -15l-10 15
c28.667 24.667 52.334 37.667 71.001 39h3c10 0 23.333 -3.33301 40 -10c2.66699 -0.666992 5.33398 -1 8.00098 -1c4 0 7.33301 1.33301 10 4l15 20c16.667 22.667 35.334 33.667 56.001 33zM194.998 864c-4 0 -10.334 -5.33301 -19.001 -16
c-9.33301 -12.667 -15.333 -20.334 -18 -23.001l4 -1c2.66699 -0.666992 5.33398 -1 8.00098 -1c10 0 18.333 2.83301 25 8.5s10 12.834 10 21.501c0 7.33301 -3.33301 11 -10 11zM93.9971 681h86c-8 -14 -13.333 -27.833 -16 -41.5s-4 -35.5 -4 -65.5v-403
c0 -26 8 -46.167 24 -60.5s38.333 -21.5 67 -21.5h42v-89h-34c-72 0 -123.667 21.667 -155 65c-22 30.667 -33 70.334 -33 119.001v391c0 53.333 7.66699 88.666 23 105.999z" />
    <glyph glyph-name="uniFB53" unicode="&#x67b;" horiz-adv-x="1088" arabic-form="final" 
d="M1110 89v-88h-34c-64 0 -111.667 16.667 -143 50c-31.333 -34 -79 -51 -143 -51h-454c-87.333 -0 -158 25.333 -212 76c-49.333 46.667 -74.333 107.334 -75 182.001c-1.33301 77.333 23.667 139.666 75 186.999l58 -31c-32.667 -16 -56 -39.667 -70 -71
c-10 -21.333 -15 -44.333 -15 -69c0 -7.33301 0.333008 -14.333 1 -21c8 -55.333 37.667 -98 89 -128c40 -23.333 85.667 -35.333 137 -36h473c28.667 0 51 7 67 21s24 34 24 60v169c0 52.667 7.66699 88 23 106h86c-8 -14 -13.333 -28.167 -16 -42.5s-4 -35.833 -4 -64.5
v-155v-2v-10c0 -26 8 -46.167 24 -60.5s38.333 -21.5 67 -21.5h42zM539 -119c14.667 0 27.167 -5.16699 37.5 -15.5s15.5 -22.5 15.5 -36.5c0 -14.667 -5.16699 -27.167 -15.5 -37.5s-22.833 -15.5 -37.5 -15.5c-14 0 -26.167 5.16699 -36.5 15.5s-15.5 22.833 -15.5 37.5
c0 14 5.16699 26.167 15.5 36.5s22.5 15.5 36.5 15.5zM538 -260c14.667 0 27.167 -5.16699 37.5 -15.5s15.5 -22.5 15.5 -36.5c0 -14.667 -5.16699 -27.167 -15.5 -37.5s-22.833 -15.5 -37.5 -15.5c-14 0 -26.167 5.16699 -36.5 15.5s-15.5 22.833 -15.5 37.5
c0 14 5.16699 26.167 15.5 36.5s22.5 15.5 36.5 15.5z" />
    <glyph glyph-name="uniFB54" unicode="&#x67b;" horiz-adv-x="298" arabic-form="initial" 
d="M165 445l86 -0.000976562c-8 -14 -13.333 -28.167 -16 -42.5s-4 -35.833 -4 -64.5v-154c0 -57.333 -14.667 -101.666 -44 -132.999c-32 -34 -79.667 -51 -143 -51h-44v89h51c28.667 0 51 7.33301 67 22c16 14 24 34 24 60v168c0 52 7.66699 87.333 23 106zM162 -224.001
c-14 0 -26.167 5.16699 -36.5 15.5s-15.5 22.833 -15.5 37.5c0 14 5.16699 26.167 15.5 36.5s22.5 15.5 36.5 15.5c14.667 0 27.167 -5.16699 37.5 -15.5s15.5 -22.5 15.5 -36.5c0 -14.667 -5.16699 -27.167 -15.5 -37.5s-22.833 -15.5 -37.5 -15.5zM161 -365.001
c-14 0 -26.167 5.16699 -36.5 15.5s-15.5 22.833 -15.5 37.5c0 14 5.16699 26.167 15.5 36.5s22.5 15.5 36.5 15.5c14.667 0 27.167 -5.16699 37.5 -15.5s15.5 -22.5 15.5 -36.5c0 -14.667 -5.16699 -27.167 -15.5 -37.5s-22.833 -15.5 -37.5 -15.5z" />
    <glyph glyph-name="uniFB55" unicode="&#x67b;" horiz-adv-x="344" arabic-form="medial" 
d="M363 89l-0.000976562 -89h-34c-63.333 0 -110.666 17 -141.999 51c-32.667 -34 -80.334 -51 -143.001 -51h-44v89h51c28.667 0 51 7.33301 67 22c16 14 24 34 24 60v168c0 52 7.66699 87.333 23 106h86c-8 -14 -13.333 -28.167 -16 -42.5s-4 -35.833 -4 -64.5v-154v-6v-7
c0 -26 7.83301 -46.167 23.5 -60.5s37.834 -21.5 66.501 -21.5h42zM185.999 -119c14.667 0 27.167 -5.16699 37.5 -15.5s15.5 -22.5 15.5 -36.5c0 -14.667 -5.16699 -27.167 -15.5 -37.5s-22.833 -15.5 -37.5 -15.5c-14 0 -26.167 5.16699 -36.5 15.5
s-15.5 22.833 -15.5 37.5c0 14 5.16699 26.167 15.5 36.5s22.5 15.5 36.5 15.5zM185.999 -260c14.667 0 27.167 -5.16699 37.5 -15.5s15.5 -22.5 15.5 -36.5c0 -14.667 -5.16699 -27.167 -15.5 -37.5s-22.833 -15.5 -37.5 -15.5c-14 0 -26.167 5.16699 -36.5 15.5
s-15.5 22.833 -15.5 37.5c0 14 5.16699 26.167 15.5 36.5s22.5 15.5 36.5 15.5z" />
    <glyph glyph-name="uniFB57" unicode="&#x67e;" horiz-adv-x="1088" arabic-form="final" 
d="M1109 89v-88h-34c-64 0 -111.667 16.667 -143 50c-31.333 -34 -79 -51 -143 -51h-454c-87.333 -0 -158 25.333 -212 76c-49.333 46.667 -74.333 107.334 -75 182.001c-1.33301 77.333 23.667 139.666 75 186.999l58 -31c-32.667 -16 -56 -39.667 -70 -71
c-10 -21.333 -15 -44.333 -15 -69c0 -7.33301 0.333008 -14.333 1 -21c8 -55.333 37.667 -98 89 -128c40 -23.333 85.667 -35.333 137 -36h473c28.667 0 51 7 67 21s24 34 24 60v169c0 52.667 7.66699 88 23 106h86c-8 -14 -13.333 -28.167 -16 -42.5s-4 -35.833 -4 -64.5
v-155v-2v-10c0 -26 8 -46.167 24 -60.5s38.333 -21.5 67 -21.5h42zM522 -171c0 -14.667 -5.16699 -27.167 -15.5 -37.5s-22.833 -15.5 -37.5 -15.5c-14 0 -26.167 5.16699 -36.5 15.5s-15.5 22.833 -15.5 37.5c0 14 5.16699 26.167 15.5 36.5s22.5 15.5 36.5 15.5
c14.667 0 27.167 -5.16699 37.5 -15.5s15.5 -22.5 15.5 -36.5zM610 -119c14.667 0 27.167 -5.16699 37.5 -15.5s15.5 -22.5 15.5 -36.5c0 -14.667 -5.16699 -27.167 -15.5 -37.5s-22.833 -15.5 -37.5 -15.5c-14 0 -26.167 5.16699 -36.5 15.5s-15.5 22.833 -15.5 37.5
c0 14 5.16699 26.167 15.5 36.5s22.5 15.5 36.5 15.5zM539 -235c14.667 0 27.167 -5.16699 37.5 -15.5s15.5 -22.833 15.5 -37.5c0 -14 -5.16699 -26.167 -15.5 -36.5s-22.833 -15.5 -37.5 -15.5c-14 0 -26.167 5.16699 -36.5 15.5s-15.5 22.5 -15.5 36.5
c0 14.667 5.16699 27.167 15.5 37.5s22.5 15.5 36.5 15.5z" />
    <glyph glyph-name="uniFB58" unicode="&#x67e;" horiz-adv-x="298" arabic-form="initial" 
d="M164 445l86 -0.000976562c-8 -14 -13.333 -28.167 -16 -42.5s-4 -35.833 -4 -64.5v-154c0 -57.333 -14.667 -101.666 -44 -132.999c-32 -34 -79.333 -51 -142 -51h-44v89h51c28 0 50 7.33301 66 22c16 14 24 34 24 60v168c0 52.667 7.66699 88 23 106zM22 -119.001
c14.667 0 27.167 -5.16699 37.5 -15.5s15.5 -22.5 15.5 -36.5c0 -14.667 -5.16699 -27.167 -15.5 -37.5s-22.833 -15.5 -37.5 -15.5c-14 0 -26.167 5.16699 -36.5 15.5s-15.5 22.833 -15.5 37.5c0 14 5.16699 26.167 15.5 36.5s22.5 15.5 36.5 15.5zM163 -119.001
c14.667 0 27.167 -5.16699 37.5 -15.5s15.5 -22.5 15.5 -36.5c0 -14.667 -5.16699 -27.167 -15.5 -37.5s-22.833 -15.5 -37.5 -15.5c-14 0 -26.167 5.16699 -36.5 15.5s-15.5 22.833 -15.5 37.5c0 14 5.16699 26.167 15.5 36.5s22.5 15.5 36.5 15.5zM93 -235.001
c14.667 0 27.167 -5.16699 37.5 -15.5s15.5 -22.833 15.5 -37.5c0 -14 -5.16699 -26.167 -15.5 -36.5s-22.833 -15.5 -37.5 -15.5c-14 0 -26.167 5.16699 -36.5 15.5s-15.5 22.5 -15.5 36.5c0 14.667 5.16699 27.167 15.5 37.5s22.5 15.5 36.5 15.5z" />
    <glyph glyph-name="uniFB59" unicode="&#x67e;" horiz-adv-x="345" arabic-form="medial" 
d="M363 89l-0.000976562 -89h-34c-63.333 0 -110.666 17 -141.999 51c-32.667 -34 -80.334 -51 -143.001 -51h-44v89h51c28.667 0 51 7.33301 67 22c16 14 24 34 24 60v168c0 52.667 7.66699 88 23 106h86c-8 -14 -13.333 -28.167 -16 -42.5s-4 -35.833 -4 -64.5v-154v-6v-7
c0 -26 7.83301 -46.167 23.5 -60.5s37.834 -21.5 66.501 -21.5h42zM96.999 -171c0 -14.667 -5.16699 -27.167 -15.5 -37.5s-22.833 -15.5 -37.5 -15.5c-14 0 -26.167 5.16699 -36.5 15.5s-15.5 22.833 -15.5 37.5c0 14 5.16699 26.167 15.5 36.5s22.5 15.5 36.5 15.5
c14.667 0 27.167 -5.16699 37.5 -15.5s15.5 -22.5 15.5 -36.5zM184.999 -119c14.667 0 27.167 -5.16699 37.5 -15.5s15.5 -22.5 15.5 -36.5c0 -14.667 -5.16699 -27.167 -15.5 -37.5s-22.833 -15.5 -37.5 -15.5c-14 0 -26.167 5.16699 -36.5 15.5s-15.5 22.833 -15.5 37.5
c0 14 5.16699 26.167 15.5 36.5s22.5 15.5 36.5 15.5zM114.999 -235c14.667 0 27.167 -5.16699 37.5 -15.5s15.5 -22.833 15.5 -37.5c0 -14 -5.16699 -26.167 -15.5 -36.5s-22.833 -15.5 -37.5 -15.5c-14 0 -26.167 5.16699 -36.5 15.5s-15.5 22.5 -15.5 36.5
c0 14.667 5.16699 27.167 15.5 37.5s22.5 15.5 36.5 15.5z" />
    <glyph glyph-name="uniFB5A" unicode="&#x680;" horiz-adv-x="1040" arabic-form="isolated" 
d="M911 445h86c-8 -14 -13.333 -28.167 -16 -42.5s-4 -35.833 -4 -64.5v-154c0 -57.333 -14.667 -101.666 -44 -132.999c-32 -34 -79.667 -51 -143 -51h-454c-87.333 0 -158 25.333 -212 76c-49.333 46.667 -74.333 107.334 -75 182.001
c-1.33301 77.333 23.667 139.666 75 186.999l58 -30c-32.667 -16.667 -56 -40.667 -70 -72c-10 -20.667 -15 -43.334 -15 -68.001c0 -7.33301 0.333008 -14.333 1 -21c8 -55.333 37.667 -98.333 89 -129c40 -23.333 85.667 -35.333 137 -36h473c28.667 0 51 7.33301 67 22
c16 14 24 34 24 60v168c0 52.667 7.66699 88 23 106zM470 -224c-14 0 -26.167 5.16699 -36.5 15.5s-15.5 22.833 -15.5 37.5c0 14 5.16699 26.167 15.5 36.5s22.5 15.5 36.5 15.5c14.667 0 27.167 -5.16699 37.5 -15.5s15.5 -22.5 15.5 -36.5
c0 -14.667 -5.16699 -27.167 -15.5 -37.5s-22.833 -15.5 -37.5 -15.5zM611 -224c-14 0 -26.167 5.16699 -36.5 15.5s-15.5 22.833 -15.5 37.5c0 14 5.16699 26.167 15.5 36.5s22.5 15.5 36.5 15.5c14.667 0 27.167 -5.16699 37.5 -15.5s15.5 -22.5 15.5 -36.5
c0 -14.667 -5.16699 -27.167 -15.5 -37.5s-22.833 -15.5 -37.5 -15.5zM470 -365c-14 0 -26.167 5.16699 -36.5 15.5s-15.5 22.833 -15.5 37.5c0 14 5.16699 26.167 15.5 36.5s22.5 15.5 36.5 15.5c14.667 0 27.167 -5.16699 37.5 -15.5s15.5 -22.5 15.5 -36.5
c0 -14.667 -5.16699 -27.167 -15.5 -37.5s-22.833 -15.5 -37.5 -15.5zM611 -365c-14 0 -26.167 5.16699 -36.5 15.5s-15.5 22.833 -15.5 37.5c0 14 5.16699 26.167 15.5 36.5s22.5 15.5 36.5 15.5c14.667 0 27.167 -5.16699 37.5 -15.5s15.5 -22.5 15.5 -36.5
c0 -14.667 -5.16699 -27.167 -15.5 -37.5s-22.833 -15.5 -37.5 -15.5z" />
    <glyph glyph-name="uniFB5B" unicode="&#x680;" horiz-adv-x="1088" arabic-form="final" 
d="M1110 89v-88h-34c-64 0 -111.667 16.667 -143 50c-31.333 -34 -79 -51 -143 -51h-454c-87.333 -0 -158 25.333 -212 76c-49.333 46.667 -74.333 107.334 -75 182.001c-1.33301 77.333 23.667 139.666 75 186.999l58 -31c-32.667 -16 -56 -39.667 -70 -71
c-10 -21.333 -15 -44.333 -15 -69c0 -7.33301 0.333008 -14.333 1 -21c8 -55.333 37.667 -98 89 -128c40 -23.333 85.667 -35.333 137 -36h473c28.667 0 51 7 67 21s24 34 24 60v169c0 52.667 7.66699 88 23 106h86c-8 -14 -13.333 -28.167 -16 -42.5s-4 -35.833 -4 -64.5
v-155v-2v-10c0 -26 8 -46.167 24 -60.5s38.333 -21.5 67 -21.5h42zM470 -119c14.667 0 27.167 -5.16699 37.5 -15.5s15.5 -22.5 15.5 -36.5c0 -14.667 -5.16699 -27.167 -15.5 -37.5s-22.833 -15.5 -37.5 -15.5c-14 0 -26.167 5.16699 -36.5 15.5s-15.5 22.833 -15.5 37.5
c0 14 5.16699 26.167 15.5 36.5s22.5 15.5 36.5 15.5zM611 -119c14.667 0 27.167 -5.16699 37.5 -15.5s15.5 -22.5 15.5 -36.5c0 -14.667 -5.16699 -27.167 -15.5 -37.5s-22.833 -15.5 -37.5 -15.5c-14 0 -26.167 5.16699 -36.5 15.5s-15.5 22.833 -15.5 37.5
c0 14 5.16699 26.167 15.5 36.5s22.5 15.5 36.5 15.5zM470 -260c14.667 0 27.167 -5.16699 37.5 -15.5s15.5 -22.5 15.5 -36.5c0 -14.667 -5.16699 -27.167 -15.5 -37.5s-22.833 -15.5 -37.5 -15.5c-14 0 -26.167 5.16699 -36.5 15.5s-15.5 22.833 -15.5 37.5
c0 14 5.16699 26.167 15.5 36.5s22.5 15.5 36.5 15.5zM611 -260c14.667 0 27.167 -5.16699 37.5 -15.5s15.5 -22.5 15.5 -36.5c0 -14.667 -5.16699 -27.167 -15.5 -37.5s-22.833 -15.5 -37.5 -15.5c-14 0 -26.167 5.16699 -36.5 15.5s-15.5 22.833 -15.5 37.5
c0 14 5.16699 26.167 15.5 36.5s22.5 15.5 36.5 15.5z" />
    <glyph glyph-name="uniFB5C" unicode="&#x680;" horiz-adv-x="298" arabic-form="initial" 
d="M164 445l86 -0.000976562c-8 -14 -13.333 -28.167 -16 -42.5s-4 -35.833 -4 -64.5v-154c0 -57.333 -14.667 -101.666 -44 -132.999c-32 -34 -79.333 -51 -142 -51h-44v89h51c28 0 50 7.33301 66 22c16 14 24 34 24 60v168c0 52.667 7.66699 88 23 106zM22 -119.001
c14.667 0 27.167 -5.16699 37.5 -15.5s15.5 -22.5 15.5 -36.5c0 -14.667 -5.16699 -27.167 -15.5 -37.5s-22.833 -15.5 -37.5 -15.5c-14 0 -26.167 5.16699 -36.5 15.5s-15.5 22.833 -15.5 37.5c0 14 5.16699 26.167 15.5 36.5s22.5 15.5 36.5 15.5zM163 -119.001
c14.667 0 27.167 -5.16699 37.5 -15.5s15.5 -22.5 15.5 -36.5c0 -14.667 -5.16699 -27.167 -15.5 -37.5s-22.833 -15.5 -37.5 -15.5c-14 0 -26.167 5.16699 -36.5 15.5s-15.5 22.833 -15.5 37.5c0 14 5.16699 26.167 15.5 36.5s22.5 15.5 36.5 15.5zM22 -365.001
c-14 0 -26.167 5.16699 -36.5 15.5s-15.5 22.833 -15.5 37.5c0 14 5.16699 26.167 15.5 36.5s22.5 15.5 36.5 15.5c14.667 0 27.167 -5.16699 37.5 -15.5s15.5 -22.5 15.5 -36.5c0 -14.667 -5.16699 -27.167 -15.5 -37.5s-22.833 -15.5 -37.5 -15.5zM163 -365.001
c-14 0 -26.167 5.16699 -36.5 15.5s-15.5 22.833 -15.5 37.5c0 14 5.16699 26.167 15.5 36.5s22.5 15.5 36.5 15.5c14.667 0 27.167 -5.16699 37.5 -15.5s15.5 -22.5 15.5 -36.5c0 -14.667 -5.16699 -27.167 -15.5 -37.5s-22.833 -15.5 -37.5 -15.5z" />
    <glyph glyph-name="uniFB5D" unicode="&#x680;" horiz-adv-x="344" arabic-form="medial" 
d="M363 89l-0.000976562 -89h-34c-63.333 0 -110.666 17 -141.999 51c-32.667 -34 -80.334 -51 -143.001 -51h-44v89h51c28.667 0 51 7.33301 67 22c16 14 24 34 24 60v168c0 52.667 7.66699 88 23 106h86c-8 -14 -13.333 -28.167 -16 -42.5s-4 -35.833 -4 -64.5v-154v-6v-7
c0 -26 7.83301 -46.167 23.5 -60.5s37.834 -21.5 66.501 -21.5h42zM43.999 -119c14.667 0 27.167 -5.16699 37.5 -15.5s15.5 -22.5 15.5 -36.5c0 -14.667 -5.16699 -27.167 -15.5 -37.5s-22.833 -15.5 -37.5 -15.5c-14 0 -26.167 5.16699 -36.5 15.5
s-15.5 22.833 -15.5 37.5c0 14 5.16699 26.167 15.5 36.5s22.5 15.5 36.5 15.5zM184.999 -119c14.667 0 27.167 -5.16699 37.5 -15.5s15.5 -22.5 15.5 -36.5c0 -14.667 -5.16699 -27.167 -15.5 -37.5s-22.833 -15.5 -37.5 -15.5c-14 0 -26.167 5.16699 -36.5 15.5
s-15.5 22.833 -15.5 37.5c0 14 5.16699 26.167 15.5 36.5s22.5 15.5 36.5 15.5zM43.999 -260c14.667 0 27.167 -5.16699 37.5 -15.5s15.5 -22.5 15.5 -36.5c0 -14.667 -5.16699 -27.167 -15.5 -37.5s-22.833 -15.5 -37.5 -15.5c-14 0 -26.167 5.16699 -36.5 15.5
s-15.5 22.833 -15.5 37.5c0 14 5.16699 26.167 15.5 36.5s22.5 15.5 36.5 15.5zM184.999 -260c14.667 0 27.167 -5.16699 37.5 -15.5s15.5 -22.5 15.5 -36.5c0 -14.667 -5.16699 -27.167 -15.5 -37.5s-22.833 -15.5 -37.5 -15.5c-14 0 -26.167 5.16699 -36.5 15.5
s-15.5 22.833 -15.5 37.5c0 14 5.16699 26.167 15.5 36.5s22.5 15.5 36.5 15.5z" />
    <glyph glyph-name="uniFB5F" unicode="&#x67a;" horiz-adv-x="1088" arabic-form="final" 
d="M532 534c-14 0 -26.167 5.16699 -36.5 15.5s-15.5 22.833 -15.5 37.5c0 14 5.16699 26.167 15.5 36.5s22.5 15.5 36.5 15.5c14.667 0 27.167 -5.16699 37.5 -15.5s15.5 -22.5 15.5 -36.5c0 -14.667 -5.16699 -27.167 -15.5 -37.5s-22.833 -15.5 -37.5 -15.5zM532 393
c-14 0 -26.167 5.16699 -36.5 15.5s-15.5 22.833 -15.5 37.5c0 14 5.16699 26.167 15.5 36.5s22.5 15.5 36.5 15.5c14.667 0 27.167 -5.16699 37.5 -15.5s15.5 -22.5 15.5 -36.5c0 -14.667 -5.16699 -27.167 -15.5 -37.5s-22.833 -15.5 -37.5 -15.5zM1110 89v-88h-34
c-64 0 -111.667 16.667 -143 50c-31.333 -34 -79 -51 -143 -51h-454c-87.333 -0 -158 25.333 -212 76c-49.333 46.667 -74.333 107.334 -75 182.001c-1.33301 77.333 23.667 139.666 75 186.999l58 -31c-32.667 -16 -56 -39.667 -70 -71c-10 -21.333 -15 -44.333 -15 -69
c0 -7.33301 0.333008 -14.333 1 -21c8 -55.333 37.667 -98 89 -128c40 -23.333 85.667 -35.333 137 -36h473c28.667 0 51 7 67 21s24 34 24 60v169c0 52.667 7.66699 88 23 106h86c-8 -14 -13.333 -28.167 -16 -42.5s-4 -35.833 -4 -64.5v-155v-2v-10
c0 -26 8 -46.167 24 -60.5s38.333 -21.5 67 -21.5h42z" />
    <glyph glyph-name="uniFB60" unicode="&#x67a;" horiz-adv-x="298" arabic-form="initial" 
d="M203 694c-14.667 0 -27.167 5.16699 -37.5 15.5s-15.5 22.5 -15.5 36.5c0 14.667 5.16699 27.167 15.5 37.5s22.833 15.5 37.5 15.5c14 0 26.167 -5.16699 36.5 -15.5s15.5 -22.833 15.5 -37.5c0 -14 -5.16699 -26.167 -15.5 -36.5s-22.5 -15.5 -36.5 -15.5zM203 554
c-14.667 0 -27.167 5.16699 -37.5 15.5s-15.5 22.833 -15.5 37.5c0 14 5.16699 26.167 15.5 36.5s22.833 15.5 37.5 15.5c14 0 26.167 -5.16699 36.5 -15.5s15.5 -22.5 15.5 -36.5c0 -14.667 -5.16699 -27.167 -15.5 -37.5s-22.5 -15.5 -36.5 -15.5zM165 445
l86 -0.000976562c-8 -14 -13.333 -28.167 -16 -42.5s-4 -35.833 -4 -64.5v-154c0 -57.333 -14.667 -101.666 -44 -132.999c-32 -34 -79.667 -51 -143 -51h-44v89h51c28.667 0 51 7.33301 67 22c16 14 24 34 24 60v168c0 52 7.66699 87.333 23 106z" />
    <glyph glyph-name="uniFB61" unicode="&#x67a;" horiz-adv-x="344" arabic-form="medial" 
d="M203 695c-14 0 -26.167 5.16699 -36.5 15.5s-15.5 22.833 -15.5 37.5c0 14 5.16699 26.167 15.5 36.5s22.5 15.5 36.5 15.5c14.667 0 27.167 -5.16699 37.5 -15.5s15.5 -22.5 15.5 -36.5c0 -14.667 -5.16699 -27.167 -15.5 -37.5s-22.833 -15.5 -37.5 -15.5zM203 554
c-14.667 0 -27.167 5.16699 -37.5 15.5s-15.5 22.833 -15.5 37.5c0 14 5.16699 26.167 15.5 36.5s22.833 15.5 37.5 15.5c14 0 26.167 -5.16699 36.5 -15.5s15.5 -22.5 15.5 -36.5c0 -14.667 -5.16699 -27.167 -15.5 -37.5s-22.5 -15.5 -36.5 -15.5zM363 89
l-0.000976562 -89h-34c-63.333 0 -110.666 17 -141.999 51c-32.667 -34 -80.334 -51 -143.001 -51h-44v89h51c28.667 0 51 7.33301 67 22c16 14 24 34 24 60v168c0 52 7.66699 87.333 23 106h86c-8 -14 -13.333 -28.167 -16 -42.5s-4 -35.833 -4 -64.5v-154v-6v-7
c0 -26 7.83301 -46.167 23.5 -60.5s37.834 -21.5 66.501 -21.5h42z" />
    <glyph glyph-name="uniFB62" unicode="&#x67f;" horiz-adv-x="1043" arabic-form="isolated" 
d="M461 534c-14 0 -26.167 5.16699 -36.5 15.5s-15.5 22.833 -15.5 37.5c0 14 5.16699 26.167 15.5 36.5s22.5 15.5 36.5 15.5c14.667 0 27.167 -5.16699 37.5 -15.5s15.5 -22.5 15.5 -36.5c0 -14.667 -5.16699 -27.167 -15.5 -37.5s-22.833 -15.5 -37.5 -15.5zM602 534
c-14 0 -26.167 5.16699 -36.5 15.5s-15.5 22.833 -15.5 37.5c0 14 5.16699 26.167 15.5 36.5s22.5 15.5 36.5 15.5c14.667 0 27.167 -5.16699 37.5 -15.5s15.5 -22.5 15.5 -36.5c0 -14.667 -5.16699 -27.167 -15.5 -37.5s-22.833 -15.5 -37.5 -15.5zM461 393
c-14 0 -26.167 5.16699 -36.5 15.5s-15.5 22.833 -15.5 37.5c0 14 5.16699 26.167 15.5 36.5s22.5 15.5 36.5 15.5c14.667 0 27.167 -5.16699 37.5 -15.5s15.5 -22.5 15.5 -36.5c0 -14.667 -5.16699 -27.167 -15.5 -37.5s-22.833 -15.5 -37.5 -15.5zM602 393
c-14 0 -26.167 5.16699 -36.5 15.5s-15.5 22.833 -15.5 37.5c0 14 5.16699 26.167 15.5 36.5s22.5 15.5 36.5 15.5c14.667 0 27.167 -5.16699 37.5 -15.5s15.5 -22.5 15.5 -36.5c0 -14.667 -5.16699 -27.167 -15.5 -37.5s-22.833 -15.5 -37.5 -15.5zM911 445h86
c-8 -14 -13.333 -28.167 -16 -42.5s-4 -35.833 -4 -64.5v-154c0 -57.333 -14.667 -101.666 -44 -132.999c-32 -34 -79.667 -51 -143 -51h-454c-87.333 0 -158 25.333 -212 76c-49.333 46.667 -74.333 107.334 -75 182.001c-1.33301 77.333 23.667 139.666 75 186.999l58 -30
c-32.667 -16.667 -56 -40.667 -70 -72c-10 -20.667 -15 -43.334 -15 -68.001c0 -7.33301 0.333008 -14.333 1 -21c8 -55.333 37.667 -98.333 89 -129c40 -23.333 85.667 -35.333 137 -36h473c28.667 0 51 7.33301 67 22c16 14 24 34 24 60v168c0 52.667 7.66699 88 23 106z
" />
    <glyph glyph-name="uniFB63" unicode="&#x67f;" horiz-adv-x="1088" arabic-form="final" 
d="M461 534c-14 0 -26.167 5.16699 -36.5 15.5s-15.5 22.833 -15.5 37.5c0 14 5.16699 26.167 15.5 36.5s22.5 15.5 36.5 15.5c14.667 0 27.167 -5.16699 37.5 -15.5s15.5 -22.5 15.5 -36.5c0 -14.667 -5.16699 -27.167 -15.5 -37.5s-22.833 -15.5 -37.5 -15.5zM602 534
c-14 0 -26.167 5.16699 -36.5 15.5s-15.5 22.833 -15.5 37.5c0 14 5.16699 26.167 15.5 36.5s22.5 15.5 36.5 15.5c14.667 0 27.167 -5.16699 37.5 -15.5s15.5 -22.5 15.5 -36.5c0 -14.667 -5.16699 -27.167 -15.5 -37.5s-22.833 -15.5 -37.5 -15.5zM461 393
c-14 0 -26.167 5.16699 -36.5 15.5s-15.5 22.833 -15.5 37.5c0 14 5.16699 26.167 15.5 36.5s22.5 15.5 36.5 15.5c14.667 0 27.167 -5.16699 37.5 -15.5s15.5 -22.5 15.5 -36.5c0 -14.667 -5.16699 -27.167 -15.5 -37.5s-22.833 -15.5 -37.5 -15.5zM602 393
c-14 0 -26.167 5.16699 -36.5 15.5s-15.5 22.833 -15.5 37.5c0 14 5.16699 26.167 15.5 36.5s22.5 15.5 36.5 15.5c14.667 0 27.167 -5.16699 37.5 -15.5s15.5 -22.5 15.5 -36.5c0 -14.667 -5.16699 -27.167 -15.5 -37.5s-22.833 -15.5 -37.5 -15.5zM1110 89v-88h-34
c-64 0 -111.667 16.667 -143 50c-31.333 -34 -79 -51 -143 -51h-454c-87.333 -0 -158 25.333 -212 76c-49.333 46.667 -74.333 107.334 -75 182.001c-1.33301 77.333 23.667 139.666 75 186.999l58 -31c-32.667 -16 -56 -39.667 -70 -71c-10 -21.333 -15 -44.333 -15 -69
c0 -7.33301 0.333008 -14.333 1 -21c8 -55.333 37.667 -98 89 -128c40 -23.333 85.667 -35.333 137 -36h473c28.667 0 51 7 67 21s24 34 24 60v169c0 52.667 7.66699 88 23 106h86c-8 -14 -13.333 -28.167 -16 -42.5s-4 -35.833 -4 -64.5v-155v-2v-10
c0 -26 8 -46.167 24 -60.5s38.333 -21.5 67 -21.5h42z" />
    <glyph glyph-name="uniFB64" unicode="&#x67f;" horiz-adv-x="298" arabic-form="initial" 
d="M62 694c-14.667 0 -27.167 5.16699 -37.5 15.5s-15.5 22.5 -15.5 36.5c0 14.667 5.16699 27.167 15.5 37.5s22.833 15.5 37.5 15.5c14 0 26.167 -5.16699 36.5 -15.5s15.5 -22.833 15.5 -37.5c0 -14 -5.16699 -26.167 -15.5 -36.5s-22.5 -15.5 -36.5 -15.5zM203 694
c-14.667 0 -27.167 5.16699 -37.5 15.5s-15.5 22.5 -15.5 36.5c0 14.667 5.16699 27.167 15.5 37.5s22.833 15.5 37.5 15.5c14 0 26.167 -5.16699 36.5 -15.5s15.5 -22.833 15.5 -37.5c0 -14 -5.16699 -26.167 -15.5 -36.5s-22.5 -15.5 -36.5 -15.5zM62 554
c-14.667 0 -27.167 5.16699 -37.5 15.5s-15.5 22.833 -15.5 37.5c0 14 5.16699 26.167 15.5 36.5s22.833 15.5 37.5 15.5c14 0 26.167 -5.16699 36.5 -15.5s15.5 -22.5 15.5 -36.5c0 -14.667 -5.16699 -27.167 -15.5 -37.5s-22.5 -15.5 -36.5 -15.5zM203 554
c-14.667 0 -27.167 5.16699 -37.5 15.5s-15.5 22.833 -15.5 37.5c0 14 5.16699 26.167 15.5 36.5s22.833 15.5 37.5 15.5c14 0 26.167 -5.16699 36.5 -15.5s15.5 -22.5 15.5 -36.5c0 -14.667 -5.16699 -27.167 -15.5 -37.5s-22.5 -15.5 -36.5 -15.5zM165 445
l86 -0.000976562c-8 -14 -13.333 -28.167 -16 -42.5s-4 -35.833 -4 -64.5v-154c0 -57.333 -14.667 -101.666 -44 -132.999c-32 -34 -79.667 -51 -143 -51h-44v89h51c28.667 0 51 7.33301 67 22c16 14 24 34 24 60v168c0 52 7.66699 87.333 23 106z" />
    <glyph glyph-name="uniFB65" unicode="&#x67f;" horiz-adv-x="344" arabic-form="medial" 
d="M62 695c-14.667 0 -27.167 5.16699 -37.5 15.5s-15.5 22.833 -15.5 37.5c0 14 5.16699 26.167 15.5 36.5s22.833 15.5 37.5 15.5c14 0 26.167 -5.16699 36.5 -15.5s15.5 -22.5 15.5 -36.5c0 -14.667 -5.16699 -27.167 -15.5 -37.5s-22.5 -15.5 -36.5 -15.5zM203 695
c-14.667 0 -27.167 5.16699 -37.5 15.5s-15.5 22.833 -15.5 37.5c0 14 5.16699 26.167 15.5 36.5s22.833 15.5 37.5 15.5c14 0 26.167 -5.16699 36.5 -15.5s15.5 -22.5 15.5 -36.5c0 -14.667 -5.16699 -27.167 -15.5 -37.5s-22.5 -15.5 -36.5 -15.5zM62 554
c-14.667 0 -27.167 5.16699 -37.5 15.5s-15.5 22.833 -15.5 37.5c0 14 5.16699 26.167 15.5 36.5s22.833 15.5 37.5 15.5c14 0 26.167 -5.16699 36.5 -15.5s15.5 -22.5 15.5 -36.5c0 -14.667 -5.16699 -27.167 -15.5 -37.5s-22.5 -15.5 -36.5 -15.5zM203 554
c-14.667 0 -27.167 5.16699 -37.5 15.5s-15.5 22.833 -15.5 37.5c0 14 5.16699 26.167 15.5 36.5s22.833 15.5 37.5 15.5c14 0 26.167 -5.16699 36.5 -15.5s15.5 -22.5 15.5 -36.5c0 -14.667 -5.16699 -27.167 -15.5 -37.5s-22.5 -15.5 -36.5 -15.5zM363 89
l-0.000976562 -89h-34c-63.333 0 -110.666 17 -141.999 51c-32.667 -34 -80.334 -51 -143.001 -51h-44v89h51c28.667 0 51 7.33301 67 22c16 14 24 34 24 60v168c0 52 7.66699 87.333 23 106h86c-8 -14 -13.333 -28.167 -16 -42.5s-4 -35.833 -4 -64.5v-154v-6v-7
c0 -26 7.83301 -46.167 23.5 -60.5s37.834 -21.5 66.501 -21.5h42z" />
    <glyph glyph-name="uniFB67" unicode="&#x679;" horiz-adv-x="1088" arabic-form="final" 
d="M593 373l-142.999 0.000976562c-24.667 0 -42.334 -3.33301 -53.001 -10v40c10 6.66699 26 10 48 10v132c0 24 3 41.333 9 52h40c-6 -10.667 -9 -28.334 -9 -53.001v-62c22 32 51.667 48 89 48c24.667 0 45.667 -8 63 -24c18 -15.333 27 -36 27 -62
c0 -21.333 -6.5 -38.5 -19.5 -51.5s-30.167 -19.5 -51.5 -19.5zM571.001 508.001c-20 0 -38.5 -9.16699 -55.5 -27.5s-27.5 -40.833 -31.5 -67.5h105c9.33301 0 17.333 3.16699 24 9.5s10 14.5 10 24.5c0 18 -4.83301 32.667 -14.5 44s-22.167 17 -37.5 17zM1109 89.001v-88
h-34c-64 0 -111.667 16.667 -143 50c-31.333 -34 -79 -51 -143 -51h-454c-87.333 0 -158 25.333 -212 76c-49.333 46.667 -74.333 107.334 -75 182.001c-1.33301 77.333 23.667 139.666 75 186.999l58 -31c-32.667 -16 -56 -39.667 -70 -71c-10 -21.333 -15 -44.333 -15 -69
c0 -7.33301 0.333008 -14.333 1 -21c8 -55.333 37.667 -98 89 -128c40 -23.333 85.667 -35.333 137 -36h473c28.667 0 51 7 67 21s24 34 24 60v169c0 52.667 7.66699 88 23 106h86c-8 -14 -13.333 -28.167 -16 -42.5s-4 -35.833 -4 -64.5v-155v-2v-10
c0 -26 8 -46.167 24 -60.5s38.333 -21.5 67 -21.5h42z" />
    <glyph glyph-name="uniFB68" unicode="&#x679;" horiz-adv-x="298" arabic-form="initial" 
d="M61 781h38.998c-6 -11.333 -9 -29 -9 -53v-62c22.667 32 52.334 48 89.001 48c24.667 0 45.667 -8 63 -24c18 -15.333 27 -36 27 -62c0 -21.333 -6.5 -38.5 -19.5 -51.5s-30.167 -19.5 -51.5 -19.5h-143c-24.667 0 -42 -3.33301 -52 -10v40
c8.66699 6 24.334 9.33301 47.001 10v132c0 24 3.33301 41.333 10 52zM177.998 692c-20 0 -38.5 -9.16699 -55.5 -27.5s-27.5 -40.833 -31.5 -67.5h105c10 0 18.167 3.16699 24.5 9.5s9.5 14.5 9.5 24.5c0 18 -4.83301 32.667 -14.5 44s-22.167 17 -37.5 17zM164.998 445
l86 -0.000976562c-8 -14 -13.333 -28.167 -16 -42.5s-4 -35.833 -4 -64.5v-154c0 -57.333 -14.667 -101.666 -44 -132.999c-32 -34 -79.667 -51 -143 -51h-44v89h51c28.667 0 51 7.33301 67 22c16 14 24 34 24 60v168c0 52 7.66699 87.333 23 106z" />
    <glyph glyph-name="uniFB69" unicode="&#x679;" horiz-adv-x="345" arabic-form="medial" 
d="M204 557h-143.002c-24.667 0 -42 -3.33301 -52 -10v40c8.66699 6 24.334 9.33301 47.001 10v132c0 24 3 41.333 9 52h41c-6.66699 -11.333 -10 -29 -10 -53v-62c22.667 32 52.334 48 89.001 48c24.667 0 45.667 -8 63 -24c18 -15.333 27 -36 27 -62
c0 -21.333 -6.5 -38.5 -19.5 -51.5s-30.167 -19.5 -51.5 -19.5zM181.998 692c-20 0 -38.332 -9.16699 -54.999 -27.5s-27.334 -40.833 -32.001 -67.5h105c10 0 18.167 3.16699 24.5 9.5s9.5 14.5 9.5 24.5c0 18 -4.83301 32.667 -14.5 44s-22.167 17 -37.5 17zM362.999 89
l-0.000976562 -89h-34c-63.333 0 -110.666 17 -141.999 51c-32.667 -34 -80.334 -51 -143.001 -51h-44v89h51c28.667 0 51 7.33301 67 22c16 14 24 34 24 60v168c0 52 7.66699 87.333 23 106h86c-8 -14 -13.333 -28.167 -16 -42.5s-4 -35.833 -4 -64.5v-154v-6v-7
c0 -26 7.83301 -46.167 23.5 -60.5s37.834 -21.5 66.501 -21.5h42z" />
    <glyph glyph-name="uniFB6B" unicode="&#x6a4;" horiz-adv-x="1084" arabic-form="final" 
d="M787 670c-14 0 -26.167 5.16699 -36.5 15.5s-15.5 22.833 -15.5 37.5c0 14 5.16699 26.167 15.5 36.5s22.5 15.5 36.5 15.5c14.667 0 27.167 -5.16699 37.5 -15.5s15.5 -22.5 15.5 -36.5c0 -14.667 -5.16699 -27.167 -15.5 -37.5s-22.833 -15.5 -37.5 -15.5zM717 554
c-14 0 -26.167 5.16699 -36.5 15.5s-15.5 22.833 -15.5 37.5c0 14 5.16699 26.167 15.5 36.5s22.5 15.5 36.5 15.5c14.667 0 27.167 -5.16699 37.5 -15.5s15.5 -22.5 15.5 -36.5c0 -14.667 -5.16699 -27.167 -15.5 -37.5s-22.833 -15.5 -37.5 -15.5zM806 607
c0 14 5.16699 26.167 15.5 36.5s22.5 15.5 36.5 15.5c14.667 0 27.167 -5.16699 37.5 -15.5s15.5 -22.5 15.5 -36.5c0 -14.667 -5.16699 -27.167 -15.5 -37.5s-22.833 -15.5 -37.5 -15.5c-14 0 -26.167 5.16699 -36.5 15.5s-15.5 22.833 -15.5 37.5zM1104 89
l0.00195312 -88.999h-177h-49c-38 0 -67.667 6.33301 -89 19c-20 -12.667 -49.333 -19 -88 -19h-50h-315c-87.333 0 -158 25.333 -212 76c-49.333 46.667 -74.333 107.667 -75 183c-1.33301 76.667 23.667 138.667 75 186l57 -30c-32 -16 -55 -40 -69 -72
c-10 -20.667 -15 -43.334 -15 -68.001c0 -7.33301 0.333008 -14.333 1 -21c8 -55.333 37.667 -98.333 89 -129c39.333 -23.333 84.666 -35.333 135.999 -36h328c-18.667 16 -33.834 37.167 -45.501 63.5s-17.5 52.5 -17.5 78.5c0 56 14 103 42 141
c37.333 52 90.333 78 159 78c66.667 0 119.334 -25.333 158.001 -76c28.667 -39.333 43 -87 43 -143c0 -26 -5.83301 -52.167 -17.5 -78.5s-26.834 -47.5 -45.501 -63.5h177zM880.002 163.001c14 24 21.001 52.332 21.001 84.999c0 39.333 -8.33301 72.333 -25 99
c-22.667 37.333 -51.667 56 -87 56c-36 0 -65.667 -19.333 -89 -58c-15.333 -26 -23 -58.333 -23 -97c0 -32.667 7 -61 21 -85c20.667 -35.333 51 -58 91 -68c41.333 10.667 71.666 33.334 90.999 68.001z" />
    <glyph glyph-name="uniFB6C" unicode="&#x6a4;" horiz-adv-x="590" arabic-form="initial" 
d="M350 670c-14.667 0 -27.167 5.16699 -37.5 15.5s-15.5 22.833 -15.5 37.5c0 14 5.16699 26.167 15.5 36.5s22.833 15.5 37.5 15.5c14 0 26.167 -5.16699 36.5 -15.5s15.5 -22.5 15.5 -36.5c0 -14.667 -5.16699 -27.167 -15.5 -37.5s-22.5 -15.5 -36.5 -15.5zM280 554
c-14.667 0 -27.167 5.16699 -37.5 15.5s-15.5 22.833 -15.5 37.5c0 14 5.16699 26.167 15.5 36.5s22.833 15.5 37.5 15.5c14 0 26.167 -5.16699 36.5 -15.5s15.5 -22.5 15.5 -36.5c0 -14.667 -5.16699 -27.167 -15.5 -37.5s-22.5 -15.5 -36.5 -15.5zM421 554
c-14.667 0 -27.167 5.16699 -37.5 15.5s-15.5 22.833 -15.5 37.5c0 14 5.16699 26.167 15.5 36.5s22.833 15.5 37.5 15.5c14 0 26.167 -5.16699 36.5 -15.5s15.5 -22.5 15.5 -36.5c0 -14.667 -5.16699 -27.167 -15.5 -37.5s-22.5 -15.5 -36.5 -15.5zM348 445
l194 -0.000976562c-8 -14 -13.333 -28.167 -16 -42.5s-4 -35.833 -4 -64.5v-154c0 -57.333 -14.667 -101.666 -44 -132.999c-32 -34 -79.667 -51 -143 -51h-335v89h167c-30 34 -45 78.333 -45 133c0 72.667 24.667 129.667 74 171c41.333 34.667 92 52 152 52zM438 398.999
h-73c-54.667 -0.666992 -95.334 -18.667 -122.001 -54c-22 -28.667 -33 -66.667 -33 -114c0 -44 13.333 -79 40 -105c24.667 -24.667 57.334 -37 98.001 -37c26 0 46.667 7 62 21c15.333 14.667 23 35 23 61v167c0 22.667 1.66699 43 5 61z" />
    <glyph glyph-name="uniFB6D" unicode="&#x6a4;" horiz-adv-x="610" arabic-form="medial" 
d="M314 670c-14.667 0 -27.167 5.16699 -37.5 15.5s-15.5 22.833 -15.5 37.5c0 14 5.16699 26.167 15.5 36.5s22.833 15.5 37.5 15.5c14 0 26.167 -5.16699 36.5 -15.5s15.5 -22.5 15.5 -36.5c0 -14.667 -5.16699 -27.167 -15.5 -37.5s-22.5 -15.5 -36.5 -15.5zM244 554
c-14.667 0 -27.167 5.16699 -37.5 15.5s-15.5 22.833 -15.5 37.5c0 14 5.16699 26.167 15.5 36.5s22.833 15.5 37.5 15.5c14 0 26.167 -5.16699 36.5 -15.5s15.5 -22.5 15.5 -36.5c0 -14.667 -5.16699 -27.167 -15.5 -37.5s-22.5 -15.5 -36.5 -15.5zM332 607
c0 14 5.16699 26.167 15.5 36.5s22.833 15.5 37.5 15.5c14 0 26.167 -5.16699 36.5 -15.5s15.5 -22.5 15.5 -36.5c0 -14.667 -5.16699 -27.167 -15.5 -37.5s-22.5 -15.5 -36.5 -15.5c-14.667 0 -27.167 5.16699 -37.5 15.5s-15.5 22.833 -15.5 37.5zM629 89l0.00390625 -89
h-176h-49c-38.667 -0 -68.334 6.33301 -89.001 19c-20.667 -12.667 -50.334 -19 -89.001 -19h-49h-177v89h177c-18.667 16 -33.834 37.167 -45.501 63.5s-17.5 52.5 -17.5 78.5c0 55.333 13.667 102.333 41 141c38.667 52 92 78 160 78
c67.333 0 119.666 -25.333 156.999 -76c28.667 -38 43 -85.667 43 -143c0 -26 -5.66699 -52.167 -17 -78.5s-26.333 -47.5 -45 -63.5h176zM406.004 163c14 24 21.001 52.332 21.001 84.999c0 39.333 -8.33301 72.333 -25 99c-22.667 37.333 -51.667 56 -87 56
c-36 0 -65.667 -19.333 -89 -58c-15.333 -26 -23 -58.333 -23 -97c0 -32.667 7 -61 21 -85c20.667 -35.333 51 -58 91 -68c41.333 10.667 71.666 33.334 90.999 68.001z" />
    <glyph glyph-name="uniFB6E" unicode="&#x6a6;" horiz-adv-x="1055" arabic-form="isolated" 
d="M746 695c-14 0 -26.167 5.16699 -36.5 15.5s-15.5 22.833 -15.5 37.5c0 14 5.16699 26.167 15.5 36.5s22.5 15.5 36.5 15.5c14.667 0 27.167 -5.16699 37.5 -15.5s15.5 -22.5 15.5 -36.5c0 -14.667 -5.16699 -27.167 -15.5 -37.5s-22.833 -15.5 -37.5 -15.5zM887 695
c-14 0 -26.167 5.16699 -36.5 15.5s-15.5 22.833 -15.5 37.5c0 14 5.16699 26.167 15.5 36.5s22.5 15.5 36.5 15.5c14.667 0 27.167 -5.16699 37.5 -15.5s15.5 -22.5 15.5 -36.5c0 -14.667 -5.16699 -27.167 -15.5 -37.5s-22.833 -15.5 -37.5 -15.5zM746 554
c-14 0 -26.167 5.16699 -36.5 15.5s-15.5 22.833 -15.5 37.5c0 14 5.16699 26.167 15.5 36.5s22.5 15.5 36.5 15.5c14.667 0 27.167 -5.16699 37.5 -15.5s15.5 -22.5 15.5 -36.5c0 -14.667 -5.16699 -27.167 -15.5 -37.5s-22.833 -15.5 -37.5 -15.5zM887 554
c-14 0 -26.167 5.16699 -36.5 15.5s-15.5 22.833 -15.5 37.5c0 14 5.16699 26.167 15.5 36.5s22.5 15.5 36.5 15.5c14.667 0 27.167 -5.16699 37.5 -15.5s15.5 -22.5 15.5 -36.5c0 -14.667 -5.16699 -27.167 -15.5 -37.5s-22.833 -15.5 -37.5 -15.5zM816 445h194.001
c-8 -14 -13.333 -27.833 -16 -41.5s-4 -35.5 -4 -65.5v-154c0 -57.333 -14.667 -101.666 -44 -132.999c-32 -34 -79.667 -51 -143 -51h-466c-87.333 0 -158 25.333 -212 76c-49.333 46.667 -74.333 107.334 -75 182.001c-1.33301 77.333 23.667 139.666 75 186.999l57 -31
c-32 -16 -55 -39.667 -69 -71c-10 -20.667 -15 -43.334 -15 -68.001c0 -7.33301 0.333008 -14.333 1 -21c8 -56 37.667 -99 89 -129c39.333 -23.333 84.666 -35.333 135.999 -36h491c26 0 47 7 63 21c15.333 14.667 23 35 23 61v167c0 22.667 1.66699 43 5 61h-73
c-54.667 -0.666992 -95.667 -18.667 -123 -54c-22 -28.667 -33 -66.667 -33 -114c0 -30 5 -53.333 15 -70l-83 -28c-13.333 22 -20 51.667 -20 89c0 72.667 24.667 129.667 74 171c41.333 34.667 92.333 52 153 52z" />
    <glyph glyph-name="uniFB6F" unicode="&#x6a6;" horiz-adv-x="1084" arabic-form="final" 
d="M718 695c-14 0 -26.167 5.16699 -36.5 15.5s-15.5 22.833 -15.5 37.5c0 14 5.16699 26.167 15.5 36.5s22.5 15.5 36.5 15.5c14.667 0 27.167 -5.16699 37.5 -15.5s15.5 -22.5 15.5 -36.5c0 -14.667 -5.16699 -27.167 -15.5 -37.5s-22.833 -15.5 -37.5 -15.5zM859 695
c-14 0 -26.167 5.16699 -36.5 15.5s-15.5 22.833 -15.5 37.5c0 14 5.16699 26.167 15.5 36.5s22.5 15.5 36.5 15.5c14.667 0 27.167 -5.16699 37.5 -15.5s15.5 -22.5 15.5 -36.5c0 -14.667 -5.16699 -27.167 -15.5 -37.5s-22.833 -15.5 -37.5 -15.5zM718 554
c-14 0 -26.167 5.16699 -36.5 15.5s-15.5 22.833 -15.5 37.5c0 14 5.16699 26.167 15.5 36.5s22.5 15.5 36.5 15.5c14.667 0 27.167 -5.16699 37.5 -15.5s15.5 -22.5 15.5 -36.5c0 -14.667 -5.16699 -27.167 -15.5 -37.5s-22.833 -15.5 -37.5 -15.5zM859 554
c-14 0 -26.167 5.16699 -36.5 15.5s-15.5 22.833 -15.5 37.5c0 14 5.16699 26.167 15.5 36.5s22.5 15.5 36.5 15.5c14.667 0 27.167 -5.16699 37.5 -15.5s15.5 -22.5 15.5 -36.5c0 -14.667 -5.16699 -27.167 -15.5 -37.5s-22.833 -15.5 -37.5 -15.5zM1105 89
l0.00195312 -88.999h-177h-49c-38 0 -67.667 6.33301 -89 19c-20 -12.667 -49.333 -19 -88 -19h-50h-315c-87.333 0 -158 25.333 -212 76c-49.333 46.667 -74.333 107.667 -75 183c-1.33301 76.667 23.667 138.667 75 186l57 -30c-32 -16 -55 -40 -69 -72
c-10 -20.667 -15 -43.334 -15 -68.001c0 -7.33301 0.333008 -14.333 1 -21c8 -55.333 37.667 -98.333 89 -129c39.333 -23.333 84.666 -35.333 135.999 -36h328c-18.667 16 -33.834 37.167 -45.501 63.5s-17.5 52.5 -17.5 78.5c0 56 14 103 42 141
c37.333 52 90.333 78 159 78c66.667 0 119.334 -25.333 158.001 -76c28.667 -39.333 43 -87 43 -143c0 -26 -5.83301 -52.167 -17.5 -78.5s-26.834 -47.5 -45.501 -63.5h177zM881.002 163.001c14 24 21.001 52.332 21.001 84.999c0 39.333 -8.33301 72.333 -25 99
c-22.667 37.333 -51.667 56 -87 56c-36 0 -65.667 -19.333 -89 -58c-15.333 -26 -23 -58.333 -23 -97c0 -32.667 7 -61 21 -85c20.667 -35.333 51 -58 91 -68c41.333 10.667 71.666 33.334 90.999 68.001z" />
    <glyph glyph-name="uniFB70" unicode="&#x6a6;" horiz-adv-x="590" arabic-form="initial" 
d="M280 695c-14.667 0 -27.167 5.16699 -37.5 15.5s-15.5 22.833 -15.5 37.5c0 14 5.16699 26.167 15.5 36.5s22.833 15.5 37.5 15.5c14 0 26.167 -5.16699 36.5 -15.5s15.5 -22.5 15.5 -36.5c0 -14.667 -5.16699 -27.167 -15.5 -37.5s-22.5 -15.5 -36.5 -15.5zM421 695
c-14.667 0 -27.167 5.16699 -37.5 15.5s-15.5 22.833 -15.5 37.5c0 14 5.16699 26.167 15.5 36.5s22.833 15.5 37.5 15.5c14 0 26.167 -5.16699 36.5 -15.5s15.5 -22.5 15.5 -36.5c0 -14.667 -5.16699 -27.167 -15.5 -37.5s-22.5 -15.5 -36.5 -15.5zM280 554
c-14.667 0 -27.167 5.16699 -37.5 15.5s-15.5 22.833 -15.5 37.5c0 14 5.16699 26.167 15.5 36.5s22.833 15.5 37.5 15.5c14 0 26.167 -5.16699 36.5 -15.5s15.5 -22.5 15.5 -36.5c0 -14.667 -5.16699 -27.167 -15.5 -37.5s-22.5 -15.5 -36.5 -15.5zM421 554
c-14.667 0 -27.167 5.16699 -37.5 15.5s-15.5 22.833 -15.5 37.5c0 14 5.16699 26.167 15.5 36.5s22.833 15.5 37.5 15.5c14 0 26.167 -5.16699 36.5 -15.5s15.5 -22.5 15.5 -36.5c0 -14.667 -5.16699 -27.167 -15.5 -37.5s-22.5 -15.5 -36.5 -15.5zM348 445
l194.001 -0.000976562c-8 -14 -13.333 -28.167 -16 -42.5s-4 -35.833 -4 -64.5v-154c0 -57.333 -14.667 -101.666 -44 -132.999c-32 -34 -79.667 -51 -143 -51h-335v89h347c26 0 47 7 63 21c15.333 14.667 23 35 23 61v167c0 22.667 1.66699 43 5 61h-73
c-54.667 -0.666992 -95.334 -18.667 -122.001 -54c-22 -28.667 -33 -66.667 -33 -114c0 -28.667 5 -52 15 -70l-83 -28c-13.333 22 -20 51.667 -20 89c0 72.667 24.667 129.667 74 171c41.333 34.667 92 52 152 52z" />
    <glyph glyph-name="uniFB71" unicode="&#x6a6;" horiz-adv-x="610" arabic-form="medial" 
d="M244 695c-14.667 0 -27.167 5.16699 -37.5 15.5s-15.5 22.833 -15.5 37.5c0 14 5.16699 26.167 15.5 36.5s22.833 15.5 37.5 15.5c14 0 26.167 -5.16699 36.5 -15.5s15.5 -22.5 15.5 -36.5c0 -14.667 -5.16699 -27.167 -15.5 -37.5s-22.5 -15.5 -36.5 -15.5zM385 695
c-14.667 0 -27.167 5.16699 -37.5 15.5s-15.5 22.833 -15.5 37.5c0 14 5.16699 26.167 15.5 36.5s22.833 15.5 37.5 15.5c14 0 26.167 -5.16699 36.5 -15.5s15.5 -22.5 15.5 -36.5c0 -14.667 -5.16699 -27.167 -15.5 -37.5s-22.5 -15.5 -36.5 -15.5zM244 554
c-14.667 0 -27.167 5.16699 -37.5 15.5s-15.5 22.833 -15.5 37.5c0 14 5.16699 26.167 15.5 36.5s22.833 15.5 37.5 15.5c14 0 26.167 -5.16699 36.5 -15.5s15.5 -22.5 15.5 -36.5c0 -14.667 -5.16699 -27.167 -15.5 -37.5s-22.5 -15.5 -36.5 -15.5zM385 554
c-14.667 0 -27.167 5.16699 -37.5 15.5s-15.5 22.833 -15.5 37.5c0 14 5.16699 26.167 15.5 36.5s22.833 15.5 37.5 15.5c14 0 26.167 -5.16699 36.5 -15.5s15.5 -22.5 15.5 -36.5c0 -14.667 -5.16699 -27.167 -15.5 -37.5s-22.5 -15.5 -36.5 -15.5zM629 89l0.00390625 -89
h-176h-49c-38.667 -0 -68.334 6.33301 -89.001 19c-20.667 -12.667 -50.334 -19 -89.001 -19h-49h-177v89h177c-18.667 16 -33.834 37.167 -45.501 63.5s-17.5 52.5 -17.5 78.5c0 55.333 13.667 102.333 41 141c38.667 52 92 78 160 78
c67.333 0 119.666 -25.333 156.999 -76c28.667 -38 43 -85.667 43 -143c0 -26 -5.66699 -52.167 -17 -78.5s-26.333 -47.5 -45 -63.5h176zM406.004 163c14 24 21.001 52.332 21.001 84.999c0 39.333 -8.33301 72.333 -25 99c-22.667 37.333 -51.667 56 -87 56
c-36 0 -65.667 -19.333 -89 -58c-15.333 -26 -23 -58.333 -23 -97c0 -32.667 7 -61 21 -85c20.667 -35.333 51 -58 91 -68c41.333 10.667 71.666 33.334 90.999 68.001z" />
    <glyph glyph-name="uniFB72" unicode="&#x684;" horiz-adv-x="742" arabic-form="isolated" 
d="M295 450c157.333 0 251.665 -81.0039 282.998 -243.004c12.667 -59.333 28.334 -99 47.001 -119c36.667 -0.666992 63.667 -8 81 -22v-86c-14.667 8 -29 13.333 -43 16s-35.667 4 -65 4h-276c-50.667 0 -93.334 -12.333 -128.001 -37c-38 -28 -57 -68 -57 -120
c0 -56 22.333 -103.667 67 -143c41.333 -36 92 -54 152 -54c78.667 0.666992 140.334 27 185.001 79l26 -59c-29.333 -21.333 -64 -38.666 -104 -51.999c-32.667 -9.33301 -69 -14 -109 -14c-94.667 0 -171 26.333 -229 79c-50 44.667 -75.333 99.334 -76 164.001
c-0.666992 88 34.333 154.333 105 199c49.333 31.333 105.666 47 168.999 47h209c-18 24.667 -33.667 66.667 -47 126c-25.333 125.333 -88.666 188 -189.999 188c-28 0 -55.667 -6.33301 -83 -19c-37.333 -17.333 -67 -42.666 -89 -75.999l-25 58
c27.333 26.667 58.333 47.334 93 62.001s69.334 22 104.001 22zM359.999 -74.0039c10.667 0 20 -4 28 -12s12 -17.333 12 -28c0 -11.333 -3.83301 -21 -11.5 -29s-17.167 -12 -28.5 -12s-21 4 -29 12s-12 17.667 -12 29s4 20.833 12 28.5s17.667 11.5 29 11.5z
M359.999 -193.004c11.333 0 20.833 -4 28.5 -12s11.5 -17.667 11.5 -29c0 -10.667 -4 -20 -12 -28s-17.333 -12 -28 -12c-11.333 0 -21 3.83301 -29 11.5s-12 17.167 -12 28.5s4 21 12 29s17.667 12 29 12z" />
    <glyph glyph-name="uniFB73" unicode="&#x684;" horiz-adv-x="669" arabic-form="final" 
d="M294 450c157.333 0 251.666 -81.002 282.999 -243.002c9.33301 -48 22.333 -81.333 39 -100c9.33301 -12 24.666 -18 45.999 -18h27v-89h-33c-20 0 -36.167 1.66699 -48.5 5s-25.833 9.66602 -40.5 18.999c-16 -10 -30.667 -16.5 -44 -19.5s-35.666 -4.5 -66.999 -4.5
h-135c-50.667 0 -93.334 -12.333 -128.001 -37c-38 -28 -57 -68 -57 -120c0 -56 22.333 -103.667 67 -143c42 -36 92.667 -54 152 -54c78.667 0.666992 140.334 27 185.001 79l26 -59c-30 -21.333 -63 -38 -99 -50c-34.667 -10.667 -72.667 -16 -114 -16
c-94.667 0 -171 26.333 -229 79c-50 44.667 -75.333 99.334 -76 164.001c-0.666992 88 34.333 154.333 105 199c49.333 31.333 105.666 47 168.999 47h209c-18 24.667 -33.667 66.667 -47 126c-25.333 125.333 -88.666 188 -189.999 188c-28.667 0 -56.667 -6.33301 -84 -19
c-36.667 -17.333 -66 -42.666 -88 -75.999l-25 58c27.333 26.667 58.333 47.334 93 62.001s69.334 22 104.001 22zM360 -74.002c10.667 0 20 -4 28 -12s12 -17.333 12 -28c0 -11.333 -3.83301 -21 -11.5 -29s-17.167 -12 -28.5 -12s-21 4 -29 12s-12 17.667 -12 29
s4 20.833 12 28.5s17.667 11.5 29 11.5zM360 -193.002c11.333 0 20.833 -4 28.5 -12s11.5 -17.667 11.5 -29c0 -10.667 -4 -20 -12 -28s-17.333 -12 -28 -12c-11.333 0 -21 3.83301 -29 11.5s-12 17.167 -12 28.5s4 21 12 29s17.667 12 29 12z" />
    <glyph glyph-name="uniFB74" unicode="&#x684;" horiz-adv-x="746" arabic-form="initial" 
d="M628 88c38.667 -2 65.333 -9.33398 80 -22.001v-86c-14 8 -28.167 13.333 -42.5 16s-35.833 4 -64.5 4h-600l-1 89h534c-17.333 24.667 -32.666 66.667 -45.999 126c-25.333 125.333 -88.666 188 -189.999 188c-30.667 0 -60.334 -7.33301 -89.001 -22
c-36.667 -18.667 -64.334 -43 -83.001 -73l-26 58c27.333 26.667 58.333 47.334 93 62.001s69.334 22 104.001 22c94 0 166 -29.333 216 -88c33.333 -39.333 55.666 -91 66.999 -155c12.667 -60 28.667 -99.667 48 -119zM320.999 -119.001c14 0 26.167 -5.16699 36.5 -15.5
s15.5 -22.5 15.5 -36.5c0 -14.667 -5.16699 -27.167 -15.5 -37.5s-22.5 -15.5 -36.5 -15.5c-14.667 0 -27.167 5.16699 -37.5 15.5s-15.5 22.833 -15.5 37.5c0 14 5.16699 26.167 15.5 36.5s22.833 15.5 37.5 15.5zM320.999 -260.001c14 0 26.167 -5.16699 36.5 -15.5
s15.5 -22.5 15.5 -36.5c0 -14.667 -5.16699 -27.167 -15.5 -37.5s-22.5 -15.5 -36.5 -15.5c-14.667 0 -27.167 5.16699 -37.5 15.5s-15.5 22.833 -15.5 37.5c0 14 5.16699 26.167 15.5 36.5s22.833 15.5 37.5 15.5z" />
    <glyph glyph-name="uniFB75" unicode="&#x684;" horiz-adv-x="674" arabic-form="medial" 
d="M0 89h533.997c-18.667 25.333 -34 67.333 -46 126c-25.333 125.333 -88.666 188 -189.999 188c-29.333 0 -57.666 -6.66699 -84.999 -20c-37.333 -17.333 -66.333 -42.333 -87 -75l-26 58c27.333 26.667 58.333 47.334 93 62.001s69.334 22 104.001 22
c94.667 0 166.667 -29.333 216 -88c33.333 -39.333 55.666 -91 66.999 -155c10 -48.667 23.333 -82 40 -100c9.33301 -12 24.333 -18 45 -18h28v-89h-33c-20.667 0 -37.167 1.66699 -49.5 5s-25.833 9.66602 -40.5 18.999c-16 -10 -30.667 -16.5 -44 -19.5
s-35.666 -4.5 -66.999 -4.5h-458zM319.997 -119c14.667 0 27.167 -5.16699 37.5 -15.5s15.5 -22.5 15.5 -36.5c0 -14.667 -5.16699 -27.167 -15.5 -37.5s-22.833 -15.5 -37.5 -15.5c-14 0 -26.167 5.16699 -36.5 15.5s-15.5 22.833 -15.5 37.5
c0 14 5.16699 26.167 15.5 36.5s22.5 15.5 36.5 15.5zM319.997 -364c-14 0 -26.167 5.16699 -36.5 15.5s-15.5 22.5 -15.5 36.5c0 14.667 5.16699 27.167 15.5 37.5s22.5 15.5 36.5 15.5c14.667 0 27.167 -5.16699 37.5 -15.5s15.5 -22.833 15.5 -37.5
c0 -14 -5.16699 -26.167 -15.5 -36.5s-22.833 -15.5 -37.5 -15.5z" />
    <glyph glyph-name="uniFB77" unicode="&#x683;" horiz-adv-x="669" arabic-form="final" 
d="M294 450c157.333 0 251.666 -81.002 282.999 -243.002c9.33301 -48 22.333 -81.333 39 -100c9.33301 -12 24.666 -18 45.999 -18h27v-89h-33c-20 0 -36.167 1.66699 -48.5 5s-25.833 9.66602 -40.5 18.999c-16 -10 -30.667 -16.5 -44 -19.5s-35.666 -4.5 -66.999 -4.5
h-135c-50.667 0 -93.334 -12.333 -128.001 -37c-38 -28 -57 -68 -57 -120c0 -56 22.333 -103.667 67 -143c42 -36 92.667 -54 152 -54c78.667 0.666992 140.334 27 185.001 79l26 -59c-30 -21.333 -63 -38 -99 -50c-34.667 -10.667 -72.667 -16 -114 -16
c-94.667 0 -171 26.333 -229 79c-50 44.667 -75.333 99.334 -76 164.001c-0.666992 88 34.333 154.333 105 199c49.333 31.333 105.666 47 168.999 47h209c-18 24.667 -33.667 66.667 -47 126c-25.333 125.333 -88.666 188 -189.999 188c-28.667 0 -56.667 -6.33301 -84 -19
c-36.667 -17.333 -66 -42.666 -88 -75.999l-25 58c27.333 26.667 58.333 47.334 93 62.001s69.334 22 104.001 22zM299 -224.002c-14 0 -26.167 5.16699 -36.5 15.5s-15.5 22.833 -15.5 37.5c0 14 5.16699 26.167 15.5 36.5s22.5 15.5 36.5 15.5
c14.667 0 27.167 -5.16699 37.5 -15.5s15.5 -22.5 15.5 -36.5c0 -14.667 -5.16699 -27.167 -15.5 -37.5s-22.833 -15.5 -37.5 -15.5zM440 -224.002c-14 0 -26.167 5.16699 -36.5 15.5s-15.5 22.833 -15.5 37.5c0 14 5.16699 26.167 15.5 36.5s22.5 15.5 36.5 15.5
c14.667 0 27.167 -5.16699 37.5 -15.5s15.5 -22.5 15.5 -36.5c0 -14.667 -5.16699 -27.167 -15.5 -37.5s-22.833 -15.5 -37.5 -15.5z" />
    <glyph glyph-name="uniFB78" unicode="&#x683;" horiz-adv-x="746" arabic-form="initial" 
d="M628 88c38.667 -2 65.333 -9.33398 80 -22.001v-86c-14 8 -28.167 13.333 -42.5 16s-35.833 4 -64.5 4h-600l-1 89h534c-17.333 24.667 -32.666 66.667 -45.999 126c-25.333 125.333 -88.666 188 -189.999 188c-30.667 0 -60.334 -7.33301 -89.001 -22
c-36.667 -18.667 -64.334 -43 -83.001 -73l-26 58c27.333 26.667 58.333 47.334 93 62.001s69.334 22 104.001 22c94 0 166 -29.333 216 -88c33.333 -39.333 55.666 -91 66.999 -155c12.667 -60 28.667 -99.667 48 -119zM253.999 -119.001c14 0 26.167 -5.16699 36.5 -15.5
s15.5 -22.5 15.5 -36.5c0 -14.667 -5.16699 -27.167 -15.5 -37.5s-22.5 -15.5 -36.5 -15.5c-14.667 0 -27.167 5.16699 -37.5 15.5s-15.5 22.833 -15.5 37.5c0 14 5.16699 26.167 15.5 36.5s22.833 15.5 37.5 15.5zM394.999 -119.001c14 0 26.167 -5.16699 36.5 -15.5
s15.5 -22.5 15.5 -36.5c0 -14.667 -5.16699 -27.167 -15.5 -37.5s-22.5 -15.5 -36.5 -15.5c-14.667 0 -27.167 5.16699 -37.5 15.5s-15.5 22.833 -15.5 37.5c0 14 5.16699 26.167 15.5 36.5s22.833 15.5 37.5 15.5z" />
    <glyph glyph-name="uniFB79" unicode="&#x683;" horiz-adv-x="674" arabic-form="medial" 
d="M0 89h533.997c-18.667 25.333 -34 67.333 -46 126c-25.333 125.333 -88.666 188 -189.999 188c-29.333 0 -57.666 -6.66699 -84.999 -20c-37.333 -17.333 -66.333 -42.333 -87 -75l-26 58c27.333 26.667 58.333 47.334 93 62.001s69.334 22 104.001 22
c94.667 0 166.667 -29.333 216 -88c33.333 -39.333 55.666 -91 66.999 -155c10 -48.667 23.333 -82 40 -100c9.33301 -12 24.333 -18 45 -18h28v-89h-33c-20.667 0 -37.167 1.66699 -49.5 5s-25.833 9.66602 -40.5 18.999c-16 -10 -30.667 -16.5 -44 -19.5
s-35.666 -4.5 -66.999 -4.5h-458zM252.997 -224c-14 0 -26.167 5.16699 -36.5 15.5s-15.5 22.833 -15.5 37.5c0 14 5.16699 26.167 15.5 36.5s22.5 15.5 36.5 15.5c14.667 0 27.167 -5.16699 37.5 -15.5s15.5 -22.5 15.5 -36.5c0 -14.667 -5.16699 -27.167 -15.5 -37.5
s-22.833 -15.5 -37.5 -15.5zM393.997 -224c-14 0 -26.167 5.16699 -36.5 15.5s-15.5 22.833 -15.5 37.5c0 14 5.16699 26.167 15.5 36.5s22.5 15.5 36.5 15.5c14.667 0 27.167 -5.16699 37.5 -15.5s15.5 -22.5 15.5 -36.5c0 -14.667 -5.16699 -27.167 -15.5 -37.5
s-22.833 -15.5 -37.5 -15.5z" />
    <glyph glyph-name="uniFB7B" unicode="&#x686;" horiz-adv-x="669" arabic-form="final" 
d="M293 450c157.333 0 251.666 -81.002 282.999 -243.002c9.33301 -48 22.333 -81.333 39 -100c9.33301 -12 24.666 -18 45.999 -18h27v-89h-33c-20 0 -36.167 1.66699 -48.5 5s-25.833 9.66602 -40.5 18.999c-16 -10 -30.667 -16.5 -44 -19.5s-35.666 -4.5 -66.999 -4.5
h-135c-50.667 0 -93.334 -12.333 -128.001 -37c-38 -28 -57 -68 -57 -120c0 -56 22.333 -103.667 67 -143c42 -36 92.667 -54 152 -54c78.667 0.666992 140.334 27 185.001 79l26 -59c-30 -21.333 -63 -38 -99 -50c-34.667 -10.667 -72.667 -16 -114 -16
c-94.667 0 -171 26.333 -229 79c-50 44.667 -75.333 99.334 -76 164.001c-0.666992 88 34.333 154.333 105 199c49.333 31.333 105.666 47 168.999 47h209c-18 24.667 -33.667 66.667 -47 126c-25.333 125.333 -88.666 188 -189.999 188c-28.667 0 -56.667 -6.33301 -84 -19
c-36.667 -17.333 -66 -42.666 -88 -75.999l-25 58c27.333 26.667 58.333 47.334 93 62.001s69.334 22 104.001 22zM310 -87.002c11.333 0 21.166 -4.16699 29.499 -12.5s12.5 -18.5 12.5 -30.5c0 -11.333 -4.16699 -21 -12.5 -29s-18.166 -12 -29.499 -12
s-21.166 4 -29.499 12s-12.5 17.667 -12.5 29c0 12 4.16699 22.167 12.5 30.5s18.166 12.5 29.499 12.5zM431 -87.002c11.333 0 21.166 -4.16699 29.499 -12.5s12.5 -18.5 12.5 -30.5c0 -11.333 -4.16699 -21 -12.5 -29s-18.166 -12 -29.499 -12s-21.166 4 -29.499 12
s-12.5 17.667 -12.5 29s4.16699 21.333 12.5 30s18.166 13 29.499 13zM371 -183.002c11.333 0 21.333 -4.16797 30 -12.501s13 -18.166 13 -29.499s-4.16699 -21 -12.5 -29s-18.5 -12 -30.5 -12s-22 4 -30 12s-12 17.667 -12 29c0 12 4 22 12 30s18 12 30 12z" />
    <glyph glyph-name="uniFB7C" unicode="&#x686;" horiz-adv-x="746" arabic-form="initial" 
d="M628 88c38.667 -2 65.333 -9.33398 80 -22.001v-86c-14 8 -28.167 13.333 -42.5 16s-35.833 4 -64.5 4h-600l-1 89h534c-17.333 24.667 -32.666 66.667 -45.999 126c-25.333 125.333 -88.666 188 -189.999 188c-30.667 0 -60.334 -7.33301 -89.001 -22
c-36.667 -18.667 -64.334 -43 -83.001 -73l-26 58c27.333 26.667 58.333 47.334 93 62.001s69.334 22 104.001 22c94 0 166 -29.333 216 -88c33.333 -39.333 55.666 -91 66.999 -155c12.667 -60 28.667 -99.667 48 -119zM304.999 -171.001
c0 -14.667 -5.16699 -27.167 -15.5 -37.5s-22.5 -15.5 -36.5 -15.5c-14.667 0 -27.167 5.16699 -37.5 15.5s-15.5 22.833 -15.5 37.5c0 14 5.16699 26.167 15.5 36.5s22.833 15.5 37.5 15.5c14 0 26.167 -5.16699 36.5 -15.5s15.5 -22.5 15.5 -36.5zM393.999 -119.001
c14 0 26.167 -5.16699 36.5 -15.5s15.5 -22.5 15.5 -36.5c0 -14.667 -5.16699 -27.167 -15.5 -37.5s-22.5 -15.5 -36.5 -15.5c-14.667 0 -27.167 5.16699 -37.5 15.5s-15.5 22.833 -15.5 37.5c0 14 5.16699 26.167 15.5 36.5s22.833 15.5 37.5 15.5zM323.999 -235.001
c14 0 26.167 -5.16699 36.5 -15.5s15.5 -22.833 15.5 -37.5c0 -14 -5.16699 -26.167 -15.5 -36.5s-22.5 -15.5 -36.5 -15.5c-14.667 0 -27.167 5.16699 -37.5 15.5s-15.5 22.5 -15.5 36.5c0 14.667 5.16699 27.167 15.5 37.5s22.833 15.5 37.5 15.5z" />
    <glyph glyph-name="uniFB7D" unicode="&#x686;" horiz-adv-x="674" arabic-form="medial" 
d="M0 89h533.997c-18.667 25.333 -34 67.333 -46 126c-25.333 125.333 -88.666 188 -189.999 188c-29.333 0 -57.666 -6.66699 -84.999 -20c-37.333 -17.333 -66.333 -42.333 -87 -75l-26 58c27.333 26.667 58.333 47.334 93 62.001s69.334 22 104.001 22
c94.667 0 166.667 -29.333 216 -88c33.333 -39.333 55.666 -91 66.999 -155c10 -48.667 23.333 -82 40 -100c9.33301 -12 24.333 -18 45 -18h28v-89h-33c-20.667 0 -37.167 1.66699 -49.5 5s-25.833 9.66602 -40.5 18.999c-16 -10 -30.667 -16.5 -44 -19.5
s-35.666 -4.5 -66.999 -4.5h-458zM251.997 -119c14.667 0 27.167 -5.16699 37.5 -15.5s15.5 -22.5 15.5 -36.5c0 -14.667 -5.16699 -27.167 -15.5 -37.5s-22.833 -15.5 -37.5 -15.5c-14 0 -26.167 5.16699 -36.5 15.5s-15.5 22.833 -15.5 37.5
c0 14 5.16699 26.167 15.5 36.5s22.5 15.5 36.5 15.5zM392.997 -119c14.667 0 27.167 -5.16699 37.5 -15.5s15.5 -22.5 15.5 -36.5c0 -14.667 -5.16699 -27.167 -15.5 -37.5s-22.833 -15.5 -37.5 -15.5c-14 0 -26.167 5.16699 -36.5 15.5s-15.5 22.833 -15.5 37.5
c0 14 5.16699 26.167 15.5 36.5s22.5 15.5 36.5 15.5zM322.997 -235c14.667 0 27.167 -5.16699 37.5 -15.5s15.5 -22.833 15.5 -37.5c0 -14 -5.16699 -26.167 -15.5 -36.5s-22.833 -15.5 -37.5 -15.5c-14 0 -26.167 5.16699 -36.5 15.5s-15.5 22.5 -15.5 36.5
c0 14.667 5.16699 27.167 15.5 37.5s22.5 15.5 36.5 15.5z" />
    <glyph glyph-name="uniFB7F" unicode="&#x687;" horiz-adv-x="669" arabic-form="final" 
d="M294 450c157.333 0 251.666 -81.002 282.999 -243.002c9.33301 -48 22.333 -81.333 39 -100c9.33301 -12 24.666 -18 45.999 -18h27v-89h-33c-20 0 -36.167 1.66699 -48.5 5s-25.833 9.66602 -40.5 18.999c-16 -10 -30.667 -16.5 -44 -19.5s-35.666 -4.5 -66.999 -4.5
h-135c-50.667 0 -93.334 -12.333 -128.001 -37c-38 -28 -57 -68 -57 -120c0 -56 22.333 -103.667 67 -143c42 -36 92.667 -54 152 -54c78.667 0.666992 140.334 27 185.001 79l26 -59c-30 -21.333 -63 -38 -99 -50c-34.667 -10.667 -72.667 -16 -114 -16
c-94.667 0 -171 26.333 -229 79c-50 44.667 -75.333 99.334 -76 164.001c-0.666992 88 34.333 154.333 105 199c49.333 31.333 105.666 47 168.999 47h209c-18 24.667 -33.667 66.667 -47 126c-25.333 125.333 -88.666 188 -189.999 188c-28.667 0 -56.667 -6.33301 -84 -19
c-36.667 -17.333 -66 -42.666 -88 -75.999l-25 58c27.333 26.667 58.333 47.334 93 62.001s69.334 22 104.001 22zM434 -64.002c10.667 0 20.167 -4.16699 28.5 -12.5s12.5 -17.833 12.5 -28.5c0 -11.333 -4 -21.166 -12 -29.499s-17.667 -12.5 -29 -12.5
s-21.166 4.16699 -29.499 12.5s-12.5 18.166 -12.5 29.499s4.16699 21 12.5 29s18.166 12 29.499 12zM316 -82.002c11.333 0 21 -3.83301 29 -11.5s12 -17.167 12 -28.5s-4 -21.166 -12 -29.499s-17.667 -12.5 -29 -12.5s-21 4.16699 -29 12.5s-12 18.166 -12 29.499
s4 20.833 12 28.5s17.667 11.5 29 11.5zM434 -183.002c11.333 0 20.999 -3.83301 28.999 -11.5s12 -17.167 12 -28.5s-4 -21 -12 -29s-17.667 -12 -29 -12s-21.166 4 -29.499 12s-12.5 17.667 -12.5 29s4 20.833 12 28.5s18 11.5 30 11.5zM315.999 -200.002
c11.333 0 21 -3.83301 29 -11.5s12 -17.167 12 -28.5s-4 -21 -12 -29s-17.667 -12 -29 -12s-21 4 -29 12s-12 17.667 -12 29s4 20.833 12 28.5s17.667 11.5 29 11.5z" />
    <glyph glyph-name="uniFB80" unicode="&#x687;" horiz-adv-x="746" arabic-form="initial" 
d="M628 88c38.667 -2 65.333 -9.33398 80 -22.001v-86c-14 8 -28.167 13.333 -42.5 16s-35.833 4 -64.5 4h-600l-1 89h534c-17.333 24.667 -32.666 66.667 -45.999 126c-25.333 125.333 -88.666 188 -189.999 188c-30.667 0 -60.334 -7.33301 -89.001 -22
c-36.667 -18.667 -64.334 -43 -83.001 -73l-26 58c27.333 26.667 58.333 47.334 93 62.001s69.334 22 104.001 22c94 0 166 -29.333 216 -88c33.333 -39.333 55.666 -91 66.999 -155c12.667 -60 28.667 -99.667 48 -119zM253.999 -119.001c14 0 26.167 -5.16699 36.5 -15.5
s15.5 -22.5 15.5 -36.5c0 -14.667 -5.16699 -27.167 -15.5 -37.5s-22.5 -15.5 -36.5 -15.5c-14.667 0 -27.167 5.16699 -37.5 15.5s-15.5 22.833 -15.5 37.5c0 14 5.16699 26.167 15.5 36.5s22.833 15.5 37.5 15.5zM394.999 -119.001c14 0 26.167 -5.16699 36.5 -15.5
s15.5 -22.5 15.5 -36.5c0 -14.667 -5.16699 -27.167 -15.5 -37.5s-22.5 -15.5 -36.5 -15.5c-14.667 0 -27.167 5.16699 -37.5 15.5s-15.5 22.833 -15.5 37.5c0 14 5.16699 26.167 15.5 36.5s22.833 15.5 37.5 15.5zM253.999 -260.001c14 0 26.167 -5.16699 36.5 -15.5
s15.5 -22.5 15.5 -36.5c0 -14.667 -5.16699 -27.167 -15.5 -37.5s-22.5 -15.5 -36.5 -15.5c-14.667 0 -27.167 5.16699 -37.5 15.5s-15.5 22.833 -15.5 37.5c0 14 5.16699 26.167 15.5 36.5s22.833 15.5 37.5 15.5zM394.999 -260.001c14 0 26.167 -5.16699 36.5 -15.5
s15.5 -22.5 15.5 -36.5c0 -14.667 -5.16699 -27.167 -15.5 -37.5s-22.5 -15.5 -36.5 -15.5c-14.667 0 -27.167 5.16699 -37.5 15.5s-15.5 22.833 -15.5 37.5c0 14 5.16699 26.167 15.5 36.5s22.833 15.5 37.5 15.5z" />
    <glyph glyph-name="uniFB81" unicode="&#x687;" horiz-adv-x="674" arabic-form="medial" 
d="M0 89h533.997c-18.667 25.333 -34 67.333 -46 126c-25.333 125.333 -88.666 188 -189.999 188c-29.333 0 -57.666 -6.66699 -84.999 -20c-37.333 -17.333 -66.333 -42.333 -87 -75l-26 58c27.333 26.667 58.333 47.334 93 62.001s69.334 22 104.001 22
c94.667 0 166.667 -29.333 216 -88c33.333 -39.333 55.666 -91 66.999 -155c10 -48.667 23.333 -82 40 -100c9.33301 -12 24.333 -18 45 -18h28v-89h-33c-20.667 0 -37.167 1.66699 -49.5 5s-25.833 9.66602 -40.5 18.999c-16 -10 -30.667 -16.5 -44 -19.5
s-35.666 -4.5 -66.999 -4.5h-458zM252.997 -224c-14 0 -26.167 5.16699 -36.5 15.5s-15.5 22.833 -15.5 37.5c0 14 5.16699 26.167 15.5 36.5s22.5 15.5 36.5 15.5c14.667 0 27.167 -5.16699 37.5 -15.5s15.5 -22.5 15.5 -36.5c0 -14.667 -5.16699 -27.167 -15.5 -37.5
s-22.833 -15.5 -37.5 -15.5zM393.997 -224c-14 0 -26.167 5.16699 -36.5 15.5s-15.5 22.833 -15.5 37.5c0 14 5.16699 26.167 15.5 36.5s22.5 15.5 36.5 15.5c14.667 0 27.167 -5.16699 37.5 -15.5s15.5 -22.5 15.5 -36.5c0 -14.667 -5.16699 -27.167 -15.5 -37.5
s-22.833 -15.5 -37.5 -15.5zM252.997 -365c-14 0 -26.167 5.16699 -36.5 15.5s-15.5 22.833 -15.5 37.5c0 14 5.16699 26.167 15.5 36.5s22.5 15.5 36.5 15.5c14.667 0 27.167 -5.16699 37.5 -15.5s15.5 -22.5 15.5 -36.5c0 -14.667 -5.16699 -27.167 -15.5 -37.5
s-22.833 -15.5 -37.5 -15.5zM393.997 -365c-14 0 -26.167 5.16699 -36.5 15.5s-15.5 22.833 -15.5 37.5c0 14 5.16699 26.167 15.5 36.5s22.5 15.5 36.5 15.5c14.667 0 27.167 -5.16699 37.5 -15.5s15.5 -22.5 15.5 -36.5c0 -14.667 -5.16699 -27.167 -15.5 -37.5
s-22.833 -15.5 -37.5 -15.5z" />
    <glyph glyph-name="uniFB85" unicode="&#x68c;" horiz-adv-x="634" arabic-form="final" 
d="M167 554c-14.667 0 -27.167 5.16699 -37.5 15.5s-15.5 22.833 -15.5 37.5c0 14 5.16699 26.167 15.5 36.5s22.833 15.5 37.5 15.5c14 0 26.167 -5.16699 36.5 -15.5s15.5 -22.5 15.5 -36.5c0 -14.667 -5.16699 -27.167 -15.5 -37.5s-22.5 -15.5 -36.5 -15.5zM309 554
c-14.667 0 -27.167 5.16699 -37.5 15.5s-15.5 22.833 -15.5 37.5c0 14 5.16699 26.167 15.5 36.5s22.833 15.5 37.5 15.5c14 0 26.167 -5.16699 36.5 -15.5s15.5 -22.5 15.5 -36.5c0 -14.667 -5.16699 -27.167 -15.5 -37.5s-22.5 -15.5 -36.5 -15.5zM653 89v-88.999h-18
c-66.667 0 -116 19.667 -148 59c-34 -39.333 -84 -59 -150 -59h-188c-28.667 0 -50.167 -1.33301 -64.5 -4s-28.5 -8 -42.5 -16v86c17.333 15.333 52.666 23 105.999 23h183c42 0 73.667 14.333 95 43c16 20.667 24 46 24 76c0 66.667 -20 117.667 -60 153
c-30 27.333 -66.667 41.333 -110 42c-55.333 1.33301 -102.333 -18.334 -141 -59.001l-26 60c52.667 30.667 108 46 166 46c82.667 0 148.667 -27.333 198 -82c40.667 -45.333 61 -100 61 -164v-4h1v-29c0 -26 7.83301 -46.167 23.5 -60.5s37.834 -21.5 66.501 -21.5h24z
" />
    <glyph glyph-name="uniFB87" unicode="&#x68e;" horiz-adv-x="634" arabic-form="final" 
d="M238 670c-14.667 0 -27.167 5.16699 -37.5 15.5s-15.5 22.833 -15.5 37.5c0 14 5.16699 26.167 15.5 36.5s22.833 15.5 37.5 15.5c14 0 26.167 -5.16699 36.5 -15.5s15.5 -22.5 15.5 -36.5c0 -14.667 -5.16699 -27.167 -15.5 -37.5s-22.5 -15.5 -36.5 -15.5zM167 554
c-14.667 0 -27.167 5.16699 -37.5 15.5s-15.5 22.833 -15.5 37.5c0 14 5.16699 26.167 15.5 36.5s22.833 15.5 37.5 15.5c14 0 26.167 -5.16699 36.5 -15.5s15.5 -22.5 15.5 -36.5c0 -14.667 -5.16699 -27.167 -15.5 -37.5s-22.5 -15.5 -36.5 -15.5zM256 607
c0 14 5.16699 26.167 15.5 36.5s22.833 15.5 37.5 15.5c14 0 26.167 -5.16699 36.5 -15.5s15.5 -22.5 15.5 -36.5c0 -14.667 -5.16699 -27.167 -15.5 -37.5s-22.5 -15.5 -36.5 -15.5c-14.667 0 -27.167 5.16699 -37.5 15.5s-15.5 22.833 -15.5 37.5zM653 89v-88.999h-18
c-66.667 0 -116 19.667 -148 59c-34 -39.333 -84 -59 -150 -59h-188c-28.667 0 -50.167 -1.33301 -64.5 -4s-28.5 -8 -42.5 -16v86c17.333 15.333 52.666 23 105.999 23h183c42 0 73.667 14.333 95 43c16 20.667 24 46 24 76c0 66.667 -20 117.667 -60 153
c-30 27.333 -66.667 41.333 -110 42c-55.333 1.33301 -102.333 -18.334 -141 -59.001l-26 60c52.667 30.667 108 46 166 46c82.667 0 148.667 -27.333 198 -82c40.667 -45.333 61 -100 61 -164v-4h1v-29c0 -26 7.83301 -46.167 23.5 -60.5s37.834 -21.5 66.501 -21.5h24z
" />
    <glyph glyph-name="uniFB89" unicode="&#x688;" horiz-adv-x="634" arabic-form="final" 
d="M307 557h-143.002c-24.667 0 -42 -3.33301 -52 -10v40c8.66699 6 24.334 9.33301 47.001 10v132c0 24 3 41.333 9 52h41c-6.66699 -11.333 -10 -29 -10 -53v-62c22.667 32 52.334 48 89.001 48c24.667 0 45.667 -8 63 -24c18 -15.333 27 -36 27 -62
c0 -21.333 -6.5 -38.5 -19.5 -51.5s-30.167 -19.5 -51.5 -19.5zM285.998 692c-20 0 -38.5 -9.16699 -55.5 -27.5s-27.5 -40.833 -31.5 -67.5h105c10 0 18.167 3.16699 24.5 9.5s9.5 14.5 9.5 24.5c0 18 -4.83301 32.667 -14.5 44s-22.167 17 -37.5 17zM652.998 89v-88.999
h-18c-66.667 0 -116 19.667 -148 59c-34 -39.333 -84 -59 -150 -59h-188c-28.667 0 -50.167 -1.33301 -64.5 -4s-28.5 -8 -42.5 -16v86c17.333 15.333 52.666 23 105.999 23h183c42 0 73.667 14.333 95 43c16 20.667 24 46 24 76c0 66.667 -20 117.667 -60 153
c-30 27.333 -66.667 41.333 -110 42c-55.333 1.33301 -102.333 -18.334 -141 -59.001l-26 60c52.667 30.667 108 46 166 46c82.667 0 148.667 -27.333 198 -82c40.667 -45.333 61 -100 61 -164v-4h1v-29c0 -26 7.83301 -46.167 23.5 -60.5s37.834 -21.5 66.501 -21.5h24z
" />
    <glyph glyph-name="uniFB8B" unicode="&#x698;" horiz-adv-x="416" arabic-form="final" 
d="M203 670c-14.667 0 -27.167 5.16699 -37.5 15.5s-15.5 22.833 -15.5 37.5c0 14 5.16699 26.167 15.5 36.5s22.833 15.5 37.5 15.5c14 0 26.167 -5.16699 36.5 -15.5s15.5 -22.5 15.5 -36.5c0 -14.667 -5.16699 -27.167 -15.5 -37.5s-22.5 -15.5 -36.5 -15.5zM133 554
c-14.667 0 -27.167 5.16699 -37.5 15.5s-15.5 22.833 -15.5 37.5c0 14 5.16699 26.167 15.5 36.5s22.833 15.5 37.5 15.5c14 0 26.167 -5.16699 36.5 -15.5s15.5 -22.5 15.5 -36.5c0 -14.667 -5.16699 -27.167 -15.5 -37.5s-22.5 -15.5 -36.5 -15.5zM221 607
c0 14 5.16699 26.167 15.5 36.5s22.833 15.5 37.5 15.5c14 0 26.167 -5.16699 36.5 -15.5s15.5 -22.5 15.5 -36.5c0 -14.667 -5.16699 -27.167 -15.5 -37.5s-22.5 -15.5 -36.5 -15.5c-14.667 0 -27.167 5.16699 -37.5 15.5s-15.5 22.833 -15.5 37.5zM433 89
l-0.000976562 -89h-34c-39.333 -0 -72 6.33301 -98 19v-49c0 -38 -1.5 -66.667 -4.5 -86s-9.16699 -37.666 -18.5 -54.999c-29.333 -60.667 -86.666 -91 -171.999 -91c-54.667 0 -106 15.667 -154 47l26 59c34.667 -40 76.667 -60 126 -60c40 0 70.333 18.333 91 55
c7.33301 12.667 12.166 27.167 14.499 43.5s3.5 45.166 3.5 86.499l-1 199v16v155c0 52 7.66699 87.333 23 106h86c-8 -14 -13.333 -28.167 -16 -42.5s-4 -35.833 -4 -64.5v-167c0 -26 7.83301 -46.167 23.5 -60.5s37.834 -21.5 66.501 -21.5h42z" />
    <glyph glyph-name="uniFB8D" unicode="&#x691;" horiz-adv-x="416" arabic-form="final" 
d="M265 554h-143.001c-26 0 -43.667 -3.33301 -53 -10v40c10 6.66699 26 10 48 10v133c0 24 3.33301 41 10 51h40c-6.66699 -10.667 -10 -28 -10 -52v-62c22.667 32 52.334 48 89.001 48c24.667 0 45.667 -8 63 -24c18 -15.333 27 -36 27 -62c0 -22 -6.5 -39.5 -19.5 -52.5
s-30.167 -19.5 -51.5 -19.5zM243.999 690c-20 0 -38.5 -9.33203 -55.5 -27.999s-27.5 -41.334 -31.5 -68.001h105c10 0 18.167 3.33301 24.5 10s9.5 15 9.5 25c0 18 -4.83301 32.667 -14.5 44s-22.167 17 -37.5 17zM432.999 89.001l-0.000976562 -89h-34
c-39.333 0 -72 6.33301 -98 19v-49c0 -38 -1.5 -66.667 -4.5 -86s-9.16699 -37.666 -18.5 -54.999c-29.333 -60.667 -86.666 -91 -171.999 -91c-54.667 0 -106 15.667 -154 47l26 59c34.667 -40 76.667 -60 126 -60c40 0 70.333 18.333 91 55
c7.33301 12.667 12.166 27.167 14.499 43.5s3.5 45.166 3.5 86.499l-1 199v16v155c0 52 7.66699 87.333 23 106h86c-8 -14 -13.333 -28.167 -16 -42.5s-4 -35.833 -4 -64.5v-167c0 -26 7.83301 -46.167 23.5 -60.5s37.834 -21.5 66.501 -21.5h42z" />
    <glyph glyph-name="uniFB8F" unicode="&#x6a9;" horiz-adv-x="1068" arabic-form="final" 
d="M1089 89l-0.00195312 -88.999h-18c-66.667 0 -115.667 19.333 -147 58c-35.333 -38.667 -85.666 -58 -150.999 -58h-439c-86.667 0 -156.667 25.333 -210 76c-49.333 46.667 -74.333 107.667 -75 183c-1.33301 76.667 23.667 138.667 75 186l58 -30
c-32.667 -16 -56 -40 -70 -72c-10 -20.667 -15 -43.334 -15 -68.001c0 -7.33301 0.333008 -14.333 1 -21c8 -55.333 37.667 -98.333 89 -129c40 -23.333 85.667 -35.333 137 -36h443c42 0 73.667 14.333 95 43c16 20.667 24 46 24 76c0 66.667 -19.333 117.667 -58 153
c-29.333 27.333 -66 41.333 -110 42c-6 0.666992 -12 1 -18 1c-14.667 0 -29.667 -1.66699 -45 -5c-14 -2 -27.667 -5.33301 -41 -10c-38 -12.667 -74.333 -36.667 -109 -72l-28 63l175 230c30.667 42 57.667 65.667 81 71l68 -52c-14 -5.33301 -26.167 -12.833 -36.5 -22.5
s-24.833 -26.5 -43.5 -50.5l-86 -112c24.667 4 51.667 6 81 6c82.667 0 148.667 -27.333 198 -82c40.667 -45.333 61 -100 61 -164v-4v-29c0 -26 7.83301 -46.167 23.5 -60.5s37.834 -21.5 66.501 -21.5h24z" />
    <glyph glyph-name="uniFB90" unicode="&#x6a9;" horiz-adv-x="649" arabic-form="initial" 
d="M343 450c82.667 0 148.334 -27.334 197.001 -82.001c40.667 -45.333 61 -100 61 -164c0 -61.333 -17.667 -110.666 -53 -147.999s-85 -56 -149 -56h-398l-1 89h394c42 0 73.333 14.333 94 43c16 20.667 24 46 24 76c0 66.667 -19.333 117.667 -58 153
c-29.333 27.333 -65.666 41.333 -108.999 42c-4.66699 0.666992 -10.334 1 -17.001 1c-11.333 0 -23.333 -1 -36 -3c-14.667 -2 -31.667 -6 -51 -12c-38.667 -12.667 -75 -36.667 -109 -72l-28 63l171 230c30.667 42 57.667 65.667 81 71l68 -52
c-14.667 -5.33301 -27.334 -13 -38.001 -23s-25 -26.667 -43 -50l-81 -112c24.667 4 51.667 6 81 6z" />
    <glyph glyph-name="uniFB91" unicode="&#x6a9;" horiz-adv-x="697" arabic-form="medial" 
d="M716 89v-89h-18c-66.667 -0 -115.667 19.333 -147 58c-35.333 -38.667 -86 -58 -152 -58h-398l-1 89h394c42 0 73.667 14.333 95 43c16 20.667 24 46 24 76c0 66.667 -19.333 117.667 -58 153c-29.333 27.333 -66 41.333 -110 42c-4.66699 0.666992 -10 1 -16 1
c-12 0 -24 -1 -36 -3c-15.333 -2 -32.666 -6 -51.999 -12c-38.667 -12.667 -75 -36.667 -109 -72l-28 63l171 230c30.667 42 57.667 65.667 81 71l68 -52c-14.667 -5.33301 -27.334 -13 -38.001 -23s-25 -26.667 -43 -50l-81 -112c24.667 4 51.667 6 81 6
c82.667 0 148.667 -27.333 198 -82c40 -45.333 60 -100 60 -164v-4v-29c0 -26 8 -46.167 24 -60.5s38.333 -21.5 67 -21.5h24z" />
    <glyph glyph-name="uniFB93" unicode="&#x6af;" horiz-adv-x="1068" arabic-form="final" 
d="M420 507l-19 41.001l156 204c16 19.333 29 30.333 39 33l32 -23c-12 -4.66699 -25.667 -16.334 -41 -35.001zM1089 89.001l-0.00195312 -88.999h-18c-66.667 0 -115.667 19.333 -147 58c-35.333 -38.667 -85.666 -58 -150.999 -58h-439
c-86.667 0 -156.667 25.333 -210 76c-49.333 46.667 -74.333 107.667 -75 183c-1.33301 76.667 23.667 138.667 75 186l58 -30c-32.667 -16 -56 -40 -70 -72c-10 -20.667 -15 -43.334 -15 -68.001c0 -7.33301 0.333008 -14.333 1 -21c8 -55.333 37.667 -98.333 89 -129
c40 -23.333 85.667 -35.333 137 -36h443c42 0 73.667 14.333 95 43c16 20.667 24 46 24 76c0 66.667 -19.333 117.667 -58 153c-29.333 27.333 -66 41.333 -110 42c-6 0.666992 -12 1 -18 1c-14.667 0 -29.667 -1.66699 -45 -5c-14 -2 -27.667 -5.33301 -41 -10
c-38 -12.667 -74.333 -36.667 -109 -72l-28 63l175 230c30.667 42 57.667 65.667 81 71l68 -52c-14 -5.33301 -26.167 -12.833 -36.5 -22.5s-24.833 -26.5 -43.5 -50.5l-86 -112c24.667 4 51.667 6 81 6c82.667 0 148.667 -27.333 198 -82c40.667 -45.333 61 -100 61 -164
v-4v-29c0 -26 7.83301 -46.167 23.5 -60.5s37.834 -21.5 66.501 -21.5h24z" />
    <glyph glyph-name="uniFB94" unicode="&#x6af;" horiz-adv-x="649" arabic-form="initial" 
d="M48 507l-19 41.001l156 204c16 19.333 29 30.333 39 33l32 -23c-12 -4.66699 -25.667 -16.334 -41 -35.001zM343 450.001c82.667 0 148.334 -27.334 197.001 -82.001c40.667 -45.333 61 -100 61 -164c0 -61.333 -17.667 -110.666 -53 -147.999s-85 -56 -149 -56h-398
l-1 89h394c42 0 73.333 14.333 94 43c16 20.667 24 46 24 76c0 66.667 -19.333 117.667 -58 153c-29.333 27.333 -65.666 41.333 -108.999 42c-4.66699 0.666992 -10.334 1 -17.001 1c-11.333 0 -23.333 -1 -36 -3c-14.667 -2 -31.667 -6 -51 -12
c-38.667 -12.667 -75 -36.667 -109 -72l-28 63l171 230c30.667 42 57.667 65.667 81 71l68 -52c-14.667 -5.33301 -27.334 -13 -38.001 -23s-25 -26.667 -43 -50l-81 -112c24.667 4 51.667 6 81 6z" />
    <glyph glyph-name="uniFB95" unicode="&#x6af;" horiz-adv-x="697" arabic-form="medial" 
d="M47 507l-19 41.001l157 204c16 19.333 29 30.333 39 33l32 -23c-12 -4.66699 -25.667 -16.334 -41 -35.001zM716 89.001v-89h-18c-66.667 0 -115.667 19.333 -147 58c-35.333 -38.667 -86 -58 -152 -58h-398l-1 89h394c42 0 73.667 14.333 95 43c16 20.667 24 46 24 76
c0 66.667 -19.333 117.667 -58 153c-29.333 27.333 -66 41.333 -110 42c-4.66699 0.666992 -10 1 -16 1c-12 0 -24 -1 -36 -3c-15.333 -2 -32.666 -6 -51.999 -12c-38.667 -12.667 -75 -36.667 -109 -72l-28 63l171 230c30.667 42 57.667 65.667 81 71l68 -52
c-14.667 -5.33301 -27.334 -13 -38.001 -23s-25 -26.667 -43 -50l-81 -112c24.667 4 51.667 6 81 6c82.667 0 148.667 -27.333 198 -82c40 -45.333 60 -100 60 -164v-4v-29c0 -26 8 -46.167 24 -60.5s38.333 -21.5 67 -21.5h24z" />
    <glyph glyph-name="uniFB96" unicode="&#x6b3;" horiz-adv-x="1020" arabic-form="isolated" 
d="M421 507l-19 41.001l156 204c16 19.333 29 30.333 39 33l32 -23c-12 -4.66699 -25.667 -16.334 -41 -35.001zM717 450.001c82.667 0 148.334 -27.333 197.001 -82c40.667 -45.333 61 -100 61 -164c0 -61.333 -17.667 -110.666 -53 -147.999s-85 -56 -149 -56h-438
c-86.667 0 -157 25.333 -211 76c-48.667 46.667 -73.334 107.667 -74.001 183c-1.33301 76.667 23.667 138.667 75 186l57 -30c-32 -16 -55 -40 -69 -72c-10 -20.667 -15 -43.334 -15 -68.001c0 -7.33301 0.333008 -14.333 1 -21c8 -55.333 37.667 -98.333 89 -129
c39.333 -23.333 84.666 -35.333 135.999 -36h444c42 0 73.333 14.333 94 43c16 20.667 24 46 24 76c0 66.667 -19.333 117.667 -58 153c-29.333 27.333 -65.666 41.333 -108.999 42c-6.66699 0.666992 -13 1 -19 1c-14 0 -28.667 -1.66699 -44 -5
c-14 -2 -27.667 -5.33301 -41 -10c-38 -12.667 -74.667 -36.667 -110 -72l-27 63l175 230c30.667 42 57.667 65.667 81 71l68 -52c-14 -5.33301 -26.333 -12.833 -37 -22.5s-25 -26.5 -43 -50.5l-86 -112c24.667 4 51.667 6 81 6zM539 -118.999
c14.667 0 27.167 -5.16699 37.5 -15.5s15.5 -22.5 15.5 -36.5c0 -14.667 -5.16699 -27.167 -15.5 -37.5s-22.833 -15.5 -37.5 -15.5c-14 0 -26.167 5.16699 -36.5 15.5s-15.5 22.833 -15.5 37.5c0 14 5.16699 26.167 15.5 36.5s22.5 15.5 36.5 15.5zM539 -259.999
c14.667 0 27.167 -5.16699 37.5 -15.5s15.5 -22.5 15.5 -36.5c0 -14.667 -5.16699 -27.167 -15.5 -37.5s-22.833 -15.5 -37.5 -15.5c-14 0 -26.167 5.16699 -36.5 15.5s-15.5 22.833 -15.5 37.5c0 14 5.16699 26.167 15.5 36.5s22.5 15.5 36.5 15.5z" />
    <glyph glyph-name="uniFB97" unicode="&#x6b3;" horiz-adv-x="1068" arabic-form="final" 
d="M421 507l-19 41.001l156 204c16 19.333 29 30.333 39 33l32 -23c-12 -4.66699 -25.667 -16.334 -41 -35.001zM1090 89.001l-0.00195312 -88.999h-18c-66.667 0 -115.667 19.333 -147 58c-35.333 -38.667 -85.666 -58 -150.999 -58h-439
c-86.667 0 -156.667 25.333 -210 76c-49.333 46.667 -74.333 107.667 -75 183c-1.33301 76.667 23.667 138.667 75 186l58 -30c-32.667 -16 -56 -40 -70 -72c-10 -20.667 -15 -43.334 -15 -68.001c0 -7.33301 0.333008 -14.333 1 -21c8 -55.333 37.667 -98.333 89 -129
c40 -23.333 85.667 -35.333 137 -36h443c42 0 73.667 14.333 95 43c16 20.667 24 46 24 76c0 66.667 -19.333 117.667 -58 153c-29.333 27.333 -66 41.333 -110 42c-6 0.666992 -12 1 -18 1c-14.667 0 -29.667 -1.66699 -45 -5c-14 -2 -27.667 -5.33301 -41 -10
c-38 -12.667 -74.333 -36.667 -109 -72l-28 63l175 230c30.667 42 57.667 65.667 81 71l68 -52c-14 -5.33301 -26.167 -12.833 -36.5 -22.5s-24.833 -26.5 -43.5 -50.5l-86 -112c24.667 4 51.667 6 81 6c82.667 0 148.667 -27.333 198 -82c40.667 -45.333 61 -100 61 -164
v-4v-29c0 -26 7.83301 -46.167 23.5 -60.5s37.834 -21.5 66.501 -21.5h24zM538.998 -118.998c14.667 0 27.167 -5.16699 37.5 -15.5s15.5 -22.5 15.5 -36.5c0 -14.667 -5.16699 -27.167 -15.5 -37.5s-22.833 -15.5 -37.5 -15.5c-14 0 -26.167 5.16699 -36.5 15.5
s-15.5 22.833 -15.5 37.5c0 14 5.16699 26.167 15.5 36.5s22.5 15.5 36.5 15.5zM538.998 -259.998c14.667 0 27.167 -5.16699 37.5 -15.5s15.5 -22.5 15.5 -36.5c0 -14.667 -5.16699 -27.167 -15.5 -37.5s-22.833 -15.5 -37.5 -15.5c-14 0 -26.167 5.16699 -36.5 15.5
s-15.5 22.833 -15.5 37.5c0 14 5.16699 26.167 15.5 36.5s22.5 15.5 36.5 15.5z" />
    <glyph glyph-name="uniFB98" unicode="&#x6b3;" horiz-adv-x="649" arabic-form="initial" 
d="M48 507l-19 41.001l156 204c16 19.333 29 30.333 39 33l32 -23c-12 -4.66699 -25.667 -16.334 -41 -35.001zM343 450.001c82.667 0 148.334 -27.334 197.001 -82.001c40.667 -45.333 61 -100 61 -164c0 -61.333 -17.667 -110.666 -53 -147.999s-85 -56 -149 -56h-398
l-1 89h394c42 0 73.333 14.333 94 43c16 20.667 24 46 24 76c0 66.667 -19.333 117.667 -58 153c-29.333 27.333 -65.666 41.333 -108.999 42c-4.66699 0.666992 -10.334 1 -17.001 1c-11.333 0 -23.333 -1 -36 -3c-14.667 -2 -31.667 -6 -51 -12
c-38.667 -12.667 -75 -36.667 -109 -72l-28 63l171 230c30.667 42 57.667 65.667 81 71l68 -52c-14.667 -5.33301 -27.334 -13 -38.001 -23s-25 -26.667 -43 -50l-81 -112c24.667 4 51.667 6 81 6zM303 -119c14.667 0 27.167 -5.16699 37.5 -15.5s15.5 -22.5 15.5 -36.5
c0 -14.667 -5.16699 -27.167 -15.5 -37.5s-22.833 -15.5 -37.5 -15.5c-14 0 -26.167 5.16699 -36.5 15.5s-15.5 22.833 -15.5 37.5c0 14 5.16699 26.167 15.5 36.5s22.5 15.5 36.5 15.5zM303 -260c14.667 0 27.167 -5.16699 37.5 -15.5s15.5 -22.5 15.5 -36.5
c0 -14.667 -5.16699 -27.167 -15.5 -37.5s-22.833 -15.5 -37.5 -15.5c-14 0 -26.167 5.16699 -36.5 15.5s-15.5 22.833 -15.5 37.5c0 14 5.16699 26.167 15.5 36.5s22.5 15.5 36.5 15.5z" />
    <glyph glyph-name="uniFB99" unicode="&#x6b3;" horiz-adv-x="697" arabic-form="medial" 
d="M47 507l-19 41.001l157 204c16 19.333 29 30.333 39 33l32 -23c-12 -4.66699 -25.667 -16.334 -41 -35.001zM716 89.001v-89h-18c-66.667 0 -115.667 19.333 -147 58c-35.333 -38.667 -86 -58 -152 -58h-398l-1 89h394c42 0 73.667 14.333 95 43c16 20.667 24 46 24 76
c0 66.667 -19.333 117.667 -58 153c-29.333 27.333 -66 41.333 -110 42c-4.66699 0.666992 -10 1 -16 1c-12 0 -24 -1 -36 -3c-15.333 -2 -32.666 -6 -51.999 -12c-38.667 -12.667 -75 -36.667 -109 -72l-28 63l171 230c30.667 42 57.667 65.667 81 71l68 -52
c-14.667 -5.33301 -27.334 -13 -38.001 -23s-25 -26.667 -43 -50l-81 -112c24.667 4 51.667 6 81 6c82.667 0 148.667 -27.333 198 -82c40 -45.333 60 -100 60 -164v-4v-29c0 -26 8 -46.167 24 -60.5s38.333 -21.5 67 -21.5h24zM303 -118.999
c14.667 0 27.167 -5.16699 37.5 -15.5s15.5 -22.5 15.5 -36.5c0 -14.667 -5.16699 -27.167 -15.5 -37.5s-22.833 -15.5 -37.5 -15.5c-14 0 -26.167 5.16699 -36.5 15.5s-15.5 22.833 -15.5 37.5c0 14 5.16699 26.167 15.5 36.5s22.5 15.5 36.5 15.5zM303 -259.999
c14.667 0 27.167 -5.16699 37.5 -15.5s15.5 -22.5 15.5 -36.5c0 -14.667 -5.16699 -27.167 -15.5 -37.5s-22.833 -15.5 -37.5 -15.5c-14 0 -26.167 5.16699 -36.5 15.5s-15.5 22.833 -15.5 37.5c0 14 5.16699 26.167 15.5 36.5s22.5 15.5 36.5 15.5z" />
    <glyph glyph-name="uniFB9A" unicode="&#x6b1;" horiz-adv-x="1020" arabic-form="isolated" 
d="M427 870c-14 0 -26.167 5.16699 -36.5 15.5s-15.5 22.5 -15.5 36.5c0 14.667 5.16699 27.167 15.5 37.5s22.5 15.5 36.5 15.5c14.667 0 27.167 -5.16699 37.5 -15.5s15.5 -22.833 15.5 -37.5c0 -14 -5.16699 -26.167 -15.5 -36.5s-22.833 -15.5 -37.5 -15.5zM568 870
c-14 0 -26.167 5.16699 -36.5 15.5s-15.5 22.5 -15.5 36.5c0 14.667 5.16699 27.167 15.5 37.5s22.5 15.5 36.5 15.5c14.667 0 27.167 -5.16699 37.5 -15.5s15.5 -22.833 15.5 -37.5c0 -14 -5.16699 -26.167 -15.5 -36.5s-22.833 -15.5 -37.5 -15.5zM402 548l156 204.001
c16 19.333 29 30.333 39 33l32 -23c-12 -4.66699 -25.667 -16.334 -41 -35.001l-167 -220zM717 450.001c82.667 0 148.334 -27.333 197.001 -82c40.667 -45.333 61 -100 61 -164c0 -61.333 -17.667 -110.666 -53 -147.999s-85 -56 -149 -56h-438
c-86.667 0 -157 25.333 -211 76c-48.667 46.667 -73.334 107.667 -74.001 183c-1.33301 76.667 23.667 138.667 75 186l57 -30c-32 -16 -55 -40 -69 -72c-10 -20.667 -15 -43.334 -15 -68.001c0 -7.33301 0.333008 -14.333 1 -21c8 -55.333 37.667 -98.333 89 -129
c39.333 -23.333 84.666 -35.333 135.999 -36h444c42 0 73.333 14.333 94 43c16 20.667 24 46 24 76c0 66.667 -19.333 117.667 -58 153c-29.333 27.333 -65.666 41.333 -108.999 42c-6.66699 0.666992 -13 1 -19 1c-14 0 -28.667 -1.66699 -44 -5
c-14 -2 -27.667 -5.33301 -41 -10c-38 -12.667 -74.667 -36.667 -110 -72l-27 63l175 230c30.667 42 57.667 65.667 81 71l68 -52c-14 -5.33301 -26.333 -12.833 -37 -22.5s-25 -26.5 -43 -50.5l-86 -112c24.667 4 51.667 6 81 6z" />
    <glyph glyph-name="uniFB9B" unicode="&#x6b1;" horiz-adv-x="1068" arabic-form="final" 
d="M429 870c-14 0 -26.167 5.16699 -36.5 15.5s-15.5 22.5 -15.5 36.5c0 14.667 5.16699 27.167 15.5 37.5s22.5 15.5 36.5 15.5c14.667 0 27.167 -5.16699 37.5 -15.5s15.5 -22.833 15.5 -37.5c0 -14 -5.16699 -26.167 -15.5 -36.5s-22.833 -15.5 -37.5 -15.5zM570 870
c-14 0 -26.167 5.16699 -36.5 15.5s-15.5 22.5 -15.5 36.5c0 14.667 5.16699 27.167 15.5 37.5s22.5 15.5 36.5 15.5c14.667 0 27.167 -5.16699 37.5 -15.5s15.5 -22.833 15.5 -37.5c0 -14 -5.16699 -26.167 -15.5 -36.5s-22.833 -15.5 -37.5 -15.5zM402 548l156 204.001
c16 19.333 29 30.333 39 33l32 -23c-12 -4.66699 -25.667 -16.334 -41 -35.001l-167 -220zM1090 89.001l-0.00195312 -88.999h-18c-66.667 0 -115.667 19.333 -147 58c-35.333 -38.667 -85.666 -58 -150.999 -58h-439c-86.667 0 -156.667 25.333 -210 76
c-49.333 46.667 -74.333 107.667 -75 183c-1.33301 76.667 23.667 138.667 75 186l58 -30c-32.667 -16 -56 -40 -70 -72c-10 -20.667 -15 -43.334 -15 -68.001c0 -7.33301 0.333008 -14.333 1 -21c8 -55.333 37.667 -98.333 89 -129c40 -23.333 85.667 -35.333 137 -36h443
c42 0 73.667 14.333 95 43c16 20.667 24 46 24 76c0 66.667 -19.333 117.667 -58 153c-29.333 27.333 -66 41.333 -110 42c-6 0.666992 -12 1 -18 1c-14.667 0 -29.667 -1.66699 -45 -5c-14 -2 -27.667 -5.33301 -41 -10c-38 -12.667 -74.333 -36.667 -109 -72l-28 63
l175 230c30.667 42 57.667 65.667 81 71l68 -52c-14 -5.33301 -26.167 -12.833 -36.5 -22.5s-24.833 -26.5 -43.5 -50.5l-86 -112c24.667 4 51.667 6 81 6c82.667 0 148.667 -27.333 198 -82c40.667 -45.333 61 -100 61 -164v-4v-29c0 -26 7.83301 -46.167 23.5 -60.5
s37.834 -21.5 66.501 -21.5h24z" />
    <glyph glyph-name="uniFB9C" unicode="&#x6b1;" horiz-adv-x="649" arabic-form="initial" 
d="M57 870c-14.667 0 -27.167 5.16699 -37.5 15.5s-15.5 22.5 -15.5 36.5c0 14.667 5.16699 27.167 15.5 37.5s22.833 15.5 37.5 15.5c14 0 26.167 -5.16699 36.5 -15.5s15.5 -22.833 15.5 -37.5c0 -14 -5.16699 -26.167 -15.5 -36.5s-22.5 -15.5 -36.5 -15.5zM197 870
c-14 0 -26.167 5.16699 -36.5 15.5s-15.5 22.5 -15.5 36.5c0 14.667 5.16699 27.167 15.5 37.5s22.5 15.5 36.5 15.5c14.667 0 27.167 -5.16699 37.5 -15.5s15.5 -22.833 15.5 -37.5c0 -14 -5.16699 -26.167 -15.5 -36.5s-22.833 -15.5 -37.5 -15.5zM29 548l156 204.001
c16 19.333 29 30.333 39 33l32 -23c-12 -4.66699 -25.667 -16.334 -41 -35.001l-167 -220zM343 450.001c82.667 0 148.334 -27.334 197.001 -82.001c40.667 -45.333 61 -100 61 -164c0 -61.333 -17.667 -110.666 -53 -147.999s-85 -56 -149 -56h-398l-1 89h394
c42 0 73.333 14.333 94 43c16 20.667 24 46 24 76c0 66.667 -19.333 117.667 -58 153c-29.333 27.333 -65.666 41.333 -108.999 42c-4.66699 0.666992 -10.334 1 -17.001 1c-11.333 0 -23.333 -1 -36 -3c-14.667 -2 -31.667 -6 -51 -12
c-38.667 -12.667 -75 -36.667 -109 -72l-28 63l171 230c30.667 42 57.667 65.667 81 71l68 -52c-14.667 -5.33301 -27.334 -13 -38.001 -23s-25 -26.667 -43 -50l-81 -112c24.667 4 51.667 6 81 6z" />
    <glyph glyph-name="uniFB9D" unicode="&#x6b1;" horiz-adv-x="697" arabic-form="medial" 
d="M56 870c-14 0 -26.167 5.16699 -36.5 15.5s-15.5 22.5 -15.5 36.5c0 14.667 5.16699 27.167 15.5 37.5s22.5 15.5 36.5 15.5c14.667 0 27.167 -5.16699 37.5 -15.5s15.5 -22.833 15.5 -37.5c0 -14 -5.16699 -26.167 -15.5 -36.5s-22.833 -15.5 -37.5 -15.5zM197 870
c-14 0 -26.167 5.16699 -36.5 15.5s-15.5 22.5 -15.5 36.5c0 14.667 5.16699 27.167 15.5 37.5s22.5 15.5 36.5 15.5c14.667 0 27.167 -5.16699 37.5 -15.5s15.5 -22.833 15.5 -37.5c0 -14 -5.16699 -26.167 -15.5 -36.5s-22.833 -15.5 -37.5 -15.5zM28 548l157 204.001
c16 19.333 29 30.333 39 33l32 -23c-12 -4.66699 -25.667 -16.334 -41 -35.001l-168 -220zM716 89.001v-89h-18c-66.667 0 -115.667 19.333 -147 58c-35.333 -38.667 -86 -58 -152 -58h-398l-1 89h394c42 0 73.667 14.333 95 43c16 20.667 24 46 24 76
c0 66.667 -19.333 117.667 -58 153c-29.333 27.333 -66 41.333 -110 42c-4.66699 0.666992 -10 1 -16 1c-12 0 -24 -1 -36 -3c-15.333 -2 -32.666 -6 -51.999 -12c-38.667 -12.667 -75 -36.667 -109 -72l-28 63l171 230c30.667 42 57.667 65.667 81 71l68 -52
c-14.667 -5.33301 -27.334 -13 -38.001 -23s-25 -26.667 -43 -50l-81 -112c24.667 4 51.667 6 81 6c82.667 0 148.667 -27.333 198 -82c40 -45.333 60 -100 60 -164v-4v-29c0 -26 8 -46.167 24 -60.5s38.333 -21.5 67 -21.5h24z" />
    <glyph glyph-name="uniFB9F" unicode="&#x6ba;" horiz-adv-x="735" arabic-form="final" 
d="M556 445l85.999 0.00195312c-8 -14 -13.333 -27.833 -16 -41.5s-4 -35.5 -4 -65.5v-167c0 -26 7.83301 -46.167 23.5 -60.5s37.834 -21.5 66.501 -21.5h42v-89h-34c-40 0 -73.333 7 -100 21c-2.66699 -69.333 -23 -128.666 -61 -177.999c-53.333 -70 -128 -105 -224 -105
c-93.333 0 -167 34 -221 102c-44 54.667 -66 119.667 -66 195c0 38 6.33301 73.333 19 106c14.667 33.333 33.334 59.666 56.001 78.999l56 -30c-31.333 -16 -54 -39.667 -68 -71c-10 -22.667 -15 -48.334 -15 -77.001v-9c2 -62 29 -113.667 81 -155
c44.667 -35.333 95.667 -53 153 -53c81.333 0 139.666 33 174.999 99c18.667 35.333 28 80.333 28 135v280c0 53.333 7.66699 88.666 23 105.999z" />
    <glyph glyph-name="uniFBA1" unicode="&#x6bb;" horiz-adv-x="735" arabic-form="final" 
d="M247 669l40.001 -0.000976562c-6.66699 -10 -10 -27 -10 -51v-63c22 31.333 51.667 47 89 47c24.667 0 45.667 -7.66699 63 -23c18 -16 27 -36.667 27 -62c0 -22 -6.5 -39.5 -19.5 -52.5s-30.167 -19.5 -51.5 -19.5h-143c-24.667 0 -42.334 -3.33301 -53.001 -10v40
c10 6.66699 26 10 48 10v134c0 22.667 3.33301 39.334 10 50.001zM363.001 579.999c-20 0 -38.5 -9.16699 -55.5 -27.5s-27.5 -40.833 -31.5 -67.5h105c10 0 18.167 3.33301 24.5 10s9.5 15 9.5 25c0 18 -4.83301 32.5 -14.5 43.5s-22.167 16.5 -37.5 16.5zM556.001 444.999
l85.999 0.00195312c-8 -14 -13.333 -27.833 -16 -41.5s-4 -35.5 -4 -65.5v-167c0 -26 7.83301 -46.167 23.5 -60.5s37.834 -21.5 66.501 -21.5h42v-89h-34c-40 0 -73.333 7 -100 21c-2.66699 -69.333 -23 -128.666 -61 -177.999c-53.333 -70 -128 -105 -224 -105
c-93.333 0 -167 34 -221 102c-44 54.667 -66 119.667 -66 195c0 38 6.33301 73.333 19 106c14.667 33.333 33.334 59.666 56.001 78.999l56 -30c-31.333 -16 -54 -39.667 -68 -71c-10 -22.667 -15 -48.334 -15 -77.001v-9c2 -62 29 -113.667 81 -155
c44.667 -35.333 95.667 -53 153 -53c81.333 0 139.666 33 174.999 99c18.667 35.333 28 80.333 28 135v280c0 53.333 7.66699 88.666 23 105.999z" />
    <glyph glyph-name="uniFBA5" unicode="&#x6c0;" horiz-adv-x="562" arabic-form="final" 
d="M293 557l-89.001 0.000976562c-22 0 -38 3 -48 9v40c9.33301 -6 24.666 -9 45.999 -9c-8.66699 10 -13 22.333 -13 37c0 22 7.83301 40 23.5 54s35.834 21 60.501 21c21.333 0 40 -5 56 -15l-8 -25c-13.333 12.667 -27.666 19 -42.999 19c-14 0 -25.667 -4.66699 -35 -14
s-14 -21 -14 -35c0 -12.667 4.66699 -22.834 14 -30.501s21 -11.5 35 -11.5h16c24 0 41.333 -3.33301 52 -10v-40c-11.333 6.66699 -29 10 -53 10zM581.999 89.001l0.000976562 -89h-35c-60 0 -105.333 15 -136 45c-32.667 -38.667 -82.334 -58 -149.001 -58
c-65.333 0 -118 23 -158 69c-38 40.667 -57 95.667 -57 165c0 70 23 127.333 69 172c40 38 87.667 57 143 57c44 0 80.667 -11.667 110 -35c2.66699 11.333 7 21.333 13 30h86c-8 -14 -13.333 -28.167 -16 -42.5s-4 -35.833 -4 -64.5v-166v-1c0 -26 8 -46.167 24 -60.5
s38.333 -21.5 67 -21.5h43zM360 158.001l-0.000976562 164.999c0 21.333 -9 40.333 -27 57c-17.333 15.333 -38.666 23 -63.999 23c-40.667 0 -73.667 -17.667 -99 -53c-22.667 -31.333 -34 -70.666 -34 -117.999c0 -51.333 13.333 -91 40 -119
c23.333 -24.667 54.333 -37 93 -37c28.667 0 51 7.33301 67 22c16 14 24 34 24 60z" />
    <glyph glyph-name="uniFBA7" unicode="&#x6c1;" horiz-adv-x="562" arabic-form="final" 
d="M582 89l0.000976562 -89h-35c-60 0 -105.333 15 -136 45c-32.667 -38.667 -82.334 -58 -149.001 -58c-65.333 0 -118 23 -158 69c-38 40.667 -57 95.667 -57 165c0 70 23 127.333 69 172c40 38 87.667 57 143 57c44 0 80.667 -11.667 110 -35
c2.66699 11.333 7 21.333 13 30h86c-8 -14 -13.333 -28.167 -16 -42.5s-4 -35.833 -4 -64.5v-166v-1c0 -26 8 -46.167 24 -60.5s38.333 -21.5 67 -21.5h43zM360.001 158l-0.000976562 164.999c0 21.333 -9 40.333 -27 57c-17.333 15.333 -38.666 23 -63.999 23
c-40.667 0 -73.667 -17.667 -99 -53c-22.667 -31.333 -34 -70.666 -34 -117.999c0 -51.333 13.333 -91 40 -119c23.333 -24.667 54.333 -37 93 -37c28.667 0 51 7.33301 67 22c16 14 24 34 24 60z" />
    <glyph glyph-name="uniFBA8" unicode="&#x6c1;" horiz-adv-x="298" arabic-form="initial" 
d="M164 445l86.002 0.00292969c-8 -14 -13.333 -28.167 -16 -42.5s-4 -35.833 -4 -64.5v-154c0 -88 -33.333 -144.667 -100 -170c-14.667 -12 -31.667 -28 -51 -48s-31.666 -34.333 -36.999 -43c-10 -16.667 -15 -29.334 -15 -38.001c0 -10 4.33301 -15 13 -15l23 4
c14 0 26 -4.66699 36 -14s15 -21 15 -35c0 -12.667 -4.83301 -24 -14.5 -34s-20.834 -15 -33.501 -15c-16.667 0 -31.334 5 -44.001 15c-19.333 15.333 -29 39.666 -29 72.999c0 21.333 8.66699 44.666 26 69.999c15.333 23.333 37.333 46.333 66 69
c-12.667 -2 -26.334 -3 -41.001 -3h-44v89h51c28 0 50 7.33301 66 22c16 14 24 34 24 60v168c0 52 7.66699 87.333 23 106z" />
    <glyph glyph-name="uniFBA9" unicode="&#x6c1;" horiz-adv-x="497" arabic-form="medial" 
d="M516 0h-26.9971c-24 0 -41.833 -6 -53.5 -18s-23.5 -37 -35.5 -75c-6 -21.333 -15.333 -48 -28 -80c-23.333 -59.333 -63.666 -89 -120.999 -89c-48 0 -87 18 -117 54c-35.333 41.333 -53.333 103.333 -54 186c0 2 0.666992 14.333 2 37c-16.667 -10 -44 -15 -82 -15
l1 89h55c37.333 0 69 7 95 21c-8.66699 -17.333 -14.334 -45.333 -17.001 -84v-21c0 -38 5.33301 -71.333 16 -100c10 -24 23.167 -43.167 39.5 -57.5s33.166 -21.5 50.499 -21.5c22.667 0 40.667 12.333 54 37c5.33301 10.667 18.666 45 39.999 103
c16.667 46 34 76.667 52 92c23.333 20.667 56.666 31 99.999 31h30v-89z" />
    <glyph glyph-name="uniFBAB" unicode="&#x6be;" horiz-adv-x="826" arabic-form="final" 
d="M845 89l-0.00488281 -89h-18c-67.333 -0 -116.333 19.333 -147 58c-35.333 -38.667 -85.666 -58 -150.999 -58h-108h-49c-39.333 -0 -69.666 6.33301 -90.999 19c-21.333 -12.667 -51.666 -19 -90.999 -19h-49c-27.333 0 -47.666 -1.33301 -60.999 -4s-27.333 -8 -42 -16
v86c17.333 15.333 51 23 101 23h30c-26 28.667 -39 63.667 -39 105c0 36 12.333 68.333 37 97c22 26.667 49.667 43.667 83 51l-14 32c33.333 27.333 73 48 119 62c22.667 6.66699 47 11 73 13c11.333 0.666992 29 1 53 1c80 -2 143.667 -30.333 191 -85
c39.333 -45.333 59 -99 59 -161v-4v-29c0 -26 7.83301 -46.167 23.5 -60.5s37.834 -21.5 66.501 -21.5h24zM393.995 89h129.001c42 0 73.667 14.333 95 43c16 20.667 24 46 24 76c0 66.667 -19 117.667 -57 153c-30 27.333 -67 41.333 -111 42c-4 0.666992 -9.33301 1 -16 1
c-10.667 0 -22 -1 -34 -3c-16 -2 -33.667 -6 -53 -12c-28 -9.33301 -54.667 -24.333 -80 -45c45.333 -2 81.666 -20.667 108.999 -56c22 -28.667 33 -60 33 -94c0 -42 -13 -77 -39 -105zM281.996 94c22 6.66699 39.833 19.833 53.5 39.5s20.5 41.834 20.5 66.501
c0 30 -7.33301 55 -22 75c-14 18 -31.333 27 -52 27c-21.333 0 -39 -9.66699 -53 -29s-21 -43.666 -21 -72.999c0 -24.667 6.83301 -46.834 20.5 -66.501s31.5 -32.834 53.5 -39.501z" />
    <glyph glyph-name="uniFBAC" unicode="&#x6be;" horiz-adv-x="763" arabic-form="initial" 
d="M465 449c80 -2 143.666 -30.333 190.999 -85c39.333 -45.333 59 -99 59 -161c0 -61.333 -17.667 -110.333 -53 -147c-36 -37.333 -85.667 -56 -149 -56h-108l-50 -1c-39.333 0 -69.333 6.66699 -90 20c-21.333 -13.333 -74 -20 -158 -20l-107 1v88h153
c-26 28 -39 63 -39 105c0 36 12 68.333 36 97c22.667 26.667 50.667 43.667 84 51l-14 32c34 28 73.333 48.667 118 62c22.667 6.66699 47.334 11 74.001 13c11.333 0.666992 29 1 53 1zM377.999 88h129c42 0 73.667 14.333 95 43c16 20.667 24 46 24 76
c0 66.667 -19.333 117.667 -58 153c-29.333 27.333 -66 41.333 -110 42c-4 0.666992 -9.33301 1 -16 1c-11.333 0 -23 -1 -35 -3c-16 -2 -33.667 -6 -53 -12c-27.333 -9.33301 -53.666 -24.333 -78.999 -45c45.333 -2 81.666 -20.667 108.999 -56c22 -28.667 33 -60 33 -94
c0 -41.333 -13 -76.333 -39 -105zM264.999 93c22 6.66699 39.833 19.833 53.5 39.5s20.5 41.834 20.5 66.501c0 30 -7.33301 55 -22 75c-14 18 -31.333 27 -52 27c-21.333 0 -39 -9.66699 -53 -29s-21 -43.666 -21 -72.999c0 -24.667 6.83301 -46.834 20.5 -66.501
s31.5 -32.834 53.5 -39.501z" />
    <glyph glyph-name="uniFBAD" unicode="&#x6be;" horiz-adv-x="810" arabic-form="medial" 
d="M829 88l-0.00195312 -88h-18c-67.333 -0 -116.333 19.333 -147 58c-35.333 -38.667 -85.666 -58 -150.999 -58h-108l-50 -1c-39.333 0 -69.333 6.66699 -90 20c-21.333 -13.333 -74.333 -20 -159 -20l-106 1v88h153c-26 28 -39 63 -39 105c0 36 12 68.333 36 97
c22.667 26.667 50.667 43.667 84 51l-14 32c33.333 28 72.666 48.667 117.999 62c22.667 6.66699 47.334 11 74.001 13c11.333 0.666992 29 1 53 1c80 -2 143.667 -30.333 191 -85c39.333 -45.333 59 -99 59 -161v-4v-29c0 -26 7.83301 -46.167 23.5 -60.5
s37.834 -21.5 66.501 -21.5h24zM377.998 88h129c42 0 73.667 14.333 95 43c16 20.667 24 46 24 76c0 66.667 -19.333 117.667 -58 153c-29.333 27.333 -66 41.333 -110 42c-4 0.666992 -9.33301 1 -16 1c-11.333 0 -23 -1 -35 -3c-16 -2 -33.667 -6 -53 -12
c-27.333 -9.33301 -53.666 -24.333 -78.999 -45c45.333 -2 81.666 -20.667 108.999 -56c22 -28.667 33 -60 33 -94c0 -41.333 -13 -76.333 -39 -105zM264.998 93c22 6.66699 39.833 19.833 53.5 39.5s20.5 41.834 20.5 66.501c0 30 -7.33301 55 -22 75
c-14 18 -31.333 27 -52 27c-21.333 0 -39 -9.66699 -53 -29s-21 -43.666 -21 -72.999c0 -24.667 6.83301 -46.834 20.5 -66.501s31.5 -32.834 53.5 -39.501z" />
    <glyph glyph-name="uniFBAF" unicode="&#x6d2;" horiz-adv-x="864" arabic-form="final" 
d="M884 0h-571.003c-55.333 -0 -100.666 -11.667 -135.999 -35c-22 -14.667 -39.333 -32.5 -52 -53.5s-19 -42.167 -19 -63.5c0 -10 5 -15 15 -15h540c54 0 89.667 -7.33301 107 -22v-86c-14 8 -28.167 13.333 -42.5 16s-36.166 4 -65.499 4l-533 1
c-24 0 -43.167 7 -57.5 21s-21.5 32.333 -21.5 55c0 88 31 157 93 207c50.667 40 113.334 60 188.001 60h555v-89z" />
    <glyph glyph-name="uniFBB1" unicode="&#x6d3;" horiz-adv-x="864" arabic-form="final" 
d="M380 354c22 0 40.665 -5.33301 55.998 -16l-8 -25c-13.333 12.667 -27.666 19 -42.999 19c-14 0 -25.667 -4.66699 -35 -14s-14 -21 -14 -35c0 -12 4.66699 -22 14 -30s21 -12 35 -12h16c24 0 41.333 -3.33301 52 -10v-40c-11.333 6.66699 -28.666 10 -51.999 10h-90
c-22.667 0 -38.667 3.33301 -48 10v40c9.33301 -6.66699 24.666 -10 45.999 -10c-8.66699 10 -13 22.333 -13 37c0 22.667 7.83301 41 23.5 55s35.834 21 60.501 21zM883.998 0h-571.003c-55.333 -0 -100.666 -11.667 -135.999 -35c-22 -14.667 -39.333 -32.5 -52 -53.5
s-19 -42.167 -19 -63.5c0 -10 5 -15 15 -15h540c54 0 89.667 -7.33301 107 -22v-86c-14 8 -28.167 13.333 -42.5 16s-36.166 4 -65.499 4l-533 1c-24 0 -43.167 7 -57.5 21s-21.5 32.333 -21.5 55c0 88 31 157 93 207c50.667 40 113.334 60 188.001 60h555v-89z" />
    <glyph glyph-name="uniFE82" unicode="&#x622;" horiz-adv-x="274" arabic-form="final" 
d="M59 812c-14 0 -30.332 -5 -48.999 -15l-10 15c29.333 24.667 53 37.667 71 39h4c10 0 26 -4.33301 48 -13c28.667 -12 52 -17.667 70 -17c14.667 0.666992 31 6 49 16l10 -15c-28.667 -24.667 -52.667 -38 -72 -40h-5c-10.667 0 -27.334 4.66699 -50.001 14
c-28 10.667 -50 16 -66 16zM94.001 681h86c-8 -14 -13.333 -27.833 -16 -41.5s-4 -35.5 -4 -65.5v-403c0 -26 8 -46.167 24 -60.5s38.333 -21.5 67 -21.5h42v-89h-34c-72 0 -123.667 21.667 -155 65c-22 30.667 -33 70.334 -33 119.001v391
c0 53.333 7.66699 88.666 23 105.999z" />
    <glyph glyph-name="uniFE84" unicode="&#x623;" horiz-adv-x="274" arabic-form="final" 
d="M146 941c22 0 40.666 -5.33301 55.999 -16l-8 -25c-13.333 13.333 -27.666 20 -42.999 20c-14 0 -25.667 -4.66699 -35 -14s-14 -21 -14 -35c0 -12.667 4.66699 -23 14 -31s21 -12 35 -12h16c25.333 0 42.666 -3.33301 51.999 -10v-40c-10 6.66699 -27.333 10 -52 10h-90
c-21.333 0 -37.333 3 -48 9v41c10.667 -6.66699 26 -10 46 -10c-8.66699 11.333 -13 24 -13 38c0 22 7.83301 40 23.5 54s35.834 21 60.501 21zM94.999 681h85.998c-8 -14 -13.333 -27.833 -16 -41.5s-4 -35.5 -4 -65.5v-403c0 -26 7.83301 -46.167 23.5 -60.5
s37.834 -21.5 66.501 -21.5h42v-89h-34c-71.333 0 -122.666 21.667 -153.999 65c-22 30.667 -33 70.334 -33 119.001v391c0 53.333 7.66699 88.666 23 105.999z" />
    <glyph glyph-name="uniFE86" unicode="&#x624;" horiz-adv-x="562" arabic-form="final" 
d="M314 557l-90.002 0.000976562c-22 0 -38 3 -48 9v40c9.33301 -6 24.666 -9 45.999 -9c-8.66699 10 -13 22.333 -13 37c0 22 7.83301 40 23.5 54s35.834 21 60.501 21c21.333 0 40 -5 56 -15l-8 -25c-13.333 12.667 -27.666 19 -42.999 19c-14 0 -25.667 -4.66699 -35 -14
s-14 -21 -14 -35c0 -12.667 4.66699 -22.834 14 -30.501s21 -11.5 35 -11.5h16c24 0 41.333 -3.33301 52 -10v-40c-11.333 6.66699 -28.666 10 -51.999 10zM581.998 0.000976562l-134.001 -0.000976562v-16c0 -41.333 -1.33301 -71.666 -4 -90.999s-7.66699 -37 -15 -53
c-32.667 -68.667 -93.334 -102.667 -182.001 -102c-56.667 0 -109 16.333 -157 49l27 59c15.333 -20 34.333 -35.5 57 -46.5s46.334 -16.5 71.001 -16.5c40.667 -0.666992 72.334 17 95.001 53c7.33301 12 12.333 26.333 15 43s4 41.334 4 74.001v47h-83
c-70.667 0 -127.667 22.667 -171 68c-38.667 40.667 -58 92.667 -58 156c0 71.333 25 127.666 75 168.999c41.333 34.667 92 52 152 52h194c-8 -14 -13.333 -28.167 -16 -42.5s-4 -35.833 -4 -64.5v-249h134v-89zM358.997 89l-0.000976562 249c0 22.667 1.66699 43 5 61h-73
c-54.667 -0.666992 -95.667 -18.667 -123 -54c-22 -28.667 -33 -66.667 -33 -114c0 -44 13.333 -79 40 -105c24.667 -24.667 57.334 -37 98.001 -37h86z" />
    <glyph glyph-name="uniFE88" unicode="&#x625;" horiz-adv-x="274" arabic-form="final" 
d="M95 681h85.998c-8 -14 -13.333 -27.833 -16 -41.5s-4 -35.5 -4 -65.5v-403c0 -26 7.83301 -46.167 23.5 -60.5s37.834 -21.5 66.501 -21.5h42v-89h-34c-71.333 0 -122.666 21.667 -153.999 65c-22 30.667 -33 70.334 -33 119.001v391c0 53.333 7.66699 88.666 23 105.999
zM124.998 -108c22 0 40.666 -5.33301 55.999 -16l-8 -25c-13.333 13.333 -27.666 20 -42.999 20c-14 0 -25.667 -4.66699 -35 -14s-14 -21 -14 -35c0 -12.667 4.66699 -23 14 -31s21 -12 35 -12h16c25.333 0 42.666 -3.33301 51.999 -10v-40c-10 6.66699 -27.333 10 -52 10
h-90c-21.333 0 -37.333 3.33301 -48 10v40c10.667 -6.66699 26 -10 46 -10c-8.66699 11.333 -13 24 -13 38c0 22 7.83301 40 23.5 54s35.834 21 60.501 21z" />
    <glyph glyph-name="uniFE89" unicode="&#x626;" horiz-adv-x="717" arabic-form="isolated" 
d="M131 481c22 0 40.665 -5.33301 55.998 -16l-8 -25c-14 13.333 -28.333 20 -43 20c-14 0 -25.667 -4.66699 -35 -14s-14 -21 -14 -35c0 -12.667 4.66699 -23 14 -31s21 -12 35 -12h16c24 0 41.333 -3 52 -9v-41c-11.333 6.66699 -28.666 10 -51.999 10h-90
c-21.333 0 -37.333 3.33301 -48 10v40c10 -6.66699 25.333 -10 46 -10c-8.66699 10 -13 22.667 -13 38c0 22 7.83301 40 23.5 54s35.834 21 60.501 21zM493.998 450c27.333 0 52.9971 -3.00098 76.9971 -9.00098c30.667 -9.33301 58 -21.666 82 -36.999l-26 -60
c-34 40.667 -77 60.334 -129 59.001c-43.333 -0.666992 -78.333 -19 -105 -55c-24 -31.333 -35.667 -70 -35 -116c0 -44 13.333 -79.333 40 -106c24.667 -24.667 57.334 -37 98.001 -37h173v-48c0 -105.333 -37.333 -185.666 -112 -240.999
c-55.333 -41.333 -121.333 -62 -198 -62c-51.333 0 -99.666 10.333 -144.999 31c-49.333 22.667 -88.333 55 -117 97c-32 47.333 -48.333 103.666 -49 168.999c0 38 6.33301 73.333 19 106c14.667 33.333 33 60 55 80l56 -31c-30 -15.333 -52.333 -39 -67 -71
c-9.33301 -22.667 -14 -48.334 -14 -77.001v-9c2.66699 -59.333 29.334 -109 80.001 -149c48 -39.333 108 -59 180 -59c64 0 116.667 18.667 158 56c35.333 32 56 71.667 62 119h-79c-70.667 0 -127.667 22.667 -171 68c-38.667 40.667 -58 93 -58 157
c0 72 25.333 129.333 76 172c41.333 35.333 91 53 149 53z" />
    <glyph glyph-name="uniFE8A" unicode="&#x626;" horiz-adv-x="629" arabic-form="final" 
d="M183 328h-90.002c-21.333 0 -37.333 3.33301 -48 10v40c10 -6.66699 25.333 -10 46 -10c-8.66699 10 -13 22.667 -13 38c0 22 7.83301 40 23.5 54s35.834 21 60.501 21c22 0 40.667 -5.33301 56 -16l-8 -25c-14 13.333 -28.333 20 -43 20c-14 0 -25.667 -4.66699 -35 -14
s-14 -21 -14 -35c0 -12.667 4.66699 -23 14 -31s21 -12 35 -12h16c24 0 41.333 -3 52 -9v-41c-11.333 6.66699 -28.666 10 -51.999 10zM666.998 89l-1.00195 -88.998c-8.66699 -90.667 -49 -160 -121 -208c-54 -36 -116.333 -54 -187 -54
c-51.333 0 -99.666 10.333 -144.999 31c-49.333 22.667 -88.333 55 -117 97c-32 47.333 -48.333 103.666 -49 168.999c0 38 6.33301 73.333 19 106c14.667 33.333 33.334 60 56.001 80l56 -31c-30.667 -15.333 -53.334 -39 -68.001 -71c-10 -22.667 -15 -48.334 -15 -77.001
v-9c2.66699 -59.333 29.334 -109 80.001 -149c48.667 -39.333 109 -59 181 -59c64 0 117 18.667 159 56c35.333 32 55.666 71.667 60.999 119h-88c-53.333 0 -88.666 7.66699 -105.999 23v86c14 -8 28.167 -13.333 42.5 -16s35.833 -4 64.5 -4h178z" />
    <glyph glyph-name="uniFE8B" unicode="&#x626;" horiz-adv-x="298" arabic-form="initial" 
d="M179 709c21.333 0 39.998 -4.99902 55.998 -14.999l-8 -25c-13.333 12.667 -27.666 19 -42.999 19c-14 0 -25.667 -4.66699 -35 -14s-14 -21 -14 -35c0 -12.667 4.66699 -22.834 14 -30.501s21 -11.5 35 -11.5h16c24 0 41.333 -3.33301 52 -10v-40
c-11.333 6.66699 -28.666 10 -51.999 10h-90c-22 0 -38 3 -48 9v40c9.33301 -6 24.666 -9 45.999 -9c-8.66699 10 -13 22.333 -13 37c0 22 7.83301 40 23.5 54s35.834 21 60.501 21zM164.998 445.001l86 -0.000976562c-8 -14 -13.333 -28.167 -16 -42.5s-4 -35.833 -4 -64.5
v-154c0 -57.333 -14.667 -101.666 -44 -132.999c-32 -34 -79.667 -51 -143 -51h-44v89h51c28.667 0 51 7.33301 67 22c16 14 24 34 24 60v168c0 52 7.66699 87.333 23 106z" />
    <glyph glyph-name="uniFE8C" unicode="&#x626;" horiz-adv-x="345" arabic-form="medial" 
d="M200 557l-90.002 0.000976562c-22 0 -38 3 -48 9v40c9.33301 -6 24.666 -9 45.999 -9c-8.66699 10 -13 22.333 -13 37c0 22 7.83301 40 23.5 54s35.834 21 60.501 21c21.333 0 40 -5 56 -15l-8 -25c-13.333 12.667 -27.666 19 -42.999 19c-14 0 -25.667 -4.66699 -35 -14
s-14 -21 -14 -35c0 -12.667 4.66699 -22.834 14 -30.501s21 -11.5 35 -11.5h16c24 0 41.333 -3.33301 52 -10v-40c-11.333 6.66699 -28.666 10 -51.999 10zM362.998 89.001l-0.000976562 -89h-34c-63.333 0 -110.666 17 -141.999 51c-32.667 -34 -80.334 -51 -143.001 -51
h-44v89h51c28.667 0 51 7.33301 67 22c16 14 24 34 24 60v168c0 52 7.66699 87.333 23 106h86c-8 -14 -13.333 -28.167 -16 -42.5s-4 -35.833 -4 -64.5v-154v-6v-7c0 -26 7.83301 -46.167 23.5 -60.5s37.834 -21.5 66.501 -21.5h42z" />
    <glyph glyph-name="uniFE8E" unicode="&#x627;" horiz-adv-x="274" arabic-form="final" 
d="M94 681h85.998c-8 -14 -13.333 -27.833 -16 -41.5s-4 -35.5 -4 -65.5v-403c0 -26 7.83301 -46.167 23.5 -60.5s37.834 -21.5 66.501 -21.5h42v-89h-34c-71.333 0 -122.666 21.667 -153.999 65c-22 30.667 -33 70.334 -33 119.001v391c0 53.333 7.66699 88.666 23 105.999
z" />
    <glyph glyph-name="uniFE90" unicode="&#x628;" horiz-adv-x="1087" arabic-form="final" 
d="M1109 89v-88h-34c-64 0 -111.667 16.667 -143 50c-31.333 -34 -79 -51 -143 -51h-454c-87.333 -0 -158 25.333 -212 76c-49.333 46.667 -74.333 107.334 -75 182.001c-1.33301 77.333 23.667 139.666 75 186.999l58 -31c-32.667 -16 -56 -39.667 -70 -71
c-10 -21.333 -15 -44.333 -15 -69c0 -7.33301 0.333008 -14.333 1 -21c8 -55.333 37.667 -98 89 -128c40 -23.333 85.667 -35.333 137 -36h473c28.667 0 51 7 67 21s24 34 24 60v169c0 52.667 7.66699 88 23 106h86c-8 -14 -13.333 -28.167 -16 -42.5s-4 -35.833 -4 -64.5
v-155v-2v-10c0 -26 8 -46.167 24 -60.5s38.333 -21.5 67 -21.5h42zM538 -119c14.667 0 27.167 -5.16699 37.5 -15.5s15.5 -22.5 15.5 -36.5c0 -14.667 -5.16699 -27.167 -15.5 -37.5s-22.833 -15.5 -37.5 -15.5c-14 0 -26.167 5.16699 -36.5 15.5s-15.5 22.833 -15.5 37.5
c0 14 5.16699 26.167 15.5 36.5s22.5 15.5 36.5 15.5z" />
    <glyph glyph-name="uniFE91" unicode="&#x628;" horiz-adv-x="298" arabic-form="initial" 
d="M165 445l86 -0.000976562c-8 -14 -13.333 -28.167 -16 -42.5s-4 -35.833 -4 -64.5v-154c0 -57.333 -14.667 -101.666 -44 -132.999c-32 -34 -79.667 -51 -143 -51h-44v89h51c28.667 0 51 7.33301 67 22c16 14 24 34 24 60v168c0 52 7.66699 87.333 23 106zM162 -224.001
c-14 0 -26.167 5.16699 -36.5 15.5s-15.5 22.833 -15.5 37.5c0 14 5.16699 26.167 15.5 36.5s22.5 15.5 36.5 15.5c14.667 0 27.167 -5.16699 37.5 -15.5s15.5 -22.5 15.5 -36.5c0 -14.667 -5.16699 -27.167 -15.5 -37.5s-22.833 -15.5 -37.5 -15.5z" />
    <glyph glyph-name="uniFE92" unicode="&#x628;" horiz-adv-x="345" arabic-form="medial" 
d="M363 89l-0.000976562 -89h-34c-63.333 0 -110.666 17 -141.999 51c-32.667 -34 -80.334 -51 -143.001 -51h-44v89h51c28.667 0 51 7.33301 67 22c16 14 24 34 24 60v168c0 52 7.66699 87.333 23 106h86c-8 -14 -13.333 -28.167 -16 -42.5s-4 -35.833 -4 -64.5v-154v-6v-7
c0 -26 7.83301 -46.167 23.5 -60.5s37.834 -21.5 66.501 -21.5h42zM185.999 -119c14.667 0 27.167 -5.16699 37.5 -15.5s15.5 -22.5 15.5 -36.5c0 -14.667 -5.16699 -27.167 -15.5 -37.5s-22.833 -15.5 -37.5 -15.5c-14 0 -26.167 5.16699 -36.5 15.5
s-15.5 22.833 -15.5 37.5c0 14 5.16699 26.167 15.5 36.5s22.5 15.5 36.5 15.5z" />
    <glyph glyph-name="uniFE94" unicode="&#x629;" horiz-adv-x="562" arabic-form="final" 
d="M201 557c-14.667 0 -27.167 5.16699 -37.5 15.5s-15.5 22.833 -15.5 37.5c0 14 5.16699 26.167 15.5 36.5s22.833 15.5 37.5 15.5c14 0 26.167 -5.16699 36.5 -15.5s15.5 -22.5 15.5 -36.5c0 -14.667 -5.16699 -27.167 -15.5 -37.5s-22.5 -15.5 -36.5 -15.5zM341 557
c-14 0 -26.167 5.16699 -36.5 15.5s-15.5 22.833 -15.5 37.5c0 14 5.16699 26.167 15.5 36.5s22.5 15.5 36.5 15.5c14.667 0 27.167 -5.16699 37.5 -15.5s15.5 -22.5 15.5 -36.5c0 -14.667 -5.16699 -27.167 -15.5 -37.5s-22.833 -15.5 -37.5 -15.5zM582 89l0.000976562 -89
h-35c-60 0 -105.333 15 -136 45c-32.667 -38.667 -82.334 -58 -149.001 -58c-65.333 0 -118 23 -158 69c-38 40.667 -57 95.667 -57 165c0 70 23 127.333 69 172c40 38 87.667 57 143 57c44 0 80.667 -11.667 110 -35c2.66699 11.333 7 21.333 13 30h86
c-8 -14 -13.333 -28.167 -16 -42.5s-4 -35.833 -4 -64.5v-166v-1c0 -26 8 -46.167 24 -60.5s38.333 -21.5 67 -21.5h43zM360.001 158l-0.000976562 164.999c0 21.333 -9 40.333 -27 57c-17.333 15.333 -38.666 23 -63.999 23c-40.667 0 -73.667 -17.667 -99 -53
c-22.667 -31.333 -34 -70.666 -34 -117.999c0 -51.333 13.333 -91 40 -119c23.333 -24.667 54.333 -37 93 -37c28.667 0 51 7.33301 67 22c16 14 24 34 24 60z" />
    <glyph glyph-name="uniFE96" unicode="&#x62a;" horiz-adv-x="1088" arabic-form="final" 
d="M460 393c-14 0 -26.167 5.16699 -36.5 15.5s-15.5 22.833 -15.5 37.5c0 14 5.16699 26.167 15.5 36.5s22.5 15.5 36.5 15.5c14.667 0 27.167 -5.16699 37.5 -15.5s15.5 -22.5 15.5 -36.5c0 -14.667 -5.16699 -27.167 -15.5 -37.5s-22.833 -15.5 -37.5 -15.5zM601 393
c-14 0 -26.167 5.16699 -36.5 15.5s-15.5 22.833 -15.5 37.5c0 14 5.16699 26.167 15.5 36.5s22.5 15.5 36.5 15.5c14.667 0 27.167 -5.16699 37.5 -15.5s15.5 -22.5 15.5 -36.5c0 -14.667 -5.16699 -27.167 -15.5 -37.5s-22.833 -15.5 -37.5 -15.5zM1109 89v-88h-34
c-64 0 -111.667 16.667 -143 50c-31.333 -34 -79 -51 -143 -51h-454c-87.333 -0 -158 25.333 -212 76c-49.333 46.667 -74.333 107.334 -75 182.001c-1.33301 77.333 23.667 139.666 75 186.999l58 -31c-32.667 -16 -56 -39.667 -70 -71c-10 -21.333 -15 -44.333 -15 -69
c0 -7.33301 0.333008 -14.333 1 -21c8 -55.333 37.667 -98 89 -128c40 -23.333 85.667 -35.333 137 -36h473c28.667 0 51 7 67 21s24 34 24 60v169c0 52.667 7.66699 88 23 106h86c-8 -14 -13.333 -28.167 -16 -42.5s-4 -35.833 -4 -64.5v-155v-2v-10
c0 -26 8 -46.167 24 -60.5s38.333 -21.5 67 -21.5h42z" />
    <glyph glyph-name="uniFE97" unicode="&#x62a;" horiz-adv-x="298" arabic-form="initial" 
d="M62 554c-14.667 0 -27.167 5.16699 -37.5 15.5s-15.5 22.833 -15.5 37.5c0 14 5.16699 26.167 15.5 36.5s22.833 15.5 37.5 15.5c14 0 26.167 -5.16699 36.5 -15.5s15.5 -22.5 15.5 -36.5c0 -14.667 -5.16699 -27.167 -15.5 -37.5s-22.5 -15.5 -36.5 -15.5zM203 554
c-14.667 0 -27.167 5.16699 -37.5 15.5s-15.5 22.833 -15.5 37.5c0 14 5.16699 26.167 15.5 36.5s22.833 15.5 37.5 15.5c14 0 26.167 -5.16699 36.5 -15.5s15.5 -22.5 15.5 -36.5c0 -14.667 -5.16699 -27.167 -15.5 -37.5s-22.5 -15.5 -36.5 -15.5zM165 445
l86 -0.000976562c-8 -14 -13.333 -28.167 -16 -42.5s-4 -35.833 -4 -64.5v-154c0 -57.333 -14.667 -101.666 -44 -132.999c-32 -34 -79.667 -51 -143 -51h-44v89h51c28.667 0 51 7.33301 67 22c16 14 24 34 24 60v168c0 52 7.66699 87.333 23 106z" />
    <glyph glyph-name="uniFE98" unicode="&#x62a;" horiz-adv-x="345" arabic-form="medial" 
d="M62 554c-14.667 0 -27.167 5.16699 -37.5 15.5s-15.5 22.833 -15.5 37.5c0 14 5.16699 26.167 15.5 36.5s22.833 15.5 37.5 15.5c14 0 26.167 -5.16699 36.5 -15.5s15.5 -22.5 15.5 -36.5c0 -14.667 -5.16699 -27.167 -15.5 -37.5s-22.5 -15.5 -36.5 -15.5zM203 554
c-14.667 0 -27.167 5.16699 -37.5 15.5s-15.5 22.833 -15.5 37.5c0 14 5.16699 26.167 15.5 36.5s22.833 15.5 37.5 15.5c14 0 26.167 -5.16699 36.5 -15.5s15.5 -22.5 15.5 -36.5c0 -14.667 -5.16699 -27.167 -15.5 -37.5s-22.5 -15.5 -36.5 -15.5zM363 89
l-0.000976562 -89h-34c-63.333 0 -110.666 17 -141.999 51c-32.667 -34 -80.334 -51 -143.001 -51h-44v89h51c28.667 0 51 7.33301 67 22c16 14 24 34 24 60v168c0 52 7.66699 87.333 23 106h86c-8 -14 -13.333 -28.167 -16 -42.5s-4 -35.833 -4 -64.5v-154v-6v-7
c0 -26 7.83301 -46.167 23.5 -60.5s37.834 -21.5 66.501 -21.5h42z" />
    <glyph glyph-name="uniFE9A" unicode="&#x62b;" horiz-adv-x="1088" arabic-form="final" 
d="M531 509c-14 0 -26.167 5.16699 -36.5 15.5s-15.5 22.833 -15.5 37.5c0 14 5.16699 26.167 15.5 36.5s22.5 15.5 36.5 15.5c14.667 0 27.167 -5.16699 37.5 -15.5s15.5 -22.5 15.5 -36.5c0 -14.667 -5.16699 -27.167 -15.5 -37.5s-22.833 -15.5 -37.5 -15.5zM460 393
c-14 0 -26.167 5.16699 -36.5 15.5s-15.5 22.833 -15.5 37.5c0 14 5.16699 26.167 15.5 36.5s22.5 15.5 36.5 15.5c14.667 0 27.167 -5.16699 37.5 -15.5s15.5 -22.5 15.5 -36.5c0 -14.667 -5.16699 -27.167 -15.5 -37.5s-22.833 -15.5 -37.5 -15.5zM549 446
c0 14 5.16699 26.167 15.5 36.5s22.5 15.5 36.5 15.5c14.667 0 27.167 -5.16699 37.5 -15.5s15.5 -22.5 15.5 -36.5c0 -14.667 -5.16699 -27.167 -15.5 -37.5s-22.833 -15.5 -37.5 -15.5c-14 0 -26.167 5.16699 -36.5 15.5s-15.5 22.833 -15.5 37.5zM1109 89v-88h-34
c-64 0 -111.667 16.667 -143 50c-31.333 -34 -79 -51 -143 -51h-454c-87.333 -0 -158 25.333 -212 76c-49.333 46.667 -74.333 107.334 -75 182.001c-1.33301 77.333 23.667 139.666 75 186.999l58 -31c-32.667 -16 -56 -39.667 -70 -71c-10 -21.333 -15 -44.333 -15 -69
c0 -7.33301 0.333008 -14.333 1 -21c8 -55.333 37.667 -98 89 -128c40 -23.333 85.667 -35.333 137 -36h473c28.667 0 51 7 67 21s24 34 24 60v169c0 52.667 7.66699 88 23 106h86c-8 -14 -13.333 -28.167 -16 -42.5s-4 -35.833 -4 -64.5v-155v-2v-10
c0 -26 8 -46.167 24 -60.5s38.333 -21.5 67 -21.5h42z" />
    <glyph glyph-name="uniFE9B" unicode="&#x62b;" horiz-adv-x="298" arabic-form="initial" 
d="M132 670c-14.667 0 -27.167 5.16699 -37.5 15.5s-15.5 22.833 -15.5 37.5c0 14 5.16699 26.167 15.5 36.5s22.833 15.5 37.5 15.5c14 0 26.167 -5.16699 36.5 -15.5s15.5 -22.5 15.5 -36.5c0 -14.667 -5.16699 -27.167 -15.5 -37.5s-22.5 -15.5 -36.5 -15.5zM62 554
c-14.667 0 -27.167 5.16699 -37.5 15.5s-15.5 22.833 -15.5 37.5c0 14 5.16699 26.167 15.5 36.5s22.833 15.5 37.5 15.5c14 0 26.167 -5.16699 36.5 -15.5s15.5 -22.5 15.5 -36.5c0 -14.667 -5.16699 -27.167 -15.5 -37.5s-22.5 -15.5 -36.5 -15.5zM203 554
c-14.667 0 -27.167 5.16699 -37.5 15.5s-15.5 22.833 -15.5 37.5c0 14 5.16699 26.167 15.5 36.5s22.833 15.5 37.5 15.5c14 0 26.167 -5.16699 36.5 -15.5s15.5 -22.5 15.5 -36.5c0 -14.667 -5.16699 -27.167 -15.5 -37.5s-22.5 -15.5 -36.5 -15.5zM165 445
l86 -0.000976562c-8 -14 -13.333 -28.167 -16 -42.5s-4 -35.833 -4 -64.5v-154c0 -57.333 -14.667 -101.666 -44 -132.999c-32 -34 -79.667 -51 -143 -51h-44v89h51c28.667 0 51 7.33301 67 22c16 14 24 34 24 60v168c0 52 7.66699 87.333 23 106z" />
    <glyph glyph-name="uniFE9C" unicode="&#x62b;" horiz-adv-x="345" arabic-form="medial" 
d="M132 670c-14.667 0 -27.167 5.16699 -37.5 15.5s-15.5 22.833 -15.5 37.5c0 14 5.16699 26.167 15.5 36.5s22.833 15.5 37.5 15.5c14 0 26.167 -5.16699 36.5 -15.5s15.5 -22.5 15.5 -36.5c0 -14.667 -5.16699 -27.167 -15.5 -37.5s-22.5 -15.5 -36.5 -15.5zM62 554
c-14.667 0 -27.167 5.16699 -37.5 15.5s-15.5 22.833 -15.5 37.5c0 14 5.16699 26.167 15.5 36.5s22.833 15.5 37.5 15.5c14 0 26.167 -5.16699 36.5 -15.5s15.5 -22.5 15.5 -36.5c0 -14.667 -5.16699 -27.167 -15.5 -37.5s-22.5 -15.5 -36.5 -15.5zM150 607
c0 14 5.16699 26.167 15.5 36.5s22.833 15.5 37.5 15.5c14 0 26.167 -5.16699 36.5 -15.5s15.5 -22.5 15.5 -36.5c0 -14.667 -5.16699 -27.167 -15.5 -37.5s-22.5 -15.5 -36.5 -15.5c-14.667 0 -27.167 5.16699 -37.5 15.5s-15.5 22.833 -15.5 37.5zM363 89
l-0.000976562 -89h-34c-63.333 0 -110.666 17 -141.999 51c-32.667 -34 -80.334 -51 -143.001 -51h-44v89h51c28.667 0 51 7.33301 67 22c16 14 24 34 24 60v168c0 52 7.66699 87.333 23 106h86c-8 -14 -13.333 -28.167 -16 -42.5s-4 -35.833 -4 -64.5v-154v-6v-7
c0 -26 7.83301 -46.167 23.5 -60.5s37.834 -21.5 66.501 -21.5h42z" />
    <glyph glyph-name="uniFE9E" unicode="&#x62c;" horiz-adv-x="669" arabic-form="final" 
d="M293 450c157.333 0 251.666 -81.002 282.999 -243.002c9.33301 -48 22.333 -81.333 39 -100c9.33301 -12 24.666 -18 45.999 -18h27v-89h-33c-20 0 -36.167 1.66699 -48.5 5s-25.833 9.66602 -40.5 18.999c-16 -10 -30.667 -16.5 -44 -19.5s-35.666 -4.5 -66.999 -4.5
h-135c-50.667 0 -93.334 -12.333 -128.001 -37c-38 -28 -57 -68 -57 -120c0 -56 22.333 -103.667 67 -143c42 -36 92.667 -54 152 -54c78.667 0.666992 140.334 27 185.001 79l26 -59c-30 -21.333 -63 -38 -99 -50c-34.667 -10.667 -72.667 -16 -114 -16
c-94.667 0 -171 26.333 -229 79c-50 44.667 -75.333 99.334 -76 164.001c-0.666992 88 34.333 154.333 105 199c49.333 31.333 105.666 47 168.999 47h209c-18 24.667 -33.667 66.667 -47 126c-25.333 125.333 -88.666 188 -189.999 188c-28.667 0 -56.667 -6.33301 -84 -19
c-36.667 -17.333 -66 -42.666 -88 -75.999l-25 58c27.333 26.667 58.333 47.334 93 62.001s69.334 22 104.001 22zM360 -119.002c14.667 0 27.167 -5.16699 37.5 -15.5s15.5 -22.5 15.5 -36.5c0 -14.667 -5.16699 -27.167 -15.5 -37.5s-22.833 -15.5 -37.5 -15.5
c-14 0 -26.167 5.16699 -36.5 15.5s-15.5 22.833 -15.5 37.5c0 14 5.16699 26.167 15.5 36.5s22.5 15.5 36.5 15.5z" />
    <glyph glyph-name="uniFE9F" unicode="&#x62c;" horiz-adv-x="746" arabic-form="initial" 
d="M628 88c38.667 -2 65.333 -9.33398 80 -22.001v-86c-14 8 -28.167 13.333 -42.5 16s-35.833 4 -64.5 4h-600l-1 89h534c-17.333 24.667 -32.666 66.667 -45.999 126c-25.333 125.333 -88.666 188 -189.999 188c-30.667 0 -60.334 -7.33301 -89.001 -22
c-36.667 -18.667 -64.334 -43 -83.001 -73l-26 58c27.333 26.667 58.333 47.334 93 62.001s69.334 22 104.001 22c94 0 166 -29.333 216 -88c33.333 -39.333 55.666 -91 66.999 -155c12.667 -60 28.667 -99.667 48 -119zM320.999 -119.001c14 0 26.167 -5.16699 36.5 -15.5
s15.5 -22.5 15.5 -36.5c0 -14.667 -5.16699 -27.167 -15.5 -37.5s-22.5 -15.5 -36.5 -15.5c-14.667 0 -27.167 5.16699 -37.5 15.5s-15.5 22.833 -15.5 37.5c0 14 5.16699 26.167 15.5 36.5s22.833 15.5 37.5 15.5z" />
    <glyph glyph-name="uniFEA0" unicode="&#x62c;" horiz-adv-x="674" arabic-form="medial" 
d="M0 89h533.997c-18.667 25.333 -34 67.333 -46 126c-25.333 125.333 -88.666 188 -189.999 188c-29.333 0 -57.666 -6.66699 -84.999 -20c-37.333 -17.333 -66.333 -42.333 -87 -75l-26 58c27.333 26.667 58.333 47.334 93 62.001s69.334 22 104.001 22
c94.667 0 166.667 -29.333 216 -88c33.333 -39.333 55.666 -91 66.999 -155c10 -48.667 23.333 -82 40 -100c9.33301 -12 24.333 -18 45 -18h28v-89h-33c-20.667 0 -37.167 1.66699 -49.5 5s-25.833 9.66602 -40.5 18.999c-16 -10 -30.667 -16.5 -44 -19.5
s-35.666 -4.5 -66.999 -4.5h-458zM319.997 -119c14.667 0 27.167 -5.16699 37.5 -15.5s15.5 -22.5 15.5 -36.5c0 -14.667 -5.16699 -27.167 -15.5 -37.5s-22.833 -15.5 -37.5 -15.5c-14 0 -26.167 5.16699 -36.5 15.5s-15.5 22.833 -15.5 37.5
c0 14 5.16699 26.167 15.5 36.5s22.5 15.5 36.5 15.5z" />
    <glyph glyph-name="uniFEA2" unicode="&#x62d;" horiz-adv-x="669" arabic-form="final" 
d="M293 450c157.333 0 251.666 -81.002 282.999 -243.002c9.33301 -48 22.333 -81.333 39 -100c9.33301 -12 24.666 -18 45.999 -18h27v-89h-33c-20 0 -36.167 1.66699 -48.5 5s-25.833 9.66602 -40.5 18.999c-16 -10 -30.667 -16.5 -44 -19.5s-35.666 -4.5 -66.999 -4.5
h-135c-50.667 0 -93.334 -12.333 -128.001 -37c-38 -28 -57 -68 -57 -120c0 -56 22.333 -103.667 67 -143c42 -36 92.667 -54 152 -54c78.667 0.666992 140.334 27 185.001 79l26 -59c-30 -21.333 -63 -38 -99 -50c-34.667 -10.667 -72.667 -16 -114 -16
c-94.667 0 -171 26.333 -229 79c-50 44.667 -75.333 99.334 -76 164.001c-0.666992 88 34.333 154.333 105 199c49.333 31.333 105.666 47 168.999 47h209c-18 24.667 -33.667 66.667 -47 126c-25.333 125.333 -88.666 188 -189.999 188c-28.667 0 -56.667 -6.33301 -84 -19
c-36.667 -17.333 -66 -42.666 -88 -75.999l-25 58c27.333 26.667 58.333 47.334 93 62.001s69.334 22 104.001 22z" />
    <glyph glyph-name="uniFEA3" unicode="&#x62d;" horiz-adv-x="746" arabic-form="initial" 
d="M628 88c38.667 -2 65.333 -9.33398 80 -22.001v-86c-14 8 -28.167 13.333 -42.5 16s-35.833 4 -64.5 4h-600l-1 89h534c-17.333 24.667 -32.666 66.667 -45.999 126c-25.333 125.333 -88.666 188 -189.999 188c-30.667 0 -60.334 -7.33301 -89.001 -22
c-36.667 -18.667 -64.334 -43 -83.001 -73l-26 58c27.333 26.667 58.333 47.334 93 62.001s69.334 22 104.001 22c94 0 166 -29.333 216 -88c33.333 -39.333 55.666 -91 66.999 -155c12.667 -60 28.667 -99.667 48 -119z" />
    <glyph glyph-name="uniFEA4" unicode="&#x62d;" horiz-adv-x="674" arabic-form="medial" 
d="M0 89h533.997c-18.667 25.333 -34 67.333 -46 126c-25.333 125.333 -88.666 188 -189.999 188c-29.333 0 -57.666 -6.66699 -84.999 -20c-37.333 -17.333 -66.333 -42.333 -87 -75l-26 58c27.333 26.667 58.333 47.334 93 62.001s69.334 22 104.001 22
c94.667 0 166.667 -29.333 216 -88c33.333 -39.333 55.666 -91 66.999 -155c10 -48.667 23.333 -82 40 -100c9.33301 -12 24.333 -18 45 -18h28v-89h-33c-20.667 0 -37.167 1.66699 -49.5 5s-25.833 9.66602 -40.5 18.999c-16 -10 -30.667 -16.5 -44 -19.5
s-35.666 -4.5 -66.999 -4.5h-458z" />
    <glyph glyph-name="uniFEA6" unicode="&#x62e;" horiz-adv-x="669" arabic-form="final" 
d="M306 557c-14 0 -26.167 5.16699 -36.5 15.5s-15.5 22.833 -15.5 37.5c0 14 5.16699 26.167 15.5 36.5s22.5 15.5 36.5 15.5c14.667 0 27.167 -5.16699 37.5 -15.5s15.5 -22.5 15.5 -36.5c0 -14.667 -5.16699 -27.167 -15.5 -37.5s-22.833 -15.5 -37.5 -15.5zM293 450
c157.333 0 251.666 -81.002 282.999 -243.002c9.33301 -48 22.333 -81.333 39 -100c9.33301 -12 24.666 -18 45.999 -18h27v-89h-33c-20 0 -36.167 1.66699 -48.5 5s-25.833 9.66602 -40.5 18.999c-16 -10 -30.667 -16.5 -44 -19.5s-35.666 -4.5 -66.999 -4.5h-135
c-50.667 0 -93.334 -12.333 -128.001 -37c-38 -28 -57 -68 -57 -120c0 -56 22.333 -103.667 67 -143c42 -36 92.667 -54 152 -54c78.667 0.666992 140.334 27 185.001 79l26 -59c-30 -21.333 -63 -38 -99 -50c-34.667 -10.667 -72.667 -16 -114 -16
c-94.667 0 -171 26.333 -229 79c-50 44.667 -75.333 99.334 -76 164.001c-0.666992 88 34.333 154.333 105 199c49.333 31.333 105.666 47 168.999 47h209c-18 24.667 -33.667 66.667 -47 126c-25.333 125.333 -88.666 188 -189.999 188c-28.667 0 -56.667 -6.33301 -84 -19
c-36.667 -17.333 -66 -42.666 -88 -75.999l-25 58c27.333 26.667 58.333 47.334 93 62.001s69.334 22 104.001 22z" />
    <glyph glyph-name="uniFEA7" unicode="&#x62e;" horiz-adv-x="746" arabic-form="initial" 
d="M311 557c-14.667 0 -27.167 5.16699 -37.5 15.5s-15.5 22.833 -15.5 37.5c0 14 5.16699 26.167 15.5 36.5s22.833 15.5 37.5 15.5c14 0 26.167 -5.16699 36.5 -15.5s15.5 -22.5 15.5 -36.5c0 -14.667 -5.16699 -27.167 -15.5 -37.5s-22.5 -15.5 -36.5 -15.5zM628 88
c38.667 -2 65.333 -9.33398 80 -22.001v-86c-14 8 -28.167 13.333 -42.5 16s-35.833 4 -64.5 4h-600l-1 89h534c-17.333 24.667 -32.666 66.667 -45.999 126c-25.333 125.333 -88.666 188 -189.999 188c-30.667 0 -60.334 -7.33301 -89.001 -22
c-36.667 -18.667 -64.334 -43 -83.001 -73l-26 58c27.333 26.667 58.333 47.334 93 62.001s69.334 22 104.001 22c94 0 166 -29.333 216 -88c33.333 -39.333 55.666 -91 66.999 -155c12.667 -60 28.667 -99.667 48 -119z" />
    <glyph glyph-name="uniFEA8" unicode="&#x62e;" horiz-adv-x="674" arabic-form="medial" 
d="M310 557c-14 0 -26.167 5.16699 -36.5 15.5s-15.5 22.833 -15.5 37.5c0 14 5.16699 26.167 15.5 36.5s22.5 15.5 36.5 15.5c14.667 0 27.167 -5.16699 37.5 -15.5s15.5 -22.5 15.5 -36.5c0 -14.667 -5.16699 -27.167 -15.5 -37.5s-22.833 -15.5 -37.5 -15.5zM0 89
h533.997c-18.667 25.333 -34 67.333 -46 126c-25.333 125.333 -88.666 188 -189.999 188c-29.333 0 -57.666 -6.66699 -84.999 -20c-37.333 -17.333 -66.333 -42.333 -87 -75l-26 58c27.333 26.667 58.333 47.334 93 62.001s69.334 22 104.001 22
c94.667 0 166.667 -29.333 216 -88c33.333 -39.333 55.666 -91 66.999 -155c10 -48.667 23.333 -82 40 -100c9.33301 -12 24.333 -18 45 -18h28v-89h-33c-20.667 0 -37.167 1.66699 -49.5 5s-25.833 9.66602 -40.5 18.999c-16 -10 -30.667 -16.5 -44 -19.5
s-35.666 -4.5 -66.999 -4.5h-458z" />
    <glyph glyph-name="uniFEAA" unicode="&#x62f;" horiz-adv-x="634" arabic-form="final" 
d="M653 89v-88.999h-18c-66.667 0 -116 19.667 -148 59c-34 -39.333 -84 -59 -150 -59h-188c-28.667 0 -50.167 -1.33301 -64.5 -4s-28.5 -8 -42.5 -16v86c17.333 15.333 52.666 23 105.999 23h183c42 0 73.667 14.333 95 43c16 20.667 24 46 24 76
c0 66.667 -20 117.667 -60 153c-30 27.333 -66.667 41.333 -110 42c-55.333 1.33301 -102.333 -18.334 -141 -59.001l-26 60c52.667 30.667 108 46 166 46c82.667 0 148.667 -27.333 198 -82c40.667 -45.333 61 -100 61 -164v-4h1v-29c0 -26 7.83301 -46.167 23.5 -60.5
s37.834 -21.5 66.501 -21.5h24z" />
    <glyph glyph-name="uniFEAC" unicode="&#x630;" horiz-adv-x="634" arabic-form="final" 
d="M165 541c-14.667 0 -27.167 5.16699 -37.5 15.5s-15.5 22.833 -15.5 37.5c0 14 5.16699 26.167 15.5 36.5s22.833 15.5 37.5 15.5c14 0 26.167 -5.16699 36.5 -15.5s15.5 -22.5 15.5 -36.5c0 -14.667 -5.16699 -27.167 -15.5 -37.5s-22.5 -15.5 -36.5 -15.5zM653 89
v-88.999h-18c-66.667 0 -116 19.667 -148 59c-34 -39.333 -84 -59 -150 -59h-188c-28.667 0 -50.167 -1.33301 -64.5 -4s-28.5 -8 -42.5 -16v86c17.333 15.333 52.666 23 105.999 23h183c42 0 73.667 14.333 95 43c16 20.667 24 46 24 76c0 66.667 -20 117.667 -60 153
c-30 27.333 -66.667 41.333 -110 42c-55.333 1.33301 -102.333 -18.334 -141 -59.001l-26 60c52.667 30.667 108 46 166 46c82.667 0 148.667 -27.333 198 -82c40.667 -45.333 61 -100 61 -164v-4h1v-29c0 -26 7.83301 -46.167 23.5 -60.5s37.834 -21.5 66.501 -21.5h24z
" />
    <glyph glyph-name="uniFEAE" unicode="&#x631;" horiz-adv-x="416" arabic-form="final" 
d="M433 89l-0.000976562 -89h-34c-39.333 -0 -72 6.33301 -98 19v-49c0 -38 -1.5 -66.667 -4.5 -86s-9.16699 -37.666 -18.5 -54.999c-29.333 -60.667 -86.666 -91 -171.999 -91c-54.667 0 -106 15.667 -154 47l26 59c34.667 -40 76.667 -60 126 -60
c40 0 70.333 18.333 91 55c7.33301 12.667 12.166 27.167 14.499 43.5s3.5 45.166 3.5 86.499l-1 199v16v155c0 52 7.66699 87.333 23 106h86c-8 -14 -13.333 -28.167 -16 -42.5s-4 -35.833 -4 -64.5v-167c0 -26 7.83301 -46.167 23.5 -60.5s37.834 -21.5 66.501 -21.5h42z
" />
    <glyph glyph-name="uniFEB0" unicode="&#x632;" horiz-adv-x="410" arabic-form="final" 
d="M274 554c-14.667 0 -27.167 5.16699 -37.5 15.5s-15.5 22.833 -15.5 37.5c0 14 5.16699 26.167 15.5 36.5s22.833 15.5 37.5 15.5c14 0 26.167 -5.16699 36.5 -15.5s15.5 -22.5 15.5 -36.5c0 -14.667 -5.16699 -27.167 -15.5 -37.5s-22.5 -15.5 -36.5 -15.5zM428 89
l-0.000976562 -89h-34c-39.333 -0 -72 6.33301 -98 19v-49c0 -38 -1.5 -66.667 -4.5 -86s-9.16699 -37.666 -18.5 -54.999c-29.333 -60.667 -86.666 -91 -171.999 -91c-54.667 0 -106 15.667 -154 47l26 59c34.667 -40 76.667 -60 126 -60c40 0 70.333 18.333 91 55
c7.33301 12.667 12.166 27.167 14.499 43.5s3.5 45.166 3.5 86.499l-1 199v16v155c0 52 7.66699 87.333 23 106h86c-8 -14 -13.333 -28.167 -16 -42.5s-4 -35.833 -4 -64.5v-167c0 -26 7.83301 -46.167 23.5 -60.5s37.834 -21.5 66.501 -21.5h42z" />
    <glyph glyph-name="uniFEB2" unicode="&#x633;" horiz-adv-x="1365" arabic-form="final" 
d="M1186 445l84.9951 0.00292969c-8 -14 -13.333 -28.167 -16 -42.5s-4 -35.833 -4 -64.5v-167c0 -26 8 -46.167 24 -60.5s38.333 -21.5 67 -21.5h42v-89h-35c-63.333 0 -110.666 17.333 -141.999 52c-31.333 -34.667 -78.666 -52 -141.999 -52h-31
c-63.333 0 -110.666 17.333 -141.999 52c-31.333 -34.667 -78.666 -52 -141.999 -52h-30c-40 0 -73.333 7 -100 21c-2.66699 -69.333 -23 -128.666 -61 -177.999c-53.333 -70 -128 -105 -224 -105c-93.333 0 -167 34 -221 102c-44 54.667 -66 119.667 -66 195
c0 38 6.33301 73.333 19 106c14.667 33.333 33.334 59.666 56.001 78.999l56 -30c-31.333 -16 -54 -39.667 -68 -71c-10 -22.667 -15 -48.334 -15 -77.001v-9c2 -62 29 -113.667 81 -155c44.667 -35.333 95.667 -53 153 -53c81.333 0 139.666 33 174.999 99
c18.667 35.333 28 80.333 28 135v238c0 53.333 7.66699 88.666 23 105.999h86c-8 -14 -13.333 -27.833 -16 -41.5s-4 -35.5 -4 -65.5v-125c0 -26 7.83301 -46.167 23.5 -60.5s37.834 -21.5 66.501 -21.5h38c29.333 0 53 7 71 21c17.333 14.667 26 35 26 61v147
c0 52.667 7.66699 88 23 106h86c-8 -14 -13.333 -28.167 -16 -42.5s-4 -35.833 -4 -64.5v-146c0 -26 8 -46.167 24 -60.5s38.333 -21.5 67 -21.5h45c28.667 0 51 7 67 21c16 14.667 24 35 24 61v168c0 53.333 7.66699 88.666 23 105.999z" />
    <glyph glyph-name="uniFEB3" unicode="&#x633;" horiz-adv-x="1003" arabic-form="initial" 
d="M869 445l86 0.000976562c-8 -14 -13.333 -28.167 -16 -42.5s-4 -35.833 -4 -64.5v-154c0 -57.333 -14.667 -101.666 -44 -132.999c-32 -34 -79.667 -51 -143 -51h-30c-63.333 0 -111 17.667 -143 53c-30.667 -35.333 -78 -53 -142 -53h-30c-62.667 0 -110 17.667 -142 53
c-32 -35.333 -79.333 -53 -142 -53h-119v89h126c28.667 0 51 7 67 21c16 14.667 24 35 24 61v126c0 53.333 7.66699 88.666 23 105.999h85c-8 -14 -13.333 -28.167 -16 -42.5s-4 -35.833 -4 -64.5v-125c0 -26 8 -46.167 24 -60.5s38.333 -21.5 67 -21.5h45c28 0 50 7 66 21
c16 14.667 24 35 24 61v147c0 53.333 7.66699 88.666 23 105.999h86c-8 -14 -13.333 -27.833 -16 -41.5s-4 -35.5 -4 -65.5v-146c0 -26 8 -46.167 24 -60.5s38.333 -21.5 67 -21.5h44c28.667 0 51 7 67 21c16 14.667 24 35 24 61v168c0 52.667 7.66699 88 23 106z" />
    <glyph glyph-name="uniFEB4" unicode="&#x633;" horiz-adv-x="1049" arabic-form="medial" 
d="M1068 0l-35.002 0.00195312c-64 0 -111.333 17.667 -142 53c-32 -35.333 -79.667 -53 -143 -53h-29c-63.333 0 -111 17.667 -143 53c-30.667 -35.333 -78 -53 -142 -53h-31c-62.667 0 -110 17.667 -142 53c-32 -35.333 -79.333 -53 -142 -53h-119v89h126
c28.667 0 51 7 67 21c16 14.667 24 35 24 61v126c0 53.333 7.66699 88.666 23 105.999h85c-8 -14 -13.333 -28.167 -16 -42.5s-4 -35.833 -4 -64.5v-125c0 -26 8 -46.167 24 -60.5s38.667 -21.5 68 -21.5h44c28.667 0 51 7 67 21c16 14.667 24 35 24 61v147
c0 53.333 7.66699 88.666 23 105.999h86c-8 -14 -13.333 -27.833 -16 -41.5s-4 -35.5 -4 -65.5v-146c0 -26 7.83301 -46.167 23.5 -60.5s37.834 -21.5 66.501 -21.5h45c28 0 50 7 66 21c16 14.667 24 35 24 61v168c0 52.667 7.66699 88 23 106h86
c-8 -14 -13.333 -28.167 -16 -42.5s-4 -35.833 -4 -64.5v-167c0 -26 7.83301 -46.167 23.5 -60.5s37.834 -21.5 66.501 -21.5h43v-89z" />
    <glyph glyph-name="uniFEB6" unicode="&#x634;" horiz-adv-x="1365" arabic-form="final" 
d="M899 649c-14.667 0 -27.167 5.16699 -37.5 15.5s-15.5 22.833 -15.5 37.5c0 14 5.16699 26.167 15.5 36.5s22.833 15.5 37.5 15.5c14 0 26.167 -5.16699 36.5 -15.5s15.5 -22.5 15.5 -36.5c0 -14.667 -5.16699 -27.167 -15.5 -37.5s-22.5 -15.5 -36.5 -15.5zM828 533
c-14.667 0 -27.167 5.16699 -37.5 15.5s-15.5 22.5 -15.5 36.5c0 14.667 5.16699 27.167 15.5 37.5s22.833 15.5 37.5 15.5c14 0 26.167 -5.16699 36.5 -15.5s15.5 -22.833 15.5 -37.5c0 -14 -5.16699 -26.167 -15.5 -36.5s-22.5 -15.5 -36.5 -15.5zM969 533
c-14.667 0 -27.167 5.16699 -37.5 15.5s-15.5 22.5 -15.5 36.5c0 14.667 5.16699 27.167 15.5 37.5s22.833 15.5 37.5 15.5c14 0 26.167 -5.16699 36.5 -15.5s15.5 -22.833 15.5 -37.5c0 -14 -5.16699 -26.167 -15.5 -36.5s-22.5 -15.5 -36.5 -15.5zM1186 445
l84.9951 0.00292969c-8 -14 -13.333 -28.167 -16 -42.5s-4 -35.833 -4 -64.5v-167c0 -26 8 -46.167 24 -60.5s38.333 -21.5 67 -21.5h42v-89h-35c-63.333 0 -110.666 17.333 -141.999 52c-31.333 -34.667 -78.666 -52 -141.999 -52h-31
c-63.333 0 -110.666 17.333 -141.999 52c-31.333 -34.667 -78.666 -52 -141.999 -52h-30c-40 0 -73.333 7 -100 21c-2.66699 -69.333 -23 -128.666 -61 -177.999c-53.333 -70 -128 -105 -224 -105c-93.333 0 -167 34 -221 102c-44 54.667 -66 119.667 -66 195
c0 38 6.33301 73.333 19 106c14.667 33.333 33.334 59.666 56.001 78.999l56 -30c-31.333 -16 -54 -39.667 -68 -71c-10 -22.667 -15 -48.334 -15 -77.001v-9c2 -62 29 -113.667 81 -155c44.667 -35.333 95.667 -53 153 -53c81.333 0 139.666 33 174.999 99
c18.667 35.333 28 80.333 28 135v238c0 53.333 7.66699 88.666 23 105.999h86c-8 -14 -13.333 -27.833 -16 -41.5s-4 -35.5 -4 -65.5v-125c0 -26 7.83301 -46.167 23.5 -60.5s37.834 -21.5 66.501 -21.5h38c29.333 0 53 7 71 21c17.333 14.667 26 35 26 61v147
c0 52.667 7.66699 88 23 106h86c-8 -14 -13.333 -28.167 -16 -42.5s-4 -35.833 -4 -64.5v-146c0 -26 8 -46.167 24 -60.5s38.333 -21.5 67 -21.5h45c28.667 0 51 7 67 21c16 14.667 24 35 24 61v168c0 53.333 7.66699 88.666 23 105.999z" />
    <glyph glyph-name="uniFEB7" unicode="&#x634;" horiz-adv-x="1003" arabic-form="initial" 
d="M582 649c-14 0 -26.167 5.16699 -36.5 15.5s-15.5 22.833 -15.5 37.5c0 14 5.16699 26.167 15.5 36.5s22.5 15.5 36.5 15.5c14.667 0 27.167 -5.16699 37.5 -15.5s15.5 -22.5 15.5 -36.5c0 -14.667 -5.16699 -27.167 -15.5 -37.5s-22.833 -15.5 -37.5 -15.5zM511 533
c-14 0 -26.167 5.16699 -36.5 15.5s-15.5 22.5 -15.5 36.5c0 14.667 5.16699 27.167 15.5 37.5s22.5 15.5 36.5 15.5c14.667 0 27.167 -5.16699 37.5 -15.5s15.5 -22.833 15.5 -37.5c0 -14 -5.16699 -26.167 -15.5 -36.5s-22.833 -15.5 -37.5 -15.5zM652 533
c-14 0 -26.167 5.16699 -36.5 15.5s-15.5 22.5 -15.5 36.5c0 14.667 5.16699 27.167 15.5 37.5s22.5 15.5 36.5 15.5c14.667 0 27.167 -5.16699 37.5 -15.5s15.5 -22.833 15.5 -37.5c0 -14 -5.16699 -26.167 -15.5 -36.5s-22.833 -15.5 -37.5 -15.5zM869 445l86 0.000976562
c-8 -14 -13.333 -28.167 -16 -42.5s-4 -35.833 -4 -64.5v-154c0 -57.333 -14.667 -101.666 -44 -132.999c-32 -34 -79.667 -51 -143 -51h-30c-63.333 0 -111 17.667 -143 53c-30.667 -35.333 -78 -53 -142 -53h-30c-62.667 0 -110 17.667 -142 53
c-32 -35.333 -79.333 -53 -142 -53h-119v89h126c28.667 0 51 7 67 21c16 14.667 24 35 24 61v126c0 53.333 7.66699 88.666 23 105.999h85c-8 -14 -13.333 -28.167 -16 -42.5s-4 -35.833 -4 -64.5v-125c0 -26 8 -46.167 24 -60.5s38.333 -21.5 67 -21.5h45c28 0 50 7 66 21
c16 14.667 24 35 24 61v147c0 53.333 7.66699 88.666 23 105.999h86c-8 -14 -13.333 -27.833 -16 -41.5s-4 -35.5 -4 -65.5v-146c0 -26 8 -46.167 24 -60.5s38.333 -21.5 67 -21.5h44c28.667 0 51 7 67 21c16 14.667 24 35 24 61v168c0 52.667 7.66699 88 23 106z" />
    <glyph glyph-name="uniFEB8" unicode="&#x634;" horiz-adv-x="1049" arabic-form="medial" 
d="M582 649c-14 0 -26.167 5.16699 -36.5 15.5s-15.5 22.833 -15.5 37.5c0 14 5.16699 26.167 15.5 36.5s22.5 15.5 36.5 15.5c14.667 0 27.167 -5.16699 37.5 -15.5s15.5 -22.5 15.5 -36.5c0 -14.667 -5.16699 -27.167 -15.5 -37.5s-22.833 -15.5 -37.5 -15.5zM511 533
c-14 0 -26.167 5.16699 -36.5 15.5s-15.5 22.5 -15.5 36.5c0 14.667 5.16699 27.167 15.5 37.5s22.5 15.5 36.5 15.5c14.667 0 27.167 -5.16699 37.5 -15.5s15.5 -22.833 15.5 -37.5c0 -14 -5.16699 -26.167 -15.5 -36.5s-22.833 -15.5 -37.5 -15.5zM652 533
c-14 0 -26.167 5.16699 -36.5 15.5s-15.5 22.5 -15.5 36.5c0 14.667 5.16699 27.167 15.5 37.5s22.5 15.5 36.5 15.5c14.667 0 27.167 -5.16699 37.5 -15.5s15.5 -22.833 15.5 -37.5c0 -14 -5.16699 -26.167 -15.5 -36.5s-22.833 -15.5 -37.5 -15.5zM1068 0
l-35.002 0.00195312c-64 0 -111.333 17.667 -142 53c-32 -35.333 -79.667 -53 -143 -53h-29c-63.333 0 -111 17.667 -143 53c-30.667 -35.333 -78 -53 -142 -53h-31c-62.667 0 -110 17.667 -142 53c-32 -35.333 -79.333 -53 -142 -53h-119v89h126c28.667 0 51 7 67 21
c16 14.667 24 35 24 61v126c0 53.333 7.66699 88.666 23 105.999h85c-8 -14 -13.333 -28.167 -16 -42.5s-4 -35.833 -4 -64.5v-125c0 -26 8 -46.167 24 -60.5s38.667 -21.5 68 -21.5h44c28.667 0 51 7 67 21c16 14.667 24 35 24 61v147c0 53.333 7.66699 88.666 23 105.999
h86c-8 -14 -13.333 -27.833 -16 -41.5s-4 -35.5 -4 -65.5v-146c0 -26 7.83301 -46.167 23.5 -60.5s37.834 -21.5 66.501 -21.5h45c28 0 50 7 66 21c16 14.667 24 35 24 61v168c0 52.667 7.66699 88 23 106h86c-8 -14 -13.333 -28.167 -16 -42.5s-4 -35.833 -4 -64.5v-167
c0 -26 7.83301 -46.167 23.5 -60.5s37.834 -21.5 66.501 -21.5h43v-89z" />
    <glyph glyph-name="uniFEBA" unicode="&#x635;" horiz-adv-x="1310" arabic-form="final" 
d="M956 450c82.667 0 148.666 -27.3311 197.999 -81.998c40.667 -46 61 -100.667 61 -164v-33c0 -26 7.83301 -46.167 23.5 -60.5s37.834 -21.5 66.501 -21.5h24v-89h-18c-66.667 0 -115.667 20 -147 60c-34.667 -40 -85 -60 -151 -60h-394
c-6.66699 -61.333 -26.667 -113.666 -60 -156.999c-53.333 -70 -128 -105 -224 -105c-93.333 0 -167 34 -221 102c-44 54.667 -66 119.667 -66 195c0 38 6.33301 73.333 19 106c14.667 33.333 33.334 59.666 56.001 78.999l56 -30c-31.333 -16 -54 -39.667 -68 -71
c-10 -22.667 -15 -48.334 -15 -77.001v-9c2 -62 29 -113.667 81 -155c44.667 -35.333 95.667 -53 153 -53c81.333 0 139.666 33 174.999 99c18.667 35.333 28 80.333 28 135v238c0 53.333 7.66699 88.666 23 105.999h86c-8 -14 -13.333 -27.5 -16 -40.5s-4 -34.167 -4 -63.5
v-50c38 66.667 89.333 118 154 154c56.667 31.333 116.667 47 180 47zM955.999 403.002c-46 0 -90.668 -12.333 -134.001 -37c-35.333 -20.667 -66.666 -48 -93.999 -82c-50 -58 -85 -121 -105 -189l-1 -6h385c42 0 73.667 14.333 95 43c16 20.667 24 46 24 76
c0 66.667 -19.667 117.667 -59 153c-30.667 28 -67.667 42 -111 42z" />
    <glyph glyph-name="uniFEBB" unicode="&#x635;" horiz-adv-x="870" arabic-form="initial" 
d="M565 450c82.667 0 148.331 -27.334 196.998 -82.001c40.667 -45.333 61 -100 61 -164c0 -61.333 -17.667 -110.666 -53 -147.999s-84.666 -56 -147.999 -56h-622v89h142v208c0 53.333 7.66699 88.666 23 105.999h85c-8.66699 -14.667 -14.167 -28.167 -16.5 -40.5
s-3.5 -32.166 -3.5 -59.499v-54c38.667 66.667 90.334 118 155.001 154c56.667 31.333 116.667 47 180 47zM564.997 402.999c-46 0 -90.666 -12.333 -133.999 -37c-35.333 -20.667 -66.666 -48 -93.999 -82c-52.667 -60.667 -88.334 -125.667 -107.001 -195h386
c42 0 73.667 14.333 95 43c16 20.667 24 46 24 76c0 66 -20 117 -60 153c-30.667 28 -67.334 42 -110.001 42z" />
    <glyph glyph-name="uniFEBC" unicode="&#x635;" horiz-adv-x="919" arabic-form="medial" 
d="M938 0h-18.002c-68 0 -117.333 20 -148 60c-34.667 -40 -84.667 -60 -150 -60h-622v89h142v208c0 53.333 7.66699 88.666 23 105.999h85c-8.66699 -14.667 -14.167 -28.167 -16.5 -40.5s-3.5 -32.166 -3.5 -59.499v-54c38.667 66.667 90.334 118 155.001 154
c56.667 31.333 116.667 47 180 47c82.667 0 148.334 -27.333 197.001 -82c40.667 -46 61 -100.667 61 -164v-33c0 -30 10 -52 30 -66c16 -10.667 36.333 -16 61 -16h24v-89zM229.998 89h386.001c42 0 73.667 14.333 95 43c16 20.667 24 46 24 76c0 66 -20 117 -60 153
c-30.667 28 -67.334 42 -110.001 42c-46 0 -90.667 -12.333 -134 -37c-35.333 -20.667 -66.666 -48 -93.999 -82c-52.667 -60.667 -88.334 -125.667 -107.001 -195z" />
    <glyph glyph-name="uniFEBE" unicode="&#x636;" horiz-adv-x="1310" arabic-form="final" 
d="M914 557c-14.667 0 -27.167 5.16699 -37.5 15.5s-15.5 22.833 -15.5 37.5c0 14 5.16699 26.167 15.5 36.5s22.833 15.5 37.5 15.5c14 0 26.167 -5.16699 36.5 -15.5s15.5 -22.5 15.5 -36.5c0 -14.667 -5.16699 -27.167 -15.5 -37.5s-22.5 -15.5 -36.5 -15.5zM956 450
c82.667 0 148.666 -27.3311 197.999 -81.998c40.667 -46 61 -100.667 61 -164v-33c0 -26 7.83301 -46.167 23.5 -60.5s37.834 -21.5 66.501 -21.5h24v-89h-18c-66.667 0 -115.667 20 -147 60c-34.667 -40 -85 -60 -151 -60h-394
c-6.66699 -61.333 -26.667 -113.666 -60 -156.999c-53.333 -70 -128 -105 -224 -105c-93.333 0 -167 34 -221 102c-44 54.667 -66 119.667 -66 195c0 38 6.33301 73.333 19 106c14.667 33.333 33.334 59.666 56.001 78.999l56 -30c-31.333 -16 -54 -39.667 -68 -71
c-10 -22.667 -15 -48.334 -15 -77.001v-9c2 -62 29 -113.667 81 -155c44.667 -35.333 95.667 -53 153 -53c81.333 0 139.666 33 174.999 99c18.667 35.333 28 80.333 28 135v238c0 53.333 7.66699 88.666 23 105.999h86c-8 -14 -13.333 -27.5 -16 -40.5s-4 -34.167 -4 -63.5
v-50c38 66.667 89.333 118 154 154c56.667 31.333 116.667 47 180 47zM955.999 403.002c-46 0 -90.668 -12.333 -134.001 -37c-35.333 -20.667 -66.666 -48 -93.999 -82c-50 -58 -85 -121 -105 -189l-1 -6h385c42 0 73.667 14.333 95 43c16 20.667 24 46 24 76
c0 66.667 -19.667 117.667 -59 153c-30.667 28 -67.667 42 -111 42z" />
    <glyph glyph-name="uniFEBF" unicode="&#x636;" horiz-adv-x="870" arabic-form="initial" 
d="M523 557c-14.667 0 -27.167 5.16699 -37.5 15.5s-15.5 22.833 -15.5 37.5c0 14 5.16699 26.167 15.5 36.5s22.833 15.5 37.5 15.5c14 0 26.167 -5.16699 36.5 -15.5s15.5 -22.5 15.5 -36.5c0 -14.667 -5.16699 -27.167 -15.5 -37.5s-22.5 -15.5 -36.5 -15.5zM565 450
c82.667 0 148.331 -27.334 196.998 -82.001c40.667 -45.333 61 -100 61 -164c0 -61.333 -17.667 -110.666 -53 -147.999s-84.666 -56 -147.999 -56h-622v89h142v208c0 53.333 7.66699 88.666 23 105.999h85c-8.66699 -14.667 -14.167 -28.167 -16.5 -40.5
s-3.5 -32.166 -3.5 -59.499v-54c38.667 66.667 90.334 118 155.001 154c56.667 31.333 116.667 47 180 47zM564.997 402.999c-46 0 -90.666 -12.333 -133.999 -37c-35.333 -20.667 -66.666 -48 -93.999 -82c-52.667 -60.667 -88.334 -125.667 -107.001 -195h386
c42 0 73.667 14.333 95 43c16 20.667 24 46 24 76c0 66 -20 117 -60 153c-30.667 28 -67.334 42 -110.001 42z" />
    <glyph glyph-name="uniFEC0" unicode="&#x636;" horiz-adv-x="919" arabic-form="medial" 
d="M523 557c-14.667 0 -27.167 5.16699 -37.5 15.5s-15.5 22.833 -15.5 37.5c0 14 5.16699 26.167 15.5 36.5s22.833 15.5 37.5 15.5c14 0 26.167 -5.16699 36.5 -15.5s15.5 -22.5 15.5 -36.5c0 -14.667 -5.16699 -27.167 -15.5 -37.5s-22.5 -15.5 -36.5 -15.5zM938 0
h-18.002c-68 0 -117.333 20 -148 60c-34.667 -40 -84.667 -60 -150 -60h-622v89h142v208c0 53.333 7.66699 88.666 23 105.999h85c-8.66699 -14.667 -14.167 -28.167 -16.5 -40.5s-3.5 -32.166 -3.5 -59.499v-54c38.667 66.667 90.334 118 155.001 154
c56.667 31.333 116.667 47 180 47c82.667 0 148.334 -27.333 197.001 -82c40.667 -46 61 -100.667 61 -164v-33c0 -30 10 -52 30 -66c16 -10.667 36.333 -16 61 -16h24v-89zM229.998 89h386.001c42 0 73.667 14.333 95 43c16 20.667 24 46 24 76c0 66 -20 117 -60 153
c-30.667 28 -67.334 42 -110.001 42c-46 0 -90.667 -12.333 -134 -37c-35.333 -20.667 -66.666 -48 -93.999 -82c-52.667 -60.667 -88.334 -125.667 -107.001 -195z" />
    <glyph glyph-name="uniFEC2" unicode="&#x637;" horiz-adv-x="929" arabic-form="final" 
d="M174 681l85.9971 0.000976562c-8 -14 -13.167 -27.333 -15.5 -40s-3.83301 -33.667 -4.5 -63v-329c38 66 89.667 117.333 155 154c57.333 32 117.333 47.667 180 47c82.667 -0.666992 148.334 -28.334 197.001 -83.001c40.667 -45.333 61 -99.666 61 -162.999v-33
c0 -26 7.83301 -46.167 23.5 -60.5s37.834 -21.5 66.501 -21.5h25v-89h-18c-68 0 -117.333 20 -148 60c-35.333 -40 -85.666 -60 -150.999 -60h-487c-28 0 -49.167 -1.33301 -63.5 -4s-28.5 -8 -42.5 -16v86c17.333 15.333 52.333 23 105 23h9v486
c0 53.333 7.33301 88.666 22 105.999zM574.997 403.001c-46 0 -90.667 -12.333 -134 -37c-35.333 -20.667 -66.666 -48 -93.999 -82c-52.667 -60.667 -88.334 -125.667 -107.001 -195h386c42 0 73.667 14.333 95 43c16 20.667 24 46 24 76c0 66 -19.667 117 -59 153
c-31.333 28 -68.333 42 -111 42z" />
    <glyph glyph-name="uniFEC3" unicode="&#x637;" horiz-adv-x="871" arabic-form="initial" 
d="M165 681l86 -0.000976562c-8 -14 -13.333 -27.333 -16 -40s-4 -33.667 -4 -63l-1 -329c38 66 89.667 117.333 155 154c57.333 32 117.333 47.667 180 47c82.667 -0.666992 148.667 -28.334 198 -83.001c40.667 -45.333 61 -99.666 61 -162.999
c0 -61.333 -17.667 -110.666 -53 -147.999c-36 -37.333 -86 -56 -150 -56h-621v89h142v486c0 52.667 7.66699 88 23 106zM565 402.999c-46.667 0 -91.332 -12.333 -133.999 -37c-35.333 -20.667 -67 -48 -95 -82c-52 -60.667 -87.333 -125.667 -106 -195h386
c42 0 73.667 14.333 95 43c16 20.667 24 46 24 76c0 66 -20 117 -60 153c-30.667 28 -67.334 42 -110.001 42z" />
    <glyph glyph-name="uniFEC4" unicode="&#x637;" horiz-adv-x="919" arabic-form="medial" 
d="M938 0h-17.0029c-68 0 -117.333 20 -148 60c-35.333 -40 -85.666 -60 -150.999 -60h-622v89h142v486c0 52.667 7.66699 88 23 106h86c-8 -14 -13.167 -27.333 -15.5 -40s-3.83301 -33.667 -4.5 -63l-1 -329c38.667 66 90.334 117.333 155.001 154
c57.333 32 117.333 47.667 180 47c82.667 -0.666992 148.667 -28.334 198 -83.001c40.667 -45.333 61 -99.666 61 -162.999v-33c0 -26 7.83301 -46.167 23.5 -60.5s37.834 -21.5 66.501 -21.5h24v-89zM229.997 89h386.002c42 0 73.667 14.333 95 43c16 20.667 24 46 24 76
c0 66 -20 117 -60 153c-30.667 28 -67.334 42 -110.001 42c-46.667 0 -91.334 -12.333 -134.001 -37c-35.333 -20.667 -66.666 -48 -93.999 -82c-52.667 -60.667 -88.334 -125.667 -107.001 -195z" />
    <glyph glyph-name="uniFEC6" unicode="&#x638;" horiz-adv-x="929" arabic-form="final" 
d="M174 681l85.9971 0.000976562c-8 -14 -13.167 -27.333 -15.5 -40s-3.83301 -33.667 -4.5 -63v-329c38 66 89.667 117.333 155 154c57.333 32 117.333 47.667 180 47c82.667 -0.666992 148.334 -28.334 197.001 -83.001c40.667 -45.333 61 -99.666 61 -162.999v-33
c0 -26 7.83301 -46.167 23.5 -60.5s37.834 -21.5 66.501 -21.5h25v-89h-18c-68 0 -117.333 20 -148 60c-35.333 -40 -85.666 -60 -150.999 -60h-487c-28 0 -49.167 -1.33301 -63.5 -4s-28.5 -8 -42.5 -16v86c17.333 15.333 52.333 23 105 23h9v486
c0 53.333 7.33301 88.666 22 105.999zM574.997 403.001c-46 0 -90.667 -12.333 -134 -37c-35.333 -20.667 -66.666 -48 -93.999 -82c-52.667 -60.667 -88.334 -125.667 -107.001 -195h386c42 0 73.667 14.333 95 43c16 20.667 24 46 24 76c0 66 -19.667 117 -59 153
c-31.333 28 -68.333 42 -111 42zM532.997 557.001c-14.667 0 -27.167 5.16699 -37.5 15.5s-15.5 22.833 -15.5 37.5c0 14 5.16699 26.167 15.5 36.5s22.833 15.5 37.5 15.5c14 0 26.167 -5.16699 36.5 -15.5s15.5 -22.5 15.5 -36.5c0 -14.667 -5.16699 -27.167 -15.5 -37.5
s-22.5 -15.5 -36.5 -15.5z" />
    <glyph glyph-name="uniFEC7" unicode="&#x638;" horiz-adv-x="871" arabic-form="initial" 
d="M165 681l86 -0.000976562c-8 -14 -13.333 -27.333 -16 -40s-4 -33.667 -4 -63l-1 -329c38 66 89.667 117.333 155 154c57.333 32 117.333 47.667 180 47c82.667 -0.666992 148.667 -28.334 198 -83.001c40.667 -45.333 61 -99.666 61 -162.999
c0 -61.333 -17.667 -110.666 -53 -147.999c-36 -37.333 -86 -56 -150 -56h-621v89h142v486c0 52.667 7.66699 88 23 106zM565 402.999c-46.667 0 -91.332 -12.333 -133.999 -37c-35.333 -20.667 -67 -48 -95 -82c-52 -60.667 -87.333 -125.667 -106 -195h386
c42 0 73.667 14.333 95 43c16 20.667 24 46 24 76c0 66 -20 117 -60 153c-30.667 28 -67.334 42 -110.001 42zM523.002 556.999c-14.667 0 -27.167 5.16699 -37.5 15.5s-15.5 22.833 -15.5 37.5c0 14 5.16699 26.167 15.5 36.5s22.833 15.5 37.5 15.5
c14 0 26.167 -5.16699 36.5 -15.5s15.5 -22.5 15.5 -36.5c0 -14.667 -5.16699 -27.167 -15.5 -37.5s-22.5 -15.5 -36.5 -15.5z" />
    <glyph glyph-name="uniFEC8" unicode="&#x638;" horiz-adv-x="919" arabic-form="medial" 
d="M938 0h-17.0029c-68 0 -117.333 20 -148 60c-35.333 -40 -85.666 -60 -150.999 -60h-622v89h142v486c0 52.667 7.66699 88 23 106h86c-8 -14 -13.167 -27.333 -15.5 -40s-3.83301 -33.667 -4.5 -63l-1 -329c38.667 66 90.334 117.333 155.001 154
c57.333 32 117.333 47.667 180 47c82.667 -0.666992 148.667 -28.334 198 -83.001c40.667 -45.333 61 -99.666 61 -162.999v-33c0 -26 7.83301 -46.167 23.5 -60.5s37.834 -21.5 66.501 -21.5h24v-89zM229.997 89h386.002c42 0 73.667 14.333 95 43c16 20.667 24 46 24 76
c0 66 -20 117 -60 153c-30.667 28 -67.334 42 -110.001 42c-46.667 0 -91.334 -12.333 -134.001 -37c-35.333 -20.667 -66.666 -48 -93.999 -82c-52.667 -60.667 -88.334 -125.667 -107.001 -195zM522.999 557c-14.667 0 -27.167 5.16699 -37.5 15.5
s-15.5 22.833 -15.5 37.5c0 14 5.16699 26.167 15.5 36.5s22.833 15.5 37.5 15.5c14 0 26.167 -5.16699 36.5 -15.5s15.5 -22.5 15.5 -36.5c0 -14.667 -5.16699 -27.167 -15.5 -37.5s-22.5 -15.5 -36.5 -15.5z" />
    <glyph glyph-name="uniFECA" unicode="&#x639;" horiz-adv-x="697" arabic-form="final" 
d="M304 103c-6 53.333 -27.668 95.334 -65.001 126.001c-26.667 21.333 -53.667 32 -81 32c-3.33301 0 -6.33301 -0.333008 -9 -1c-12.667 -2 -22 -8.33301 -28 -19l-44 46c73.333 108.667 167.666 163 282.999 163c75.333 0 136.333 -21.667 183 -65
c40.667 -36.667 61 -81.334 61 -134.001c0 -63.333 -30.667 -117.333 -92 -162h204v-89h-197h-42c-24.667 0 -43.667 1.5 -57 4.5s-26 8.5 -38 16.5c-16 -14 -38.333 -21 -67 -21c-46.667 0 -87 -12.333 -121 -37c-38.667 -28.667 -58 -68.667 -58 -120
c0 -56 22.333 -103.667 67 -143c41.333 -36 92 -54 152 -54c78.667 0.666992 140.334 27 185.001 79l25 -59c-30 -22 -64.333 -39 -103 -51c-32 -10 -68.333 -15 -109 -15c-94.667 0 -171 26.333 -229 79c-50 44.667 -75.333 99.334 -76 164.001c0 76 27 136.333 81 181
c38.667 32 86.334 52 143.001 60c17.333 2 29 3 35 3c-2 9.33301 -3 14.666 -3 15.999zM359.999 403.001c-31.333 0 -63.333 -7.33398 -96 -22.001c-36.667 -18 -67.667 -43.667 -93 -77c6 0.666992 12 1 18 1c56.667 0 105 -21 145 -63
c36.667 -38 56.334 -84.333 59.001 -139c39.333 26 66.666 47 81.999 63c26.667 28.667 40 59 40 91c0 48.667 -16.667 86.334 -50 113.001c-28 22 -63 33 -105 33z" />
    <glyph glyph-name="uniFECB" unicode="&#x639;" horiz-adv-x="596" arabic-form="initial" 
d="M373 450c58 0 113.335 -15.334 166.002 -46.001l-26 -60c-38.667 40.667 -85.334 60.334 -140.001 59.001c-27.333 0 -52.833 -6.33301 -76.5 -19s-43.167 -30 -58.5 -52c-23.333 -28.667 -35 -65 -35 -109c0 -35.333 11.667 -66.333 35 -93
c23.333 -27.333 54 -41 92 -41h122c53.333 0 88.666 -7.66699 105.999 -23v-86c-14.667 8 -29 13.333 -43 16s-35.333 4 -64 4h-451v89h155c-27.333 36.667 -41 79.667 -41 129c0 68 26.333 124.667 79 170c48 41.333 108 62 180 62z" />
    <glyph glyph-name="uniFECC" unicode="&#x639;" horiz-adv-x="712" arabic-form="medial" 
d="M376 450c74.667 0 135.333 -21.667 182 -65c40.667 -36.667 61 -81.334 61 -134.001c0 -64 -30.667 -118 -92 -162h204v-89h-197h-42c-24.667 0 -43.667 1.5 -57 4.5s-26 8.5 -38 16.5c-11.333 -8 -23.5 -13.5 -36.5 -16.5s-32.167 -4.5 -57.5 -4.5h-42h-261v89h323
c-2 4.66699 -3 9.33398 -3 14.001c-6 53.333 -27.667 95.333 -65 126c-26.667 21.333 -53.667 32 -81 32c-3.33301 0 -6.33301 -0.333008 -9 -1c-12.667 -2 -22 -8.33301 -28 -19l-44 46c72.667 108.667 167 163 283 163zM375.999 403
c-33.333 0 -64.666 -7.33301 -93.999 -22c-36.667 -16.667 -68.334 -42.334 -95.001 -77.001c6 0.666992 12 1 18 1c56.667 0 105 -21 145 -63c36.667 -38 56.334 -84.333 59.001 -139c39.333 26 66.666 47 81.999 63c26.667 28.667 40 59 40 91
c0 48.667 -16.667 86.334 -50 113.001c-28 22 -63 33 -105 33z" />
    <glyph glyph-name="uniFECE" unicode="&#x63a;" horiz-adv-x="697" arabic-form="final" 
d="M360 557c-14 0 -26.167 5.16699 -36.5 15.5s-15.5 22.833 -15.5 37.5c0 14 5.16699 26.167 15.5 36.5s22.5 15.5 36.5 15.5c14.667 0 27.167 -5.16699 37.5 -15.5s15.5 -22.5 15.5 -36.5c0 -14.667 -5.16699 -27.167 -15.5 -37.5s-22.833 -15.5 -37.5 -15.5zM304 103
c-6 53.333 -27.668 95.334 -65.001 126.001c-26.667 21.333 -53.667 32 -81 32c-3.33301 0 -6.33301 -0.333008 -9 -1c-12.667 -2 -22 -8.33301 -28 -19l-44 46c73.333 108.667 167.666 163 282.999 163c75.333 0 136.333 -21.667 183 -65
c40.667 -36.667 61 -81.334 61 -134.001c0 -63.333 -30.667 -117.333 -92 -162h204v-89h-197h-42c-24.667 0 -43.667 1.5 -57 4.5s-26 8.5 -38 16.5c-16 -14 -38.333 -21 -67 -21c-46.667 0 -87 -12.333 -121 -37c-38.667 -28.667 -58 -68.667 -58 -120
c0 -56 22.333 -103.667 67 -143c41.333 -36 92 -54 152 -54c78.667 0.666992 140.334 27 185.001 79l25 -59c-30 -22 -64.333 -39 -103 -51c-32 -10 -68.333 -15 -109 -15c-94.667 0 -171 26.333 -229 79c-50 44.667 -75.333 99.334 -76 164.001c0 76 27 136.333 81 181
c38.667 32 86.334 52 143.001 60c17.333 2 29 3 35 3c-2 9.33301 -3 14.666 -3 15.999zM359.999 403.001c-31.333 0 -63.333 -7.33398 -96 -22.001c-36.667 -18 -67.667 -43.667 -93 -77c6 0.666992 12 1 18 1c56.667 0 105 -21 145 -63
c36.667 -38 56.334 -84.333 59.001 -139c39.333 26 66.666 47 81.999 63c26.667 28.667 40 59 40 91c0 48.667 -16.667 86.334 -50 113.001c-28 22 -63 33 -105 33z" />
    <glyph glyph-name="uniFECF" unicode="&#x63a;" horiz-adv-x="596" arabic-form="initial" 
d="M370 557c-14 0 -26.167 5.16699 -36.5 15.5s-15.5 22.833 -15.5 37.5c0 14 5.16699 26.167 15.5 36.5s22.5 15.5 36.5 15.5c14.667 0 27.167 -5.16699 37.5 -15.5s15.5 -22.5 15.5 -36.5c0 -14.667 -5.16699 -27.167 -15.5 -37.5s-22.833 -15.5 -37.5 -15.5zM373 450
c58 0 113.335 -15.334 166.002 -46.001l-26 -60c-38.667 40.667 -85.334 60.334 -140.001 59.001c-27.333 0 -52.833 -6.33301 -76.5 -19s-43.167 -30 -58.5 -52c-23.333 -28.667 -35 -65 -35 -109c0 -35.333 11.667 -66.333 35 -93c23.333 -27.333 54 -41 92 -41h122
c53.333 0 88.666 -7.66699 105.999 -23v-86c-14.667 8 -29 13.333 -43 16s-35.333 4 -64 4h-451v89h155c-27.333 36.667 -41 79.667 -41 129c0 68 26.333 124.667 79 170c48 41.333 108 62 180 62z" />
    <glyph glyph-name="uniFED0" unicode="&#x63a;" horiz-adv-x="712" arabic-form="medial" 
d="M376 557c-14 0 -26.167 5.16699 -36.5 15.5s-15.5 22.833 -15.5 37.5c0 14 5.16699 26.167 15.5 36.5s22.5 15.5 36.5 15.5c14.667 0 27.167 -5.16699 37.5 -15.5s15.5 -22.5 15.5 -36.5c0 -14.667 -5.16699 -27.167 -15.5 -37.5s-22.833 -15.5 -37.5 -15.5zM376 450
c74.667 0 135.333 -21.667 182 -65c40.667 -36.667 61 -81.334 61 -134.001c0 -64 -30.667 -118 -92 -162h204v-89h-197h-42c-24.667 0 -43.667 1.5 -57 4.5s-26 8.5 -38 16.5c-11.333 -8 -23.5 -13.5 -36.5 -16.5s-32.167 -4.5 -57.5 -4.5h-42h-261v89h323
c-2 4.66699 -3 9.33398 -3 14.001c-6 53.333 -27.667 95.333 -65 126c-26.667 21.333 -53.667 32 -81 32c-3.33301 0 -6.33301 -0.333008 -9 -1c-12.667 -2 -22 -8.33301 -28 -19l-44 46c72.667 108.667 167 163 283 163zM375.999 403
c-33.333 0 -64.666 -7.33301 -93.999 -22c-36.667 -16.667 -68.334 -42.334 -95.001 -77.001c6 0.666992 12 1 18 1c56.667 0 105 -21 145 -63c36.667 -38 56.334 -84.333 59.001 -139c39.333 26 66.666 47 81.999 63c26.667 28.667 40 59 40 91
c0 48.667 -16.667 86.334 -50 113.001c-28 22 -63 33 -105 33z" />
    <glyph glyph-name="uniFED2" unicode="&#x641;" horiz-adv-x="1084" arabic-form="final" 
d="M789 557c-14 0 -26.167 5.16699 -36.5 15.5s-15.5 22.833 -15.5 37.5c0 14 5.16699 26.167 15.5 36.5s22.5 15.5 36.5 15.5c14.667 0 27.167 -5.16699 37.5 -15.5s15.5 -22.5 15.5 -36.5c0 -14.667 -5.16699 -27.167 -15.5 -37.5s-22.833 -15.5 -37.5 -15.5zM1104 89
l0.00195312 -88.999h-177h-49c-38 0 -67.667 6.33301 -89 19c-20 -12.667 -49.333 -19 -88 -19h-50h-315c-87.333 0 -158 25.333 -212 76c-49.333 46.667 -74.333 107.667 -75 183c-1.33301 76.667 23.667 138.667 75 186l57 -30c-32 -16 -55 -40 -69 -72
c-10 -20.667 -15 -43.334 -15 -68.001c0 -7.33301 0.333008 -14.333 1 -21c8 -55.333 37.667 -98.333 89 -129c39.333 -23.333 84.666 -35.333 135.999 -36h328c-18.667 16 -33.834 37.167 -45.501 63.5s-17.5 52.5 -17.5 78.5c0 56 14 103 42 141
c37.333 52 90.333 78 159 78c66.667 0 119.334 -25.333 158.001 -76c28.667 -39.333 43 -87 43 -143c0 -26 -5.83301 -52.167 -17.5 -78.5s-26.834 -47.5 -45.501 -63.5h177zM880.002 163.001c14 24 21.001 52.332 21.001 84.999c0 39.333 -8.33301 72.333 -25 99
c-22.667 37.333 -51.667 56 -87 56c-36 0 -65.667 -19.333 -89 -58c-15.333 -26 -23 -58.333 -23 -97c0 -32.667 7 -61 21 -85c20.667 -35.333 51 -58 91 -68c41.333 10.667 71.666 33.334 90.999 68.001z" />
    <glyph glyph-name="uniFED3" unicode="&#x641;" horiz-adv-x="582" arabic-form="initial" 
d="M344 554c-14.667 0 -27.167 5.16699 -37.5 15.5s-15.5 22.833 -15.5 37.5c0 14 5.16699 26.167 15.5 36.5s22.833 15.5 37.5 15.5c14 0 26.167 -5.16699 36.5 -15.5s15.5 -22.5 15.5 -36.5c0 -14.667 -5.16699 -27.167 -15.5 -37.5s-22.5 -15.5 -36.5 -15.5zM341 445
l194 -0.000976562c-8 -14 -13.333 -28.167 -16 -42.5s-4 -35.833 -4 -64.5v-154c0 -57.333 -14.667 -101.666 -44 -132.999c-32 -34 -79.667 -51 -143 -51h-328v89h159c-30 34 -45 78.333 -45 133c0 72.667 25 129.667 75 171c41.333 34.667 92 52 152 52zM431 398.999
h-73.001c-54.667 -0.666992 -95.667 -18.667 -123 -54c-22 -28.667 -33 -66.667 -33 -114c0 -44 13.333 -79 40 -105c24.667 -24.667 57.334 -37 98.001 -37c26 0 47 7 63 21c15.333 14.667 23 35 23 61v167c0 22.667 1.66699 43 5 61z" />
    <glyph glyph-name="uniFED4" unicode="&#x641;" horiz-adv-x="610" arabic-form="medial" 
d="M315 558c-14.667 0 -27.167 5.16699 -37.5 15.5s-15.5 22.833 -15.5 37.5c0 14 5.16699 26.167 15.5 36.5s22.833 15.5 37.5 15.5c14 0 26.167 -5.16699 36.5 -15.5s15.5 -22.5 15.5 -36.5c0 -14.667 -5.16699 -27.167 -15.5 -37.5s-22.5 -15.5 -36.5 -15.5zM629 89
l0.00390625 -89h-176h-49c-38.667 -0 -68.334 6.33301 -89.001 19c-20.667 -12.667 -50.334 -19 -89.001 -19h-49h-177v89h177c-18.667 16 -33.834 37.167 -45.501 63.5s-17.5 52.5 -17.5 78.5c0 55.333 13.667 102.333 41 141c38.667 52 92 78 160 78
c67.333 0 119.666 -25.333 156.999 -76c28.667 -38 43 -85.667 43 -143c0 -26 -5.66699 -52.167 -17 -78.5s-26.333 -47.5 -45 -63.5h176zM406.004 163c14 24 21.001 52.332 21.001 84.999c0 39.333 -8.33301 72.333 -25 99c-22.667 37.333 -51.667 56 -87 56
c-36 0 -65.667 -19.333 -89 -58c-15.333 -26 -23 -58.333 -23 -97c0 -32.667 7 -61 21 -85c20.667 -35.333 51 -58 91 -68c41.333 10.667 71.666 33.334 90.999 68.001z" />
    <glyph glyph-name="uniFED6" unicode="&#x642;" horiz-adv-x="783" arabic-form="final" 
d="M426 554c-14.667 0 -27.167 5.16699 -37.5 15.5s-15.5 22.833 -15.5 37.5c0 14 5.16699 26.167 15.5 36.5s22.833 15.5 37.5 15.5c14 0 26.167 -5.16699 36.5 -15.5s15.5 -22.5 15.5 -36.5c0 -14.667 -5.16699 -27.167 -15.5 -37.5s-22.5 -15.5 -36.5 -15.5zM567 554
c-14.667 0 -27.167 5.16699 -37.5 15.5s-15.5 22.833 -15.5 37.5c0 14 5.16699 26.167 15.5 36.5s22.833 15.5 37.5 15.5c14 0 26.167 -5.16699 36.5 -15.5s15.5 -22.5 15.5 -36.5c0 -14.667 -5.16699 -27.167 -15.5 -37.5s-22.5 -15.5 -36.5 -15.5zM802 0
l-135.001 0.00292969c-10 -91.333 -50.667 -160.666 -122 -207.999c-54 -36 -116.333 -54 -187 -54c-51.333 0 -99.666 10.333 -144.999 31c-49.333 22.667 -88.333 55 -117 97c-32 47.333 -48.333 103.666 -49 168.999c0 38 6.33301 73.333 19 106
c14.667 33.333 33 59.666 55 78.999l57 -30c-29.333 -14.667 -52 -38.334 -68 -71.001c-10 -21.333 -15 -46.333 -15 -75v-11c2.66699 -59.333 29.334 -109 80.001 -149c48.667 -39.333 109 -59 181 -59c64 0 117 18.667 159 56c34.667 32 55 71.667 61 119h-79
c-70.667 0 -127.667 22.667 -171 68c-38.667 40.667 -58 92.667 -58 156c0 71.333 25 127.666 75 168.999c41.333 34.667 92 52 152 52h195c-8.66699 -14 -14.334 -28.167 -17.001 -42.5s-4 -35.833 -4 -64.5v-249h133v-89zM578.999 89.0029l-0.000976562 249
c0 22.667 1.66699 43 5 61h-73c-54.667 -0.666992 -95.667 -18.667 -123 -54c-22 -28.667 -33 -66.667 -33 -114c0 -44 13.333 -79 40 -105c24.667 -24.667 57.334 -37 98.001 -37h86z" />
    <glyph glyph-name="uniFED7" unicode="&#x642;" horiz-adv-x="590" arabic-form="initial" 
d="M280 554c-14.667 0 -27.167 5.16699 -37.5 15.5s-15.5 22.833 -15.5 37.5c0 14 5.16699 26.167 15.5 36.5s22.833 15.5 37.5 15.5c14 0 26.167 -5.16699 36.5 -15.5s15.5 -22.5 15.5 -36.5c0 -14.667 -5.16699 -27.167 -15.5 -37.5s-22.5 -15.5 -36.5 -15.5zM421 554
c-14.667 0 -27.167 5.16699 -37.5 15.5s-15.5 22.833 -15.5 37.5c0 14 5.16699 26.167 15.5 36.5s22.833 15.5 37.5 15.5c14 0 26.167 -5.16699 36.5 -15.5s15.5 -22.5 15.5 -36.5c0 -14.667 -5.16699 -27.167 -15.5 -37.5s-22.5 -15.5 -36.5 -15.5zM348 445
l194 -0.000976562c-8 -14 -13.333 -28.167 -16 -42.5s-4 -35.833 -4 -64.5v-154c0 -57.333 -14.667 -101.666 -44 -132.999c-32 -34 -79.667 -51 -143 -51h-335v89h167c-30 34.667 -45 79 -45 133c0 72.667 24.667 129.667 74 171c41.333 34.667 92 52 152 52zM438 398.999
h-73c-54.667 -0.666992 -95.334 -18.667 -122.001 -54c-22 -28.667 -33 -66.667 -33 -114c0 -44 13.333 -79 40 -105c24.667 -24.667 57.334 -37 98.001 -37c26 0 46.667 7 62 21c15.333 14.667 23 35 23 61v167c0 22.667 1.66699 43 5 61z" />
    <glyph glyph-name="uniFED8" unicode="&#x642;" horiz-adv-x="610" arabic-form="medial" 
d="M244 554c-14.667 0 -27.167 5.16699 -37.5 15.5s-15.5 22.833 -15.5 37.5c0 14 5.16699 26.167 15.5 36.5s22.833 15.5 37.5 15.5c14 0 26.167 -5.16699 36.5 -15.5s15.5 -22.5 15.5 -36.5c0 -14.667 -5.16699 -27.167 -15.5 -37.5s-22.5 -15.5 -36.5 -15.5zM385 554
c-14.667 0 -27.167 5.16699 -37.5 15.5s-15.5 22.833 -15.5 37.5c0 14 5.16699 26.167 15.5 36.5s22.833 15.5 37.5 15.5c14 0 26.167 -5.16699 36.5 -15.5s15.5 -22.5 15.5 -36.5c0 -14.667 -5.16699 -27.167 -15.5 -37.5s-22.5 -15.5 -36.5 -15.5zM629 89l0.00390625 -89
h-176h-49c-38.667 -0 -68.334 6.33301 -89.001 19c-20.667 -12.667 -50.334 -19 -89.001 -19h-49h-177v89h177c-18.667 16 -33.834 37.167 -45.501 63.5s-17.5 52.5 -17.5 78.5c0 55.333 13.667 102.333 41 141c38.667 52 92 78 160 78
c67.333 0 119.666 -25.333 156.999 -76c28.667 -38 43 -85.667 43 -143c0 -26 -5.66699 -52.167 -17 -78.5s-26.333 -47.5 -45 -63.5h176zM406.004 163c14 24 21.001 52.332 21.001 84.999c0 39.333 -8.33301 72.333 -25 99c-22.667 37.333 -51.667 56 -87 56
c-36 0 -65.667 -19.333 -89 -58c-15.333 -26 -23 -58.333 -23 -97c0 -32.667 7 -61 21 -85c20.667 -35.333 51 -58 91 -68c41.333 10.667 71.666 33.334 90.999 68.001z" />
    <glyph glyph-name="uniFEDA" unicode="&#x643;" horiz-adv-x="1088" arabic-form="final" 
d="M1109 89l-0.000976562 -87.999h-35c-63.333 0 -110.666 16.667 -141.999 50c-31.333 -34 -79 -51 -143 -51h-454c-87.333 0 -158 25.333 -212 76c-49.333 46.667 -74.333 107.334 -75 182.001c-1.33301 77.333 23.667 139.666 75 186.999l58 -30
c-32.667 -16.667 -56 -40.667 -70 -72c-10 -21.333 -15 -44.333 -15 -69c0 -6.66699 0.333008 -13.667 1 -21c8 -55.333 37.667 -98 89 -128c40 -23.333 85.667 -35.333 137 -36h473c28.667 0 51 7 67 21s24 34 24 60v405c0 52.667 7.66699 88 23 106h86
c-8 -14 -13.333 -28.167 -16 -42.5s-4 -35.833 -4 -64.5v-390l-1 -21c2 -26.667 13 -46.334 33 -59.001c15.333 -10 35 -15 59 -15h42zM458.999 319.001c-10.667 -1.33301 -20.667 -1.99902 -30 -1.99902c-11.333 0 -19.666 1 -24.999 3v39c4.66699 -2.66699 11 -4 19 -4
c9.33301 0 21.666 1.66699 36.999 5l8 2c-26 19.333 -39 45.666 -39 78.999c1.33301 36 14.333 64.333 39 85c21.333 18 47.666 27 78.999 27c24 0 49 -7.33301 75 -22l-9 -25c-18.667 16.667 -40 25 -64 25c-18 0 -33.667 -5.83301 -47 -17.5s-21.333 -26.167 -24 -43.5
c-2.66699 -6 -4 -13.333 -4 -22c0 -13.333 3.66699 -25 11 -35c8 -18 24.333 -27 49 -27c14 0 31.667 2.66699 53 8c14.667 3.33301 27.334 5 38.001 5c8 0 15.333 -1 22 -3v-40c-6.66699 2 -13.667 3 -21 3c-10 0 -22 -1.66699 -36 -5l-50 -14
c-38.667 -11.333 -65.667 -18.333 -81 -21z" />
    <glyph glyph-name="uniFEDB" unicode="&#x643;" horiz-adv-x="649" arabic-form="initial" 
d="M343 450c82.667 0 148.334 -27.334 197.001 -82.001c40.667 -45.333 61 -100 61 -164c0 -61.333 -17.667 -110.666 -53 -147.999s-85 -56 -149 -56h-398l-1 89h394c42 0 73.333 14.333 94 43c16 20.667 24 46 24 76c0 66.667 -19.333 117.667 -58 153
c-29.333 27.333 -65.666 41.333 -108.999 42c-4.66699 0.666992 -10.334 1 -17.001 1c-11.333 0 -23.333 -1 -36 -3c-14.667 -2 -31.667 -6 -51 -12c-38.667 -12.667 -75 -36.667 -109 -72l-28 63l171 230c30.667 42 57.667 65.667 81 71l68 -52
c-14.667 -5.33301 -27.334 -13 -38.001 -23s-25 -26.667 -43 -50l-81 -112c24.667 4 51.667 6 81 6z" />
    <glyph glyph-name="uniFEDC" unicode="&#x643;" horiz-adv-x="697" arabic-form="medial" 
d="M716 89v-89h-18c-66.667 -0 -115.667 19.333 -147 58c-35.333 -38.667 -86 -58 -152 -58h-398l-1 89h394c42 0 73.667 14.333 95 43c16 20.667 24 46 24 76c0 66.667 -19.333 117.667 -58 153c-29.333 27.333 -66 41.333 -110 42c-4.66699 0.666992 -10 1 -16 1
c-12 0 -24 -1 -36 -3c-15.333 -2 -32.666 -6 -51.999 -12c-38.667 -12.667 -75 -36.667 -109 -72l-28 63l171 230c30.667 42 57.667 65.667 81 71l68 -52c-14.667 -5.33301 -27.334 -13 -38.001 -23s-25 -26.667 -43 -50l-81 -112c24.667 4 51.667 6 81 6
c82.667 0 148.667 -27.333 198 -82c40 -45.333 60 -100 60 -164v-4v-29c0 -26 8 -46.167 24 -60.5s38.333 -21.5 67 -21.5h24z" />
    <glyph glyph-name="uniFEDE" unicode="&#x644;" horiz-adv-x="735" arabic-form="final" 
d="M556 681l85.999 0.000976562c-8 -14 -13.333 -27.833 -16 -41.5s-4 -35.5 -4 -65.5v-403c0 -26 7.83301 -46.167 23.5 -60.5s37.834 -21.5 66.501 -21.5h42v-89h-34c-40 0 -73.333 7 -100 21c-2.66699 -69.333 -23 -128.666 -61 -177.999
c-53.333 -70 -128 -105 -224 -105c-93.333 0 -167 34 -221 102c-44 54.667 -66 119.667 -66 195c0 38 6.33301 73.333 19 106c14.667 33.333 33.334 60 56.001 80l56 -31c-31.333 -15.333 -54 -39 -68 -71c-10 -22.667 -15 -48.334 -15 -77.001v-9
c2 -62 29 -113.667 81 -155c44.667 -35.333 95.667 -53 153 -53c81.333 0 139.666 33 174.999 99c18.667 35.333 28 80.333 28 135v516c0 53.333 7.66699 88.666 23 105.999z" />
    <glyph glyph-name="uniFEDF" unicode="&#x644;" horiz-adv-x="298" arabic-form="initial" 
d="M165 681l86 -0.000976562c-8 -14 -13.333 -28.167 -16 -42.5s-4 -35.833 -4 -64.5v-390c0 -57.333 -14.667 -101.666 -44 -132.999c-32 -34 -79.667 -51 -143 -51h-44v89h51c28.667 0 51 7.33301 67 22c16 14 24 34 24 60v404c0 52.667 7.66699 88 23 106z" />
    <glyph glyph-name="uniFEE0" unicode="&#x644;" horiz-adv-x="345" arabic-form="medial" 
d="M364 0h-35.001c-64 0 -111.333 17.667 -142 53c-32 -35.333 -79.667 -53 -143 -53h-44v89h51c28.667 0 51 7.33301 67 22c16 14 24 34 24 60v404c0 52.667 7.66699 88 23 106h86c-8 -14 -13.333 -28.167 -16 -42.5s-4 -35.833 -4 -64.5v-403
c0 -26 7.83301 -46.167 23.5 -60.5s37.834 -21.5 66.501 -21.5h43v-89z" />
    <glyph glyph-name="uniFEE2" unicode="&#x645;" horiz-adv-x="673" arabic-form="final" 
d="M692 88v-87.998h-18c-68.667 0 -117.667 20.667 -147 62c-38 -47.333 -88.667 -71 -152 -71c-34.667 0 -65.667 7.33301 -93 22h-84c-20 0 -32.333 -7 -37 -21c-2 -7.33301 -3.33301 -24 -4 -50v-126c0 -52.667 -7.66699 -88 -23 -106h-86c8 14 13.333 28.167 16 42.5
s4 35.833 4 64.5v147v12c0 37.333 7.66699 66.666 23 87.999c18 22 43.333 34.333 76 37c6 0.666992 16.333 1 31 1c-17.333 34.667 -26 75 -26 121c0 70 20 126.333 60 169c37.333 38.667 85 58 143 58c66.667 0 118.667 -25 156 -75
c30.667 -40.667 46 -91.334 46 -152.001v-8v-45c0 -25.333 8 -45.333 24 -60s38.333 -22 67 -22h24zM375 79.002c38.667 0 68.333 15.667 89 47c16.667 26.667 25 61.667 25 105c0 54 -12 97.333 -36 130c-20.667 28 -46.667 42 -78 42c-36 0 -64.667 -18.333 -86 -55
c-18.667 -31.333 -28 -70.333 -28 -117c0 -50 11 -88.333 33 -115c20 -24.667 47 -37 81 -37z" />
    <glyph glyph-name="uniFEE3" unicode="&#x645;" horiz-adv-x="568" arabic-form="initial" 
d="M318 450c66.667 0 118.668 -25.002 156.001 -75.002c30.667 -40.667 46 -91.667 46 -153c0 -72 -20 -129.667 -60 -173c-36.667 -40 -84 -60 -142 -60c-64.667 0 -115.334 24 -152.001 72c-30.667 -40.667 -80 -61 -148 -61h-18v89h24c28.667 0 51 6.66699 67 20
c16 14.667 24 35.334 24 62.001v50v1c0 70.667 20 127.334 60 170.001c37.333 38.667 85 58 143 58zM317.001 77.998c38.667 0 68.333 15.667 89 47c16.667 26.667 25 62 25 106c0 54 -12 97.333 -36 130c-20.667 28 -46.667 42 -78 42c-36 0 -64.667 -18 -86 -54
c-18.667 -32 -28 -71.333 -28 -118c0 -50 11 -88.667 33 -116c20 -24.667 47 -37 81 -37z" />
    <glyph glyph-name="uniFEE4" unicode="&#x645;" horiz-adv-x="616" arabic-form="medial" 
d="M636 89l0.00195312 -89.002h-18c-68.667 0 -118 20 -148 60c-36.667 -47.333 -87.334 -71 -152.001 -71s-115.334 24 -152.001 72c-30.667 -40.667 -80 -61 -148 -61h-18v89h24c28.667 0 51 6.66699 67 20c16 14.667 24 35.334 24 62.001v50v1
c0 70.667 20 127.334 60 170.001c37.333 38.667 85 58 143 58c66.667 0 118.667 -25 156 -75c30.667 -41.333 46 -92.333 46 -153v-7v-44c0 -26 8.16699 -46.167 24.5 -60.5s38.833 -21.5 67.5 -21.5h24zM317.002 77.998c38.667 0 68.333 15.667 89 47
c16.667 26.667 25 62 25 106c0 54 -12 97.333 -36 130c-20.667 28 -46.667 42 -78 42c-36 0 -64.667 -18 -86 -54c-18.667 -32 -28 -71.333 -28 -118c0 -50 11 -88.667 33 -116c20 -24.667 47 -37 81 -37z" />
    <glyph glyph-name="uniFEE6" unicode="&#x646;" horiz-adv-x="735" arabic-form="final" 
d="M315 345c-14.667 0 -27.167 5.16699 -37.5 15.5s-15.5 22.833 -15.5 37.5c0 14 5.16699 26.167 15.5 36.5s22.833 15.5 37.5 15.5c14 0 26.167 -5.16699 36.5 -15.5s15.5 -22.5 15.5 -36.5c0 -14.667 -5.16699 -27.167 -15.5 -37.5s-22.5 -15.5 -36.5 -15.5zM556 445
l85.999 0.00195312c-8 -14 -13.333 -27.833 -16 -41.5s-4 -35.5 -4 -65.5v-167c0 -26 7.83301 -46.167 23.5 -60.5s37.834 -21.5 66.501 -21.5h42v-89h-34c-40 0 -73.333 7 -100 21c-2.66699 -69.333 -23 -128.666 -61 -177.999c-53.333 -70 -128 -105 -224 -105
c-93.333 0 -167 34 -221 102c-44 54.667 -66 119.667 -66 195c0 38 6.33301 73.333 19 106c14.667 33.333 33.334 59.666 56.001 78.999l56 -30c-31.333 -16 -54 -39.667 -68 -71c-10 -22.667 -15 -48.334 -15 -77.001v-9c2 -62 29 -113.667 81 -155
c44.667 -35.333 95.667 -53 153 -53c81.333 0 139.666 33 174.999 99c18.667 35.333 28 80.333 28 135v280c0 53.333 7.66699 88.666 23 105.999z" />
    <glyph glyph-name="uniFEE7" unicode="&#x646;" horiz-adv-x="298" arabic-form="initial" 
d="M203 554c-14.667 0 -27.167 5.16699 -37.5 15.5s-15.5 22.833 -15.5 37.5c0 14 5.16699 26.167 15.5 36.5s22.833 15.5 37.5 15.5c14 0 26.167 -5.16699 36.5 -15.5s15.5 -22.5 15.5 -36.5c0 -14.667 -5.16699 -27.167 -15.5 -37.5s-22.5 -15.5 -36.5 -15.5zM165 445
l86 -0.000976562c-8 -14 -13.333 -28.167 -16 -42.5s-4 -35.833 -4 -64.5v-154c0 -57.333 -14.667 -101.666 -44 -132.999c-32 -34 -79.667 -51 -143 -51h-44v89h51c28.667 0 51 7.33301 67 22c16 14 24 34 24 60v168c0 52 7.66699 87.333 23 106z" />
    <glyph glyph-name="uniFEE8" unicode="&#x646;" horiz-adv-x="343" arabic-form="medial" 
d="M203 554c-14.667 0 -27.167 5.16699 -37.5 15.5s-15.5 22.833 -15.5 37.5c0 14 5.16699 26.167 15.5 36.5s22.833 15.5 37.5 15.5c14 0 26.167 -5.16699 36.5 -15.5s15.5 -22.5 15.5 -36.5c0 -14.667 -5.16699 -27.167 -15.5 -37.5s-22.5 -15.5 -36.5 -15.5zM363 89
l-0.000976562 -89h-34c-63.333 0 -110.666 17 -141.999 51c-32.667 -34 -80.334 -51 -143.001 -51h-44v89h51c28.667 0 51 7.33301 67 22c16 14 24 34 24 60v168c0 52 7.66699 87.333 23 106h86c-8 -14 -13.333 -28.167 -16 -42.5s-4 -35.833 -4 -64.5v-154v-6v-7
c0 -26 7.83301 -46.167 23.5 -60.5s37.834 -21.5 66.501 -21.5h42z" />
    </font>
</defs>
</svg>
